RobotoAvar2-YOPQ2.ufo
<glyph name="numbersign" format="2">
	<unicode hex="0023"/>
	<advance width="1544"/>
	<outline>
		<contour>
			<point x="287" y="-20" type="line"/>
			<point x="724" y="1501" type="line"/>
			<point x="731" y="1501" type="line"/>
			<point x="294" y="-20" type="line"/>
		</contour>
		<contour>
			<point x="793" y="-20" type="line"/>
			<point x="1230" y="1501" type="line"/>
			<point x="1237" y="1501" type="line"/>
			<point x="800" y="-20" type="line"/>
		</contour>
		<contour>
			<point x="64" y="404" type="line"/>
			<point x="64" y="542" type="line"/>
			<point x="1405" y="542" type="line"/>
			<point x="1405" y="404" type="line"/>
		</contour>
		<contour>
			<point x="115" y="939" type="line"/>
			<point x="115" y="1077" type="line"/>
			<point x="1455" y="1077" type="line"/>
			<point x="1455" y="939" type="line"/>
		</contour>
	</outline>
</glyph>
<glyph name="ampersand" format="2">
  <advance width="1280"/>
  <unicode hex="0026"/>
  <outline>
    <contour>
      <point x="80" y="380" type="qcurve" smooth="yes"/>
      <point x="80" y="489"/>
      <point x="301" y="687"/>
      <point x="439" y="774" type="qcurve" smooth="yes"/>
      <point x="559" y="850" type="line" smooth="yes"/>
      <point x="687" y="931"/>
      <point x="750" y="1106"/>
      <point x="750" y="1202" type="qcurve" smooth="yes"/>
      <point x="750" y="1330"/>
      <point x="655" y="1479"/>
      <point x="575" y="1479" type="qcurve" smooth="yes"/>
      <point x="490" y="1479"/>
      <point x="392" y="1317"/>
      <point x="392" y="1180" type="qcurve" smooth="yes"/>
      <point x="392" y="1090"/>
      <point x="472" y="960"/>
      <point x="570" y="840" type="qcurve" smooth="yes"/>
      <point x="1256" y="0" type="line"/>
      <point x="1034" y="0" type="line"/>
      <point x="430" y="740" type="line" smooth="yes"/>
      <point x="324" y="870"/>
      <point x="210" y="1060"/>
      <point x="210" y="1180" type="qcurve" smooth="yes"/>
      <point x="210" y="1303"/>
      <point x="423" y="1486"/>
      <point x="575" y="1486" type="qcurve" smooth="yes"/>
      <point x="727" y="1486"/>
      <point x="922" y="1323"/>
      <point x="922" y="1202" type="qcurve" smooth="yes"/>
      <point x="922" y="1106"/>
      <point x="746" y="961"/>
      <point x="556" y="840" type="qcurve" smooth="yes"/>
      <point x="441" y="767" type="line" smooth="yes"/>
      <point x="348" y="708"/>
      <point x="264" y="499"/>
      <point x="264" y="380" type="qcurve" smooth="yes"/>
      <point x="264" y="222"/>
      <point x="420" y="-13"/>
      <point x="590" y="-13" type="qcurve" smooth="yes"/>
      <point x="807" y="-13"/>
      <point x="1155" y="382"/>
      <point x="1155" y="674" type="qcurve"/>
      <point x="1162" y="674" type="line"/>
      <point x="1162" y="380"/>
      <point x="810" y="-20"/>
      <point x="590" y="-20" type="qcurve" smooth="yes"/>
      <point x="330" y="-20"/>
      <point x="80" y="205"/>
    </contour>
  </outline>
</glyph>
<glyph name="parenright" format="2">
  <advance width="700"/>
  <unicode hex="0029"/>
  <outline>
    <contour>
      <point x="36" y="-436" type="qcurve"/>
      <point x="36" y="-430" type="line"/>
      <point x="160" y="-354"/>
      <point x="381" y="193"/>
      <point x="381" y="508" type="qcurve" smooth="yes"/>
      <point x="381" y="532" type="line" smooth="yes"/>
      <point x="381" y="861"/>
      <point x="160" y="1393"/>
      <point x="36" y="1469" type="qcurve"/>
      <point x="36" y="1476" type="line"/>
      <point x="240" y="1380"/>
      <point x="576" y="917"/>
      <point x="576" y="525" type="qcurve" smooth="yes"/>
      <point x="576" y="515" type="line" smooth="yes"/>
      <point x="576" y="140"/>
      <point x="240" y="-340"/>
    </contour>
  </outline>
</glyph>
<glyph name="asterisk" format="2">
  <advance width="1080"/>
  <unicode hex="002A"/>
  <outline>
    <contour>
      <point x="58" y="1057" type="line"/>
      <point x="117" y="1237" type="line"/>
      <point x="537" y="996" type="line"/>
      <point x="445" y="1476" type="line"/>
      <point x="635" y="1476" type="line"/>
      <point x="543" y="996" type="line"/>
      <point x="963" y="1237" type="line"/>
      <point x="1022" y="1057" type="line"/>
      <point x="545" y="990" type="line"/>
      <point x="897" y="671" type="line"/>
      <point x="743" y="559" type="line"/>
      <point x="540" y="986" type="line"/>
      <point x="337" y="559" type="line"/>
      <point x="183" y="671" type="line"/>
      <point x="535" y="990" type="line"/>
    </contour>
  </outline>
</glyph>
<glyph name="zero" format="2">
  <advance width="1156"/>
  <unicode hex="0030"/>
  <outline>
    <contour>
      <point x="110" y="460" type="qcurve" smooth="yes"/>
      <point x="110" y="996" type="line" smooth="yes"/>
      <point x="110" y="1216"/>
      <point x="358" y="1486"/>
      <point x="578" y="1486" type="qcurve" smooth="yes"/>
      <point x="796" y="1486"/>
      <point x="1046" y="1216"/>
      <point x="1046" y="996" type="qcurve" smooth="yes"/>
      <point x="1046" y="460" type="line" smooth="yes"/>
      <point x="1046" y="240"/>
      <point x="796" y="-30"/>
      <point x="578" y="-30" type="qcurve" smooth="yes"/>
      <point x="358" y="-30"/>
      <point x="110" y="240"/>
    </contour>
    <contour>
      <point x="304" y="379" type="line" smooth="yes"/>
      <point x="304" y="203"/>
      <point x="438" y="-26"/>
      <point x="578" y="-26" type="qcurve" smooth="yes"/>
      <point x="718" y="-26"/>
      <point x="852" y="203"/>
      <point x="852" y="379" type="qcurve" smooth="yes"/>
      <point x="852" y="1078" type="line" smooth="yes"/>
      <point x="852" y="1253"/>
      <point x="718" y="1482"/>
      <point x="578" y="1482" type="qcurve" smooth="yes"/>
      <point x="438" y="1482"/>
      <point x="304" y="1253"/>
      <point x="304" y="1078" type="qcurve" smooth="yes"/>
    </contour>
  </outline>
</glyph>
<glyph name="one" format="2">
	<unicode hex="0031"/>
	<advance width="1156"/>
	<outline>
		<contour>
			<point x="540" y="0" type="line"/>
			<point x="540" y="1411" type="line"/>
			<point x="172" y="1271" type="line"/>
			<point x="172" y="1276" type="line"/>
			<point x="728" y="1488" type="line"/>
			<point x="732" y="1488" type="line"/>
			<point x="732" y="0" type="line"/>
		</contour>
	</outline>
</glyph>
<glyph name="three" format="2">
  <advance width="1156"/>
  <unicode hex="0033"/>
  <outline>
    <contour>
      <point x="80" y="380" type="qcurve" smooth="yes"/>
      <point x="80" y="390" type="line"/>
      <point x="266" y="390" type="line"/>
      <point x="266" y="300" type="line" smooth="yes"/>
      <point x="266" y="161"/>
      <point x="426" y="-23"/>
      <point x="558" y="-23" type="qcurve" smooth="yes"/>
      <point x="690" y="-23"/>
      <point x="848" y="185"/>
      <point x="848" y="361" type="qcurve" smooth="yes"/>
      <point x="848" y="558"/>
      <point x="670" y="761"/>
      <point x="520" y="760" type="qcurve" smooth="yes"/>
      <point x="405" y="760" type="line"/>
      <point x="405" y="767" type="line"/>
      <point x="510" y="767" type="line" smooth="yes"/>
      <point x="648" y="767"/>
      <point x="798" y="961"/>
      <point x="798" y="1135" type="qcurve" smooth="yes"/>
      <point x="798" y="1297"/>
      <point x="668" y="1479"/>
      <point x="558" y="1479" type="qcurve" smooth="yes"/>
      <point x="442" y="1479"/>
      <point x="306" y="1309"/>
      <point x="306" y="1153" type="qcurve" smooth="yes"/>
      <point x="306" y="1090" type="line"/>
      <point x="120" y="1090" type="line"/>
      <point x="120" y="1100" type="line" smooth="yes"/>
      <point x="120" y="1260"/>
      <point x="362" y="1486"/>
      <point x="558" y="1486" type="qcurve" smooth="yes"/>
      <point x="748" y="1486"/>
      <point x="990" y="1270"/>
      <point x="990" y="1100" type="qcurve" smooth="yes"/>
      <point x="990" y="1000"/>
      <point x="880" y="816"/>
      <point x="764" y="766" type="qcurve"/>
      <point x="764" y="762" type="line"/>
      <point x="890" y="730"/>
      <point x="1042" y="540"/>
      <point x="1042" y="401" type="qcurve" smooth="yes"/>
      <point x="1042" y="200"/>
      <point x="768" y="-30"/>
      <point x="558" y="-30" type="qcurve" smooth="yes"/>
      <point x="336" y="-30"/>
      <point x="80" y="200"/>
    </contour>
  </outline>
</glyph>
<glyph name="five" format="2">
  <advance width="1156"/>
  <unicode hex="0035"/>
  <outline>
    <contour>
      <point x="100" y="365" type="qcurve" smooth="yes"/>
      <point x="100" y="375" type="line"/>
      <point x="284" y="375" type="line"/>
      <point x="284" y="365" type="line" smooth="yes"/>
      <point x="284" y="203"/>
      <point x="423" y="-23"/>
      <point x="570" y="-23" type="qcurve" smooth="yes"/>
      <point x="696" y="-23"/>
      <point x="866" y="280"/>
      <point x="866" y="465" type="qcurve" smooth="yes"/>
      <point x="866" y="656"/>
      <point x="720" y="885"/>
      <point x="571" y="885" type="qcurve" smooth="yes"/>
      <point x="472" y="885"/>
      <point x="333" y="769"/>
      <point x="282" y="668" type="qcurve"/>
      <point x="150" y="730" type="line"/>
      <point x="224" y="1456" type="line"/>
      <point x="980" y="1456" type="line"/>
      <point x="980" y="1449" type="line"/>
      <point x="397" y="1449" type="line"/>
      <point x="321" y="739" type="line"/>
      <point x="373" y="810"/>
      <point x="471" y="892"/>
      <point x="571" y="892" type="qcurve" smooth="yes"/>
      <point x="763" y="892"/>
      <point x="1056" y="694"/>
      <point x="1056" y="465" type="qcurve" smooth="yes"/>
      <point x="1056" y="234"/>
      <point x="780" y="-30"/>
      <point x="570" y="-30" type="qcurve" smooth="yes"/>
      <point x="346" y="-30"/>
      <point x="100" y="195"/>
    </contour>
  </outline>
</glyph>
<glyph name="six" format="2">
  <advance width="1156"/>
  <unicode hex="0036"/>
  <outline>
    <contour>
      <point x="88" y="614" type="qcurve" smooth="yes"/>
      <point x="88" y="644" type="line" smooth="yes"/>
      <point x="88" y="997"/>
      <point x="499" y="1456"/>
      <point x="879" y="1456" type="qcurve" smooth="yes"/>
      <point x="900" y="1456" type="line"/>
      <point x="900" y="1449" type="line"/>
      <point x="880" y="1449" type="line" smooth="yes"/>
      <point x="600" y="1449"/>
      <point x="276" y="977"/>
      <point x="276" y="644" type="qcurve" smooth="yes"/>
      <point x="276" y="614" type="line" smooth="yes"/>
      <point x="276" y="290"/>
      <point x="460" y="-23"/>
      <point x="600" y="-23" type="qcurve" smooth="yes"/>
      <point x="740" y="-23"/>
      <point x="894" y="242"/>
      <point x="894" y="454" type="qcurve" smooth="yes"/>
      <point x="894" y="673"/>
      <point x="737" y="929"/>
      <point x="600" y="929" type="qcurve" smooth="yes"/>
      <point x="470" y="929"/>
      <point x="269" y="669"/>
      <point x="269" y="464" type="qcurve"/>
      <point x="200" y="464" type="line"/>
      <point x="200" y="670"/>
      <point x="400" y="936"/>
      <point x="600" y="936" type="qcurve" smooth="yes"/>
      <point x="799" y="936"/>
      <point x="1084" y="670"/>
      <point x="1084" y="454" type="qcurve" smooth="yes"/>
      <point x="1084" y="238"/>
      <point x="810" y="-30"/>
      <point x="600" y="-30" type="qcurve" smooth="yes"/>
      <point x="390" y="-30"/>
      <point x="88" y="274"/>
    </contour>
  </outline>
</glyph>
<glyph name="eight" format="2">
  <advance width="1156"/>
  <unicode hex="0038"/>
  <outline>
    <contour>
      <point x="104" y="386" type="qcurve" smooth="yes"/>
      <point x="104" y="516"/>
      <point x="247" y="701"/>
      <point x="359" y="746" type="qcurve"/>
      <point x="359" y="750" type="line"/>
      <point x="273" y="793"/>
      <point x="150" y="967"/>
      <point x="150" y="1087" type="qcurve" smooth="yes"/>
      <point x="150" y="1267"/>
      <point x="399" y="1486"/>
      <point x="579" y="1486" type="qcurve" smooth="yes"/>
      <point x="759" y="1486"/>
      <point x="1006" y="1269"/>
      <point x="1006" y="1087" type="qcurve" smooth="yes"/>
      <point x="1006" y="967"/>
      <point x="884" y="793"/>
      <point x="798" y="750" type="qcurve"/>
      <point x="798" y="746" type="line"/>
      <point x="910" y="701"/>
      <point x="1052" y="516"/>
      <point x="1052" y="386" type="qcurve" smooth="yes"/>
      <point x="1052" y="188"/>
      <point x="779" y="-30"/>
      <point x="579" y="-30" type="qcurve" smooth="yes"/>
      <point x="379" y="-30"/>
      <point x="104" y="188"/>
    </contour>
    <contour>
      <point x="292" y="362" type="qcurve" smooth="yes"/>
      <point x="292" y="189"/>
      <point x="449" y="-23"/>
      <point x="579" y="-23" type="qcurve" smooth="yes"/>
      <point x="709" y="-23"/>
      <point x="864" y="189"/>
      <point x="864" y="362" type="qcurve" smooth="yes"/>
      <point x="864" y="535"/>
      <point x="709" y="750"/>
      <point x="579" y="750" type="qcurve" smooth="yes"/>
      <point x="449" y="750"/>
      <point x="292" y="535"/>
    </contour>
    <contour>
      <point x="334" y="1120" type="qcurve" smooth="yes"/>
      <point x="334" y="962"/>
      <point x="469" y="757"/>
      <point x="579" y="757" type="qcurve" smooth="yes"/>
      <point x="689" y="757"/>
      <point x="822" y="962"/>
      <point x="822" y="1120" type="qcurve" smooth="yes"/>
      <point x="822" y="1277"/>
      <point x="689" y="1479"/>
      <point x="579" y="1479" type="qcurve" smooth="yes"/>
      <point x="469" y="1479"/>
      <point x="334" y="1277"/>
    </contour>
  </outline>
</glyph>
<glyph name="nine" format="2">
  <advance width="1156"/>
  <unicode hex="0039"/>
  <outline>
    <contour>
      <point x="72" y="1002" type="qcurve" smooth="yes"/>
      <point x="72" y="1218"/>
      <point x="346" y="1486"/>
      <point x="556" y="1486" type="qcurve" smooth="yes"/>
      <point x="766" y="1486"/>
      <point x="1068" y="1182"/>
      <point x="1068" y="842" type="qcurve" smooth="yes"/>
      <point x="1068" y="812" type="line" smooth="yes"/>
      <point x="1068" y="459"/>
      <point x="657" y="0"/>
      <point x="277" y="0" type="qcurve" smooth="yes"/>
      <point x="256" y="0" type="line"/>
      <point x="256" y="7" type="line"/>
      <point x="276" y="7" type="line" smooth="yes"/>
      <point x="603" y="7"/>
      <point x="880" y="446"/>
      <point x="880" y="802" type="qcurve" smooth="yes"/>
      <point x="880" y="855" type="line" smooth="yes"/>
      <point x="880" y="1195"/>
      <point x="696" y="1479"/>
      <point x="556" y="1479" type="qcurve" smooth="yes"/>
      <point x="416" y="1479"/>
      <point x="262" y="1229"/>
      <point x="262" y="1003" type="qcurve" smooth="yes"/>
      <point x="262" y="777"/>
      <point x="416" y="527"/>
      <point x="543" y="527" type="qcurve" smooth="yes"/>
      <point x="695" y="527"/>
      <point x="886" y="759"/>
      <point x="886" y="1002" type="qcurve"/>
      <point x="956" y="1002" type="line"/>
      <point x="956" y="786"/>
      <point x="716" y="520"/>
      <point x="544" y="520" type="qcurve" smooth="yes"/>
      <point x="317" y="520"/>
      <point x="72" y="786"/>
    </contour>
  </outline>
</glyph>
<glyph name="less" format="2">
  <advance width="1024"/>
  <unicode hex="003C"/>
  <outline>
    <contour>
      <point x="918" y="221" type="line"/>
      <point x="100" y="600" type="line"/>
      <point x="100" y="744" type="line"/>
      <point x="918" y="1123" type="line"/>
      <point x="918" y="1116" type="line"/>
      <point x="109" y="744" type="line"/>
      <point x="918" y="424" type="line"/>
    </contour>
  </outline>
</glyph>
<glyph name="at" format="2">
  <advance width="2110"/>
  <unicode hex="0040"/>
  <outline>
    <contour>
      <point x="615" y="400" type="qcurve" smooth="yes"/>
      <point x="615" y="680"/>
      <point x="910" y="1052"/>
      <point x="1132" y="1052" type="qcurve" smooth="yes"/>
      <point x="1200" y="1052"/>
      <point x="1344" y="985"/>
      <point x="1390" y="946" type="qcurve"/>
      <point x="1480" y="946" type="line"/>
      <point x="1360" y="350" type="line" smooth="yes"/>
      <point x="1328" y="190"/>
      <point x="1416" y="11"/>
      <point x="1496" y="11" type="qcurve" smooth="yes"/>
      <point x="1636" y="11"/>
      <point x="1816" y="420"/>
      <point x="1816" y="650" type="qcurve" smooth="yes"/>
      <point x="1816" y="950"/>
      <point x="1452" y="1479"/>
      <point x="1100" y="1479" type="qcurve" smooth="yes"/>
      <point x="732" y="1479"/>
      <point x="300" y="800"/>
      <point x="300" y="460" type="qcurve" smooth="yes"/>
      <point x="300" y="60"/>
      <point x="650" y="-439"/>
      <point x="1000" y="-439" type="qcurve" smooth="yes"/>
      <point x="1140" y="-439"/>
      <point x="1334" y="-385"/>
      <point x="1400" y="-349" type="qcurve"/>
      <point x="1400" y="-356" type="line"/>
      <point x="1330" y="-400"/>
      <point x="1140" y="-446"/>
      <point x="1000" y="-446" type="qcurve" smooth="yes"/>
      <point x="640" y="-446"/>
      <point x="114" y="40"/>
      <point x="114" y="460" type="qcurve" smooth="yes"/>
      <point x="114" y="880"/>
      <point x="700" y="1486"/>
      <point x="1100" y="1486" type="qcurve" smooth="yes"/>
      <point x="1500" y="1486"/>
      <point x="1996" y="1000"/>
      <point x="1996" y="650" type="qcurve" smooth="yes"/>
      <point x="1996" y="360"/>
      <point x="1720" y="0"/>
      <point x="1520" y="0" type="qcurve" smooth="yes"/>
      <point x="1404" y="0"/>
      <point x="1242" y="124"/>
      <point x="1210" y="224" type="qcurve"/>
      <point x="1160" y="117"/>
      <point x="1018" y="-2"/>
      <point x="920" y="0" type="qcurve" smooth="yes"/>
      <point x="780" y="3"/>
      <point x="615" y="220"/>
    </contour>
    <contour>
      <point x="803" y="387" type="qcurve" smooth="yes"/>
      <point x="803" y="192"/>
      <point x="848" y="8"/>
      <point x="922" y="8" type="qcurve" smooth="yes"/>
      <point x="1001" y="8"/>
      <point x="1136" y="186"/>
      <point x="1165" y="324" type="qcurve" smooth="yes"/>
      <point x="1305" y="991" type="line"/>
      <point x="1275" y="1011"/>
      <point x="1181" y="1043"/>
      <point x="1133" y="1043" type="qcurve" smooth="yes"/>
      <point x="1030" y="1043"/>
      <point x="803" y="602"/>
    </contour>
  </outline>
</glyph>
<glyph name="A" format="2">
  <advance width="1280"/>
  <unicode hex="0041"/>
  <anchor x="640" y="0" name="bottom"/>
  <anchor x="1174" y="0" name="ogonek"/>
  <anchor x="640" y="1456" name="top"/>
  <anchor x="263" y="1074" name="tonos"/>
  <outline>
    <contour>
      <point x="0" y="0" type="line"/>
      <point x="554" y="1466" type="line"/>
      <point x="726" y="1466" type="line"/>
      <point x="1280" y="0" type="line"/>
      <point x="1086" y="-6" type="line"/>
      <point x="599" y="1334" type="line" smooth="yes"/>
      <point x="587" y="1367"/>
      <point x="571" y="1412"/>
      <point x="560" y="1445" type="qcurve"/>
      <point x="551" y="1445" type="line"/>
      <point x="539" y="1412"/>
      <point x="522" y="1367"/>
      <point x="509" y="1334" type="qcurve" smooth="yes"/>
      <point x="4" y="0" type="line"/>
    </contour>
    <contour>
      <point x="177" y="463" type="line"/>
      <point x="179" y="467" type="line"/>
      <point x="1007" y="467" type="line"/>
      <point x="1008" y="463" type="line"/>
    </contour>
  </outline>
</glyph>
<glyph name="B" format="2">
  <advance width="1260"/>
  <unicode hex="0042"/>
  <anchor x="630" y="0" name="bottom"/>
  <anchor x="630" y="1456" name="top"/>
  <outline>
    <contour>
      <point x="170" y="0" type="line"/>
      <point x="170" y="1456" type="line"/>
      <point x="650" y="1456" type="line" smooth="yes"/>
      <point x="870" y="1456"/>
      <point x="1122" y="1270"/>
      <point x="1122" y="1070" type="qcurve" smooth="yes"/>
      <point x="1122" y="950"/>
      <point x="1000" y="795"/>
      <point x="910" y="763" type="qcurve"/>
      <point x="910" y="759" type="line"/>
      <point x="1020" y="727"/>
      <point x="1160" y="560"/>
      <point x="1160" y="420" type="qcurve" smooth="yes"/>
      <point x="1160" y="220"/>
      <point x="897" y="0"/>
      <point x="680" y="0" type="qcurve" smooth="yes"/>
    </contour>
    <contour>
      <point x="358" y="7" type="line"/>
      <point x="680" y="7" type="line" smooth="yes"/>
      <point x="847" y="7"/>
      <point x="970" y="216"/>
      <point x="970" y="420" type="qcurve" smooth="yes"/>
      <point x="970" y="540"/>
      <point x="830" y="756"/>
      <point x="680" y="756" type="qcurve" smooth="yes"/>
      <point x="278" y="756" type="line"/>
      <point x="278" y="763" type="line"/>
      <point x="650" y="763" type="line" smooth="yes"/>
      <point x="800" y="763"/>
      <point x="932" y="960"/>
      <point x="932" y="1070" type="qcurve" smooth="yes"/>
      <point x="932" y="1267"/>
      <point x="782" y="1449"/>
      <point x="650" y="1449" type="qcurve" smooth="yes"/>
      <point x="358" y="1449" type="line"/>
    </contour>
  </outline>
</glyph>
<glyph name="C" format="2">
  <advance width="1359"/>
  <unicode hex="0043"/>
  <anchor x="710" y="0" name="bottom"/>
  <anchor x="720" y="1456" name="top"/>
  <outline>
    <contour>
      <point x="115" y="682" type="qcurve" smooth="yes"/>
      <point x="115" y="774" type="line" smooth="yes"/>
      <point x="115" y="1110"/>
      <point x="460" y="1486"/>
      <point x="720" y="1486" type="qcurve" smooth="yes"/>
      <point x="980" y="1486"/>
      <point x="1275" y="1201"/>
      <point x="1275" y="1000" type="qcurve" smooth="yes"/>
      <point x="1275" y="990" type="line"/>
      <point x="1083" y="990" type="line"/>
      <point x="1083" y="1000" type="line" smooth="yes"/>
      <point x="1083" y="1232"/>
      <point x="895" y="1482"/>
      <point x="720" y="1482" type="qcurve" smooth="yes"/>
      <point x="522" y="1482"/>
      <point x="309" y="1115"/>
      <point x="309" y="774" type="qcurve" smooth="yes"/>
      <point x="309" y="682" type="line" smooth="yes"/>
      <point x="309" y="341"/>
      <point x="522" y="-26"/>
      <point x="720" y="-26" type="qcurve" smooth="yes"/>
      <point x="870" y="-26"/>
      <point x="1058" y="224"/>
      <point x="1082" y="456" type="qcurve" smooth="yes"/>
      <point x="1083" y="466" type="line"/>
      <point x="1275" y="466" type="line"/>
      <point x="1274" y="456" type="line" smooth="yes"/>
      <point x="1254" y="256"/>
      <point x="980" y="-30"/>
      <point x="720" y="-30" type="qcurve" smooth="yes"/>
      <point x="460" y="-30"/>
      <point x="115" y="346"/>
    </contour>
  </outline>
</glyph>
<glyph name="E" format="2">
  <advance width="1162"/>
  <unicode hex="0045"/>
  <anchor x="630" y="0" name="bottom"/>
  <anchor x="1094" y="0" name="ogonek"/>
  <anchor x="645" y="1456" name="top"/>
  <anchor x="-75" y="1074" name="tonos"/>
  <outline>
    <contour>
      <point x="170" y="0" type="line"/>
      <point x="170" y="1456" type="line"/>
      <point x="1084" y="1456" type="line"/>
      <point x="1084" y="1449" type="line"/>
      <point x="362" y="1449" type="line"/>
      <point x="362" y="7" type="line"/>
      <point x="1094" y="7" type="line"/>
      <point x="1094" y="0" type="line"/>
    </contour>
    <contour>
      <point x="272" y="750" type="line"/>
      <point x="272" y="757" type="line"/>
      <point x="992" y="757" type="line"/>
      <point x="992" y="750" type="line"/>
    </contour>
  </outline>
</glyph>
<glyph name="F" format="2">
	<unicode hex="0046"/>
	<advance width="1130"/>
	<outline>
		<contour>
			<point x="170" y="0" type="line"/>
			<point x="170" y="1456" type="line"/>
			<point x="1072" y="1456" type="line"/>
			<point x="1072" y="1449" type="line"/>
			<point x="362" y="1449" type="line"/>
			<point x="362" y="0" type="line"/>
		</contour>
		<contour>
			<point x="266" y="751" type="line"/>
			<point x="266" y="758" type="line"/>
			<point x="973" y="758" type="line"/>
			<point x="973" y="751" type="line"/>
		</contour>
	</outline>
	<anchor name="bottom" x="565" y="0"/>
	<anchor name="top" x="630" y="1457"/>
</glyph>
<glyph name="G" format="2">
  <advance width="1407"/>
  <unicode hex="0047"/>
  <anchor x="731" y="0" name="bottom"/>
  <anchor x="731" y="1456" name="top"/>
  <outline>
    <contour>
      <point x="115" y="682" type="qcurve" smooth="yes"/>
      <point x="115" y="774" type="line" smooth="yes"/>
      <point x="115" y="1110"/>
      <point x="460" y="1486"/>
      <point x="733" y="1486" type="qcurve" smooth="yes"/>
      <point x="980" y="1486"/>
      <point x="1261" y="1221"/>
      <point x="1277" y="1041" type="qcurve" smooth="yes"/>
      <point x="1278" y="1030" type="line"/>
      <point x="1086" y="1030" type="line"/>
      <point x="1086" y="1040" type="line" smooth="yes"/>
      <point x="1086" y="1253"/>
      <point x="902" y="1482"/>
      <point x="731" y="1482" type="qcurve" smooth="yes"/>
      <point x="528" y="1482"/>
      <point x="309" y="1115"/>
      <point x="309" y="774" type="qcurve" smooth="yes"/>
      <point x="309" y="682" type="line" smooth="yes"/>
      <point x="309" y="341"/>
      <point x="538" y="-26"/>
      <point x="750" y="-26" type="qcurve" smooth="yes"/>
      <point x="834" y="-26"/>
      <point x="1011" y="107"/>
      <point x="1092" y="230" type="qcurve"/>
      <point x="1092" y="724" type="line"/>
      <point x="730" y="724" type="line"/>
      <point x="730" y="728" type="line"/>
      <point x="1278" y="728" type="line"/>
      <point x="1278" y="160" type="line"/>
      <point x="1210" y="90"/>
      <point x="940" y="-30"/>
      <point x="750" y="-30" type="qcurve" smooth="yes"/>
      <point x="460" y="-30"/>
      <point x="115" y="346"/>
    </contour>
  </outline>
</glyph>
<glyph name="K" format="2">
  <advance width="1266"/>
  <unicode hex="004B"/>
  <anchor x="633" y="0" name="bottom"/>
  <anchor x="633" y="1456" name="top"/>
  <outline>
    <contour>
      <point x="170" y="0" type="line"/>
      <point x="170" y="1456" type="line"/>
      <point x="362" y="1456" type="line"/>
      <point x="362" y="0" type="line"/>
    </contour>
    <contour>
      <point x="1010" y="0" type="line"/>
      <point x="446" y="756" type="line"/>
      <point x="570" y="890" type="line"/>
      <point x="1246" y="0" type="line"/>
    </contour>
    <contour>
      <point x="265" y="552" type="line"/>
      <point x="265" y="562" type="line"/>
      <point x="1084" y="1456" type="line"/>
      <point x="1093" y="1456" type="line"/>
    </contour>
  </outline>
</glyph>
<glyph name="M" format="2">
  <advance width="1671"/>
  <unicode hex="004D"/>
  <anchor x="827" y="0" name="bottom"/>
  <anchor x="827" y="1456" name="top"/>
  <outline>
    <contour>
      <point x="170" y="0" type="line"/>
      <point x="170" y="1456" type="line"/>
      <point x="350" y="1456" type="line"/>
      <point x="782" y="361" type="line" smooth="yes"/>
      <point x="794" y="331"/>
      <point x="815" y="266"/>
      <point x="823" y="236" type="qcurve"/>
      <point x="831" y="236" type="line"/>
      <point x="843" y="266"/>
      <point x="868" y="331"/>
      <point x="880" y="361" type="qcurve" smooth="yes"/>
      <point x="1311" y="1456" type="line"/>
      <point x="1501" y="1456" type="line"/>
      <point x="1501" y="0" type="line"/>
      <point x="1315" y="0" type="line"/>
      <point x="1315" y="1317" type="line" smooth="yes"/>
      <point x="1315" y="1347"/>
      <point x="1317" y="1422"/>
      <point x="1321" y="1452" type="qcurve"/>
      <point x="1313" y="1452" type="line"/>
      <point x="1301" y="1422"/>
      <point x="1273" y="1347"/>
      <point x="1261" y="1317" type="qcurve" smooth="yes"/>
      <point x="743" y="0" type="line"/>
      <point x="742" y="0" type="line"/>
      <point x="224" y="1317" type="line" smooth="yes"/>
      <point x="212" y="1347"/>
      <point x="188" y="1422"/>
      <point x="182" y="1452" type="qcurve"/>
      <point x="174" y="1452" type="line"/>
      <point x="174" y="1422"/>
      <point x="174" y="1347"/>
      <point x="174" y="1317" type="qcurve" smooth="yes"/>
      <point x="174" y="0" type="line"/>
    </contour>
  </outline>
</glyph>
<glyph name="N" format="2">
  <advance width="1460"/>
  <unicode hex="004E"/>
  <anchor x="730" y="0" name="bottom"/>
  <anchor x="730" y="1456" name="top"/>
  <anchor x="1197" y="0" name="engtail"/>
  <outline>
    <contour>
      <point x="170" y="0" type="line"/>
      <point x="170" y="1456" type="line"/>
      <point x="370" y="1456" type="line"/>
      <point x="1211" y="119" type="line" smooth="yes"/>
      <point x="1230" y="89"/>
      <point x="1266" y="29"/>
      <point x="1278" y="4" type="qcurve"/>
      <point x="1286" y="4" type="line"/>
      <point x="1286" y="34"/>
      <point x="1286" y="109"/>
      <point x="1286" y="139" type="qcurve" smooth="yes"/>
      <point x="1286" y="1456" type="line"/>
      <point x="1290" y="1456" type="line"/>
      <point x="1290" y="0" type="line"/>
      <point x="1090" y="0" type="line"/>
      <point x="249" y="1337" type="line" smooth="yes"/>
      <point x="230" y="1367"/>
      <point x="195" y="1427"/>
      <point x="181" y="1452" type="qcurve"/>
      <point x="174" y="1452" type="line"/>
      <point x="175" y="1422"/>
      <point x="175" y="1347"/>
      <point x="175" y="1317" type="qcurve" smooth="yes"/>
      <point x="175" y="0" type="line"/>
    </contour>
  </outline>
</glyph>
<glyph name="O" format="2">
	<unicode hex="004F"/>
	<advance width="1460"/>
	<outline>
		<contour>
			<point x="115" y="682" type="qcurve" smooth="yes"/>
			<point x="115" y="774" type="line" smooth="yes"/>
			<point x="115" y="1110"/>
			<point x="460" y="1486"/>
			<point x="730" y="1486" type="qcurve" smooth="yes"/>
			<point x="1000" y="1486"/>
			<point x="1345" y="1110"/>
			<point x="1345" y="774" type="qcurve" smooth="yes"/>
			<point x="1345" y="682" type="line" smooth="yes"/>
			<point x="1345" y="346"/>
			<point x="1000" y="-30"/>
			<point x="730" y="-30" type="qcurve" smooth="yes"/>
			<point x="460" y="-30"/>
			<point x="115" y="346"/>
		</contour>
		<contour>
			<point x="309" y="682" type="line" smooth="yes"/>
			<point x="309" y="353"/>
			<point x="537" y="-23"/>
			<point x="730" y="-23" type="qcurve" smooth="yes"/>
			<point x="923" y="-23"/>
			<point x="1151" y="353"/>
			<point x="1151" y="682" type="qcurve" smooth="yes"/>
			<point x="1151" y="774" type="line" smooth="yes"/>
			<point x="1151" y="1104"/>
			<point x="923" y="1479"/>
			<point x="730" y="1479" type="qcurve" smooth="yes"/>
			<point x="540" y="1479"/>
			<point x="309" y="1107"/>
			<point x="309" y="774" type="qcurve" smooth="yes"/>
		</contour>
	</outline>
	<anchor name="bottom" x="730" y="0"/>
	<anchor name="center" x="730" y="728"/>
	<anchor name="ogonek" x="928" y="0"/>
	<anchor name="top" x="730" y="1456"/>
	<anchor name="topright" x="923" y="1456"/>
	<anchor name="tonos" x="25" y="1074"/>
	<anchor name="yu_dash" x="309" y="750"/>
</glyph>
<glyph name="P" format="2">
  <advance width="1200"/>
  <unicode hex="0050"/>
  <anchor x="600" y="0" name="bottom"/>
  <anchor x="600" y="1456" name="top"/>
  <outline>
    <contour>
      <point x="170" y="0" type="line"/>
      <point x="170" y="1456" type="line"/>
      <point x="652" y="1456" type="line" smooth="yes"/>
      <point x="892" y="1456"/>
      <point x="1150" y="1215"/>
      <point x="1150" y="1015" type="qcurve" smooth="yes"/>
      <point x="1150" y="815"/>
      <point x="892" y="570"/>
      <point x="652" y="570" type="qcurve" smooth="yes"/>
      <point x="272" y="570" type="line"/>
      <point x="272" y="574" type="line"/>
      <point x="652" y="574" type="line" smooth="yes"/>
      <point x="799" y="574"/>
      <point x="958" y="803"/>
      <point x="958" y="1015" type="qcurve" smooth="yes"/>
      <point x="958" y="1225"/>
      <point x="799" y="1451"/>
      <point x="652" y="1452" type="qcurve" smooth="yes"/>
      <point x="362" y="1452" type="line"/>
      <point x="362" y="0" type="line"/>
    </contour>
  </outline>
</glyph>
<glyph name="Q" format="2">
  <advance width="1460"/>
  <unicode hex="0051"/>
  <anchor x="730" y="0" name="bottom"/>
  <anchor x="730" y="1456" name="top"/>
  <outline>
    <contour>
      <point x="115" y="682" type="qcurve" smooth="yes"/>
      <point x="115" y="774" type="line" smooth="yes"/>
      <point x="115" y="1110"/>
      <point x="460" y="1486"/>
      <point x="730" y="1486" type="qcurve" smooth="yes"/>
      <point x="1000" y="1486"/>
      <point x="1345" y="1110"/>
      <point x="1345" y="774" type="qcurve" smooth="yes"/>
      <point x="1345" y="682" type="line" smooth="yes"/>
      <point x="1345" y="346"/>
      <point x="1000" y="-30"/>
      <point x="730" y="-30" type="qcurve" smooth="yes"/>
      <point x="460" y="-30"/>
      <point x="115" y="346"/>
    </contour>
    <contour>
      <point x="309" y="669" type="line" smooth="yes"/>
      <point x="309" y="344"/>
      <point x="540" y="-26"/>
      <point x="730" y="-26" type="qcurve" smooth="yes"/>
      <point x="920" y="-26"/>
      <point x="1151" y="344"/>
      <point x="1151" y="669" type="qcurve" smooth="yes"/>
      <point x="1151" y="786" type="line" smooth="yes"/>
      <point x="1151" y="1112"/>
      <point x="920" y="1482"/>
      <point x="730" y="1482" type="qcurve" smooth="yes"/>
      <point x="540" y="1482"/>
      <point x="309" y="1112"/>
      <point x="309" y="786" type="qcurve" smooth="yes"/>
    </contour>
    <contour>
      <point x="1200" y="-250" type="line"/>
      <point x="894" y="-5" type="line"/>
      <point x="1019" y="120" type="line"/>
      <point x="1330" y="-120" type="line"/>
    </contour>
  </outline>
</glyph>
<glyph name="R" format="2">
  <advance width="1247"/>
  <unicode hex="0052"/>
  <anchor x="602" y="0" name="bottom"/>
  <anchor x="602" y="1456" name="top"/>
  <outline>
    <contour>
      <point x="167" y="0" type="line"/>
      <point x="167" y="1456" type="line"/>
      <point x="641" y="1456" type="line" smooth="yes"/>
      <point x="875" y="1456"/>
      <point x="1129" y="1222"/>
      <point x="1129" y="1028" type="qcurve" smooth="yes"/>
      <point x="1129" y="834"/>
      <point x="875" y="593"/>
      <point x="641" y="594" type="qcurve" smooth="yes"/>
      <point x="259" y="594" type="line"/>
      <point x="259" y="601" type="line"/>
      <point x="641" y="601" type="line" smooth="yes"/>
      <point x="784" y="601"/>
      <point x="937" y="821"/>
      <point x="937" y="1028" type="qcurve" smooth="yes"/>
      <point x="937" y="1231"/>
      <point x="784" y="1448"/>
      <point x="641" y="1449" type="qcurve" smooth="yes"/>
      <point x="359" y="1449" type="line"/>
      <point x="359" y="0" type="line"/>
    </contour>
    <contour>
      <point x="993" y="0" type="line"/>
      <point x="677" y="599" type="line"/>
      <point x="865" y="631" type="line"/>
      <point x="1207" y="0" type="line"/>
    </contour>
  </outline>
</glyph>
<glyph name="S" format="2">
  <advance width="1220"/>
  <unicode hex="0053"/>
  <anchor x="610" y="0" name="bottom"/>
  <anchor x="610" y="1456" name="top"/>
  <outline>
    <contour>
      <point x="90" y="398" type="qcurve" smooth="yes"/>
      <point x="90" y="410" type="line"/>
      <point x="282" y="410" type="line"/>
      <point x="282" y="398" type="line" smooth="yes"/>
      <point x="282" y="194"/>
      <point x="457" y="-23"/>
      <point x="620" y="-23" type="qcurve" smooth="yes"/>
      <point x="779" y="-23"/>
      <point x="950" y="184"/>
      <point x="950" y="380" type="qcurve" smooth="yes"/>
      <point x="950" y="480"/>
      <point x="785" y="690"/>
      <point x="556" y="756" type="qcurve" smooth="yes"/>
      <point x="306" y="828"/>
      <point x="120" y="971"/>
      <point x="120" y="1090" type="qcurve" smooth="yes"/>
      <point x="120" y="1260"/>
      <point x="380" y="1486"/>
      <point x="610" y="1486" type="qcurve" smooth="yes"/>
      <point x="840" y="1486"/>
      <point x="1112" y="1248"/>
      <point x="1112" y="1064" type="qcurve" smooth="yes"/>
      <point x="1112" y="1052" type="line"/>
      <point x="920" y="1052" type="line"/>
      <point x="920" y="1064" type="line" smooth="yes"/>
      <point x="920" y="1265"/>
      <point x="759" y="1479"/>
      <point x="610" y="1479" type="qcurve" smooth="yes"/>
      <point x="465" y="1479"/>
      <point x="310" y="1281"/>
      <point x="310" y="1095" type="qcurve" smooth="yes"/>
      <point x="310" y="1000"/>
      <point x="460" y="782"/>
      <point x="694" y="716" type="qcurve" smooth="yes"/>
      <point x="949" y="644"/>
      <point x="1140" y="500"/>
      <point x="1140" y="380" type="qcurve" smooth="yes"/>
      <point x="1140" y="200"/>
      <point x="860" y="-30"/>
      <point x="620" y="-30" type="qcurve" smooth="yes"/>
      <point x="380" y="-30"/>
      <point x="90" y="200"/>
    </contour>
  </outline>
</glyph>
<glyph name="U" format="2">
  <advance width="1274"/>
  <unicode hex="0055"/>
  <anchor x="682" y="0" name="bottom"/>
  <anchor x="879" y="0" name="ogonek"/>
  <anchor x="682" y="1456" name="top"/>
  <anchor x="1117" y="1456" name="topright"/>
  <outline>
    <contour>
      <point x="155" y="470" type="qcurve" smooth="yes"/>
      <point x="155" y="1456" type="line"/>
      <point x="347" y="1456" type="line"/>
      <point x="347" y="470" type="line" smooth="yes"/>
      <point x="347" y="300"/>
      <point x="532" y="134"/>
      <point x="682" y="134" type="qcurve" smooth="yes"/>
      <point x="891" y="134"/>
      <point x="1115" y="308"/>
      <point x="1115" y="470" type="qcurve" smooth="yes"/>
      <point x="1115" y="1456" type="line"/>
      <point x="1119" y="1456" type="line"/>
      <point x="1119" y="470" type="line" smooth="yes"/>
      <point x="1119" y="229"/>
      <point x="893" y="-30"/>
      <point x="682" y="-30" type="qcurve" smooth="yes"/>
      <point x="462" y="-30"/>
      <point x="155" y="220"/>
    </contour>
  </outline>
</glyph>
<glyph name="V" format="2">
  <advance width="1180"/>
  <unicode hex="0056"/>
  <anchor x="630" y="0" name="bottom"/>
  <anchor x="630" y="1456" name="top"/>
  <anchor x="630" y="0" name="bottom"/>
  <anchor x="630" y="1456" name="top"/>
  <outline>
    <contour>
      <point x="0" y="1456" type="line"/>
      <point x="204" y="1456" type="line"/>
      <point x="648" y="225" type="line" smooth="yes"/>
      <point x="652" y="213"/>
      <point x="672" y="147"/>
      <point x="675" y="135" type="qcurve"/>
      <point x="686" y="135" type="line"/>
      <point x="688" y="147"/>
      <point x="711" y="209"/>
      <point x="715" y="221" type="qcurve" smooth="yes"/>
      <point x="1176" y="1456" type="line"/>
      <point x="1180" y="1456" type="line"/>
      <point x="636" y="-10" type="line"/>
      <point x="544" y="-10" type="line"/>
    </contour>
  </outline>
</glyph>
<glyph name="W" format="2">
  <advance width="1729"/>
  <unicode hex="0057"/>
  <anchor x="906" y="0" name="bottom"/>
  <anchor x="906" y="1456" name="top"/>
  <outline>
    <contour>
      <point x="408" y="-10" type="line"/>
      <point x="50" y="1456" type="line"/>
      <point x="242" y="1456" type="line"/>
      <point x="523" y="236" type="line" smooth="yes"/>
      <point x="531" y="202"/>
      <point x="538" y="161"/>
      <point x="542" y="128" type="qcurve"/>
      <point x="552" y="128" type="line"/>
      <point x="560" y="161"/>
      <point x="570" y="202"/>
      <point x="578" y="236" type="qcurve" smooth="yes"/>
      <point x="878" y="1456" type="line"/>
      <point x="1004" y="1456" type="line"/>
      <point x="1322" y="237" type="line" smooth="yes"/>
      <point x="1331" y="203"/>
      <point x="1338" y="162"/>
      <point x="1342" y="129" type="qcurve"/>
      <point x="1351" y="129" type="line"/>
      <point x="1359" y="162"/>
      <point x="1369" y="203"/>
      <point x="1377" y="237" type="qcurve" smooth="yes"/>
      <point x="1675" y="1456" type="line"/>
      <point x="1679" y="1456" type="line"/>
      <point x="1321" y="-10" type="line"/>
      <point x="1218" y="-10" type="line"/>
      <point x="894" y="1236" type="line" smooth="yes"/>
      <point x="885" y="1270"/>
      <point x="872" y="1331"/>
      <point x="867" y="1364" type="qcurve"/>
      <point x="859" y="1364" type="line"/>
      <point x="851" y="1331"/>
      <point x="836" y="1270"/>
      <point x="828" y="1236" type="qcurve" smooth="yes"/>
      <point x="521" y="-10" type="line"/>
    </contour>
  </outline>
</glyph>
<glyph name="X" format="2">
  <advance width="1222"/>
  <unicode hex="0058"/>
  <anchor x="611" y="0" name="bottom"/>
  <anchor x="611" y="1456" name="top"/>
  <anchor x="997" y="0" name="cy_descender"/>
  <outline>
    <contour>
      <point x="125" y="0" type="line"/>
      <point x="649" y="806" type="line"/>
      <point x="661" y="806" type="line"/>
      <point x="1073" y="1456" type="line"/>
      <point x="1077" y="1456" type="line"/>
      <point x="578" y="670" type="line"/>
      <point x="564" y="670" type="line"/>
      <point x="129" y="0" type="line"/>
    </contour>
    <contour>
      <point x="50" y="1456" type="line"/>
      <point x="266" y="1456" type="line"/>
      <point x="663" y="806" type="line"/>
      <point x="664" y="806" type="line"/>
      <point x="1197" y="0" type="line"/>
      <point x="981" y="0" type="line"/>
      <point x="562" y="670" type="line"/>
      <point x="561" y="670" type="line"/>
    </contour>
  </outline>
</glyph>
<glyph name="Y" format="2">
  <advance width="1228"/>
  <unicode hex="0059"/>
  <anchor x="614" y="0" name="bottom"/>
  <anchor x="614" y="1456" name="top"/>
  <anchor x="-175" y="1074" name="tonos"/>
  <outline>
    <contour>
      <point x="518" y="0" type="line"/>
      <point x="518" y="544" type="line"/>
      <point x="15" y="1456" type="line"/>
      <point x="231" y="1456" type="line"/>
      <point x="646" y="651" type="line" smooth="yes"/>
      <point x="662" y="621"/>
      <point x="689" y="571"/>
      <point x="700" y="544" type="qcurve"/>
      <point x="706" y="544" type="line"/>
      <point x="721" y="571"/>
      <point x="748" y="621"/>
      <point x="765" y="651" type="qcurve" smooth="yes"/>
      <point x="1209" y="1456" type="line"/>
      <point x="1213" y="1456" type="line"/>
      <point x="710" y="544" type="line"/>
      <point x="710" y="0" type="line"/>
    </contour>
  </outline>
</glyph>
<glyph name="Z" format="2">
  <advance width="1190"/>
  <unicode hex="005A"/>
  <anchor x="690" y="0" name="bottom"/>
  <anchor x="690" y="1456" name="top"/>
  <outline>
    <contour>
      <point x="65" y="0" type="line"/>
      <point x="65" y="7" type="line"/>
      <point x="887" y="1449" type="line"/>
      <point x="77" y="1449" type="line"/>
      <point x="77" y="1456" type="line"/>
      <point x="1092" y="1456" type="line"/>
      <point x="1092" y="1447" type="line"/>
      <point x="272" y="7" type="line"/>
      <point x="1124" y="7" type="line"/>
      <point x="1124" y="0" type="line"/>
    </contour>
  </outline>
</glyph>
<glyph name="a" format="2">
  <advance width="1106"/>
  <unicode hex="0061"/>
  <anchor x="553" y="0" name="bottom"/>
  <anchor x="969" y="0" name="ogonek"/>
  <anchor x="553" y="1052" name="top"/>
  <outline>
    <contour>
      <point x="490" y="-20" type="qcurve" smooth="yes"/>
      <point x="300" y="-20"/>
      <point x="90" y="150"/>
      <point x="90" y="310" type="qcurve" smooth="yes"/>
      <point x="90" y="470"/>
      <point x="344" y="648"/>
      <point x="540" y="648" type="qcurve" smooth="yes"/>
      <point x="868" y="648" type="line"/>
      <point x="868" y="641" type="line"/>
      <point x="540" y="641" type="line" smooth="yes"/>
      <point x="384" y="641"/>
      <point x="276" y="460"/>
      <point x="276" y="320" type="qcurve" smooth="yes"/>
      <point x="276" y="163"/>
      <point x="380" y="-13"/>
      <point x="490" y="-13" type="qcurve" smooth="yes"/>
      <point x="591" y="-13"/>
      <point x="778" y="118"/>
      <point x="778" y="207" type="qcurve"/>
      <point x="778" y="720" type="line" smooth="yes"/>
      <point x="778" y="925"/>
      <point x="680" y="1075"/>
      <point x="560" y="1075" type="qcurve" smooth="yes"/>
      <point x="440" y="1075"/>
      <point x="337" y="945"/>
      <point x="337" y="770" type="qcurve" smooth="yes"/>
      <point x="337" y="765" type="line"/>
      <point x="152" y="765" type="line"/>
      <point x="152" y="770" type="line" smooth="yes"/>
      <point x="152" y="895"/>
      <point x="375" y="1082"/>
      <point x="565" y="1082" type="qcurve" smooth="yes"/>
      <point x="755" y="1082"/>
      <point x="964" y="900"/>
      <point x="964" y="720" type="qcurve" smooth="yes"/>
      <point x="964" y="240" type="line" smooth="yes"/>
      <point x="964" y="175"/>
      <point x="984" y="60"/>
      <point x="1002" y="16" type="qcurve"/>
      <point x="1002" y="0" type="line"/>
      <point x="822" y="0" type="line"/>
      <point x="808" y="25"/>
      <point x="785" y="105"/>
      <point x="780" y="163" type="qcurve"/>
      <point x="754" y="85"/>
      <point x="580" y="-20"/>
    </contour>
  </outline>
</glyph>
<glyph name="b" format="2">
  <advance width="1170"/>
  <unicode hex="0062"/>
  <anchor x="585" y="0" name="bottom"/>
  <anchor x="585" y="1536" name="top"/>
  <outline>
    <contour>
      <point x="148" y="0" type="line"/>
      <point x="148" y="1536" type="line"/>
      <point x="334" y="1536" type="line"/>
      <point x="334" y="142" type="line"/>
      <point x="324" y="142" type="line"/>
      <point x="316" y="0" type="line"/>
    </contour>
    <contour>
      <point x="624" y="-12" type="qcurve" smooth="yes"/>
      <point x="767" y="-12"/>
      <point x="895" y="263"/>
      <point x="895" y="506" type="qcurve" smooth="yes"/>
      <point x="895" y="550" type="line" smooth="yes"/>
      <point x="895" y="754"/>
      <point x="766" y="1065"/>
      <point x="615" y="1065" type="qcurve"/>
      <point x="456" y="1065"/>
      <point x="291" y="739"/>
      <point x="291" y="559" type="qcurve" smooth="yes"/>
      <point x="291" y="521" type="line" smooth="yes"/>
      <point x="291" y="301"/>
      <point x="463" y="-12"/>
    </contour>
    <contour>
      <point x="626" y="-20" type="qcurve" smooth="yes"/>
      <point x="471" y="-20"/>
      <point x="224" y="285"/>
      <point x="224" y="520" type="qcurve" smooth="yes"/>
      <point x="224" y="554" type="line" smooth="yes"/>
      <point x="224" y="774"/>
      <point x="436" y="1072"/>
      <point x="616" y="1072" type="qcurve"/>
      <point x="845" y="1072"/>
      <point x="1085" y="772"/>
      <point x="1085" y="542" type="qcurve" smooth="yes"/>
      <point x="1085" y="510" type="line" smooth="yes"/>
      <point x="1085" y="280"/>
      <point x="849" y="-20"/>
    </contour>
  </outline>
</glyph>
<glyph name="e" format="2">
  <advance width="1088"/>
  <unicode hex="0065"/>
  <anchor x="590" y="0" name="bottom"/>
  <anchor x="771" y="0" name="ogonek"/>
  <anchor x="560" y="1052" name="top"/>
  <outline>
    <contour>
      <point x="85" y="510" type="qcurve" smooth="yes"/>
      <point x="85" y="542" type="line" smooth="yes"/>
      <point x="85" y="780"/>
      <point x="346" y="1082"/>
      <point x="561" y="1082" type="qcurve" smooth="yes"/>
      <point x="776" y="1082"/>
      <point x="1008" y="800"/>
      <point x="1008" y="560" type="qcurve" smooth="yes"/>
      <point x="1008" y="555" type="line"/>
      <point x="199" y="555" type="line"/>
      <point x="199" y="559" type="line"/>
      <point x="821" y="559" type="line"/>
      <point x="821" y="656" type="line" smooth="yes"/>
      <point x="821" y="859"/>
      <point x="690" y="1078"/>
      <point x="569" y="1078" type="qcurve" smooth="yes"/>
      <point x="427" y="1078"/>
      <point x="275" y="800"/>
      <point x="275" y="542" type="qcurve" smooth="yes"/>
      <point x="275" y="510" type="line" smooth="yes"/>
      <point x="275" y="252"/>
      <point x="439" y="-26"/>
      <point x="591" y="-26" type="qcurve" smooth="yes"/>
      <point x="738" y="-26"/>
      <point x="946" y="102"/>
      <point x="997" y="177" type="qcurve"/>
      <point x="1000" y="175" type="line"/>
      <point x="950" y="100"/>
      <point x="741" y="-30"/>
      <point x="591" y="-30" type="qcurve" smooth="yes"/>
      <point x="346" y="-30"/>
      <point x="85" y="272"/>
    </contour>
  </outline>
</glyph>
<glyph name="f" format="2">
  <advance width="600"/>
  <unicode hex="0066"/>
  <anchor x="300" y="0" name="bottom"/>
  <anchor x="300" y="1536" name="top"/>
  <outline>
    <contour>
      <point x="196" y="0" type="line"/>
      <point x="196" y="1200" type="line" smooth="yes"/>
      <point x="196" y="1374"/>
      <point x="386" y="1556"/>
      <point x="550" y="1556" type="qcurve" smooth="yes"/>
      <point x="582" y="1556"/>
      <point x="648" y="1548"/>
      <point x="678" y="1540" type="qcurve"/>
      <point x="678" y="1538" type="line"/>
      <point x="646" y="1545"/>
      <point x="596" y="1551"/>
      <point x="570" y="1551" type="qcurve" smooth="yes"/>
      <point x="479" y="1551"/>
      <point x="382" y="1369"/>
      <point x="382" y="1200" type="qcurve" smooth="yes"/>
      <point x="382" y="1051" type="line"/>
      <point x="382" y="1049" type="line"/>
      <point x="382" y="0" type="line"/>
    </contour>
    <contour>
      <point x="25" y="1048" type="line"/>
      <point x="25" y="1052" type="line"/>
      <point x="266" y="1052" type="line"/>
      <point x="312" y="1052" type="line"/>
      <point x="610" y="1052" type="line"/>
      <point x="610" y="1048" type="line"/>
    </contour>
  </outline>
</glyph>
<glyph name="g" format="2">
  <advance width="1170"/>
  <unicode hex="0067"/>
  <anchor x="585" y="-416" name="bottom"/>
  <anchor x="585" y="1052" name="top"/>
  <outline>
    <contour>
      <point x="550" y="-436" type="qcurve" smooth="yes"/>
      <point x="420" y="-436"/>
      <point x="200" y="-350"/>
      <point x="124" y="-284" type="qcurve"/>
      <point x="207" y="-188" type="line"/>
      <point x="255" y="-308"/>
      <point x="420" y="-429"/>
      <point x="557" y="-429" type="qcurve" smooth="yes"/>
      <point x="690" y="-429"/>
      <point x="836" y="-200"/>
      <point x="836" y="20" type="qcurve" smooth="yes"/>
      <point x="836" y="915" type="line"/>
      <point x="846" y="915" type="line"/>
      <point x="854" y="1052" type="line"/>
      <point x="1022" y="1052" type="line"/>
      <point x="1022" y="20" type="line" smooth="yes"/>
      <point x="1022" y="-200"/>
      <point x="760" y="-436"/>
    </contour>
    <contour>
      <point x="536" y="-13" type="qcurve" smooth="yes"/>
      <point x="713" y="-13"/>
      <point x="892" y="283"/>
      <point x="892" y="521" type="qcurve" smooth="yes"/>
      <point x="892" y="549" type="line" smooth="yes"/>
      <point x="892" y="768"/>
      <point x="695" y="1064"/>
      <point x="557" y="1065" type="qcurve" smooth="yes"/>
      <point x="406" y="1066"/>
      <point x="275" y="795"/>
      <point x="275" y="542" type="qcurve" smooth="yes"/>
      <point x="275" y="510" type="line" smooth="yes"/>
      <point x="275" y="258"/>
      <point x="406" y="-13"/>
    </contour>
    <contour>
      <point x="532" y="-20" type="qcurve" smooth="yes"/>
      <point x="329" y="-20"/>
      <point x="85" y="280"/>
      <point x="85" y="510" type="qcurve" smooth="yes"/>
      <point x="85" y="542" type="line" smooth="yes"/>
      <point x="85" y="772"/>
      <point x="329" y="1072"/>
      <point x="532" y="1072" type="qcurve" smooth="yes"/>
      <point x="735" y="1072"/>
      <point x="959" y="770"/>
      <point x="959" y="547" type="qcurve" smooth="yes"/>
      <point x="959" y="521" type="line" smooth="yes"/>
      <point x="959" y="273"/>
      <point x="727" y="-20"/>
    </contour>
  </outline>
</glyph>
<glyph name="h" format="2">
  <advance width="1138"/>
  <unicode hex="0068"/>
  <anchor x="569" y="0" name="bottom"/>
  <anchor x="320" y="1327" name="center"/>
  <anchor x="244" y="1536" name="top"/>
  <anchor x="907" y="0" name="engtail"/>
  <outline>
    <contour>
      <point x="334" y="0" type="line"/>
      <point x="148" y="0" type="line"/>
      <point x="148" y="1536" type="line"/>
      <point x="334" y="1536" type="line"/>
    </contour>
    <contour>
      <point x="254" y="787" type="line"/>
      <point x="321" y="938"/>
      <point x="534" y="1072"/>
      <point x="641" y="1072" type="qcurve" smooth="yes"/>
      <point x="818" y="1072"/>
      <point x="1000" y="886"/>
      <point x="1000" y="679" type="qcurve" smooth="yes"/>
      <point x="1000" y="0" type="line"/>
      <point x="814" y="0" type="line"/>
      <point x="814" y="835" type="line" smooth="yes"/>
      <point x="814" y="945"/>
      <point x="713" y="1064"/>
      <point x="627" y="1064" type="qcurve" smooth="yes"/>
      <point x="535" y="1064"/>
      <point x="323" y="932"/>
      <point x="254" y="777" type="qcurve"/>
    </contour>
  </outline>
</glyph>
<glyph name="k" format="2">
  <advance width="1028"/>
  <unicode hex="006B"/>
  <anchor x="514" y="0" name="bottom"/>
  <anchor x="514" y="1536" name="top"/>
  <outline>
    <contour>
      <point x="148" y="0" type="line"/>
      <point x="148" y="1536" type="line"/>
      <point x="334" y="1536" type="line"/>
      <point x="334" y="0" type="line"/>
    </contour>
    <contour>
      <point x="826" y="0" type="line"/>
      <point x="416" y="544" type="line"/>
      <point x="533" y="670" type="line"/>
      <point x="1044" y="0" type="line"/>
    </contour>
    <contour>
      <point x="241" y="357" type="line"/>
      <point x="241" y="361" type="line"/>
      <point x="891" y="1052" type="line"/>
      <point x="895" y="1052" type="line"/>
    </contour>
  </outline>
</glyph>
<glyph name="m" format="2">
  <advance width="1764"/>
  <unicode hex="006D"/>
  <anchor x="882" y="0" name="bottom"/>
  <anchor x="882" y="1052" name="top"/>
  <outline>
    <contour>
      <point x="148" y="0" type="line"/>
      <point x="148" y="1052" type="line"/>
      <point x="316" y="1052" type="line"/>
      <point x="334" y="757" type="line"/>
      <point x="334" y="0" type="line"/>
    </contour>
    <contour>
      <point x="245" y="757" type="qcurve"/>
      <point x="245" y="764" type="line"/>
      <point x="316" y="950"/>
      <point x="523" y="1072"/>
      <point x="642" y="1072" type="qcurve" smooth="yes"/>
      <point x="791" y="1072"/>
      <point x="980" y="889"/>
      <point x="980" y="679" type="qcurve" smooth="yes"/>
      <point x="980" y="0" type="line"/>
      <point x="794" y="0" type="line"/>
      <point x="794" y="833" type="line" smooth="yes"/>
      <point x="794" y="959"/>
      <point x="691" y="1068"/>
      <point x="637" y="1068" type="qcurve" smooth="yes"/>
      <point x="523" y="1068"/>
      <point x="320" y="947"/>
    </contour>
    <contour>
      <point x="921" y="818" type="qcurve"/>
      <point x="921" y="823" type="line"/>
      <point x="958" y="929"/>
      <point x="1133" y="1072"/>
      <point x="1288" y="1072" type="qcurve" smooth="yes"/>
      <point x="1437" y="1072"/>
      <point x="1626" y="889"/>
      <point x="1626" y="679" type="qcurve" smooth="yes"/>
      <point x="1626" y="0" type="line"/>
      <point x="1440" y="0" type="line"/>
      <point x="1440" y="833" type="line" smooth="yes"/>
      <point x="1440" y="959"/>
      <point x="1337" y="1068"/>
      <point x="1283" y="1068" type="qcurve" smooth="yes"/>
      <point x="1133" y="1068"/>
      <point x="962" y="926"/>
    </contour>
  </outline>
</glyph>
<glyph name="n" format="2">
  <advance width="1138"/>
  <unicode hex="006E"/>
  <anchor x="569" y="0" name="bottom"/>
  <anchor x="569" y="1052" name="top"/>
  <anchor x="907" y="0" name="engtail"/>
  <outline>
    <contour>
      <point x="148" y="0" type="line"/>
      <point x="148" y="1052" type="line"/>
      <point x="316" y="1052" type="line"/>
      <point x="334" y="744" type="line"/>
      <point x="334" y="0" type="line"/>
    </contour>
    <contour>
      <point x="241" y="715" type="qcurve"/>
      <point x="241" y="746" type="line"/>
      <point x="292" y="914"/>
      <point x="512" y="1072"/>
      <point x="652" y="1072" type="qcurve" smooth="yes"/>
      <point x="811" y="1072"/>
      <point x="1000" y="891"/>
      <point x="1000" y="679" type="qcurve" smooth="yes"/>
      <point x="1000" y="0" type="line"/>
      <point x="814" y="0" type="line"/>
      <point x="814" y="788" type="line" smooth="yes"/>
      <point x="814" y="934"/>
      <point x="729" y="1068"/>
      <point x="639" y="1068" type="qcurve" smooth="yes"/>
      <point x="512" y="1068"/>
      <point x="294" y="900"/>
    </contour>
  </outline>
</glyph>
<glyph name="o" format="2">
  <advance width="1162"/>
  <unicode hex="006F"/>
  <anchor x="581" y="0" name="bottom"/>
  <anchor x="581" y="526" name="center"/>
  <anchor x="762" y="0" name="ogonek"/>
  <anchor x="581" y="1052" name="top"/>
  <anchor x="760" y="1052" name="topright"/>
  <anchor x="178" y="536" name="yu_dash"/>
  <outline>
    <contour>
      <point x="85" y="510" type="qcurve" smooth="yes"/>
      <point x="85" y="542" type="line" smooth="yes"/>
      <point x="85" y="780"/>
      <point x="356" y="1082"/>
      <point x="581" y="1082" type="qcurve" smooth="yes"/>
      <point x="806" y="1082"/>
      <point x="1077" y="780"/>
      <point x="1077" y="542" type="qcurve" smooth="yes"/>
      <point x="1077" y="510" type="line" smooth="yes"/>
      <point x="1077" y="272"/>
      <point x="814" y="-30"/>
      <point x="581" y="-30" type="qcurve" smooth="yes"/>
      <point x="348" y="-30"/>
      <point x="85" y="272"/>
    </contour>
    <contour>
      <point x="275" y="548" type="qcurve" smooth="yes"/>
      <point x="275" y="505" type="line" smooth="yes"/>
      <point x="275" y="272"/>
      <point x="425" y="-23"/>
      <point x="581" y="-23" type="qcurve" smooth="yes"/>
      <point x="737" y="-23"/>
      <point x="887" y="272"/>
      <point x="887" y="505" type="qcurve" smooth="yes"/>
      <point x="887" y="548" type="line" smooth="yes"/>
      <point x="887" y="767"/>
      <point x="733" y="1075"/>
      <point x="581" y="1075" type="qcurve" smooth="yes"/>
      <point x="429" y="1075"/>
      <point x="275" y="767"/>
    </contour>
  </outline>
</glyph>
<glyph name="p" format="2">
  <advance width="1170"/>
  <unicode hex="0070"/>
  <anchor x="642" y="0" name="bottom"/>
  <anchor x="642" y="1052" name="top"/>
  <anchor x="642" y="0" name="bottom"/>
  <anchor x="642" y="1052" name="top"/>
  <outline>
    <contour>
      <point x="148" y="-416" type="line"/>
      <point x="148" y="1052" type="line"/>
      <point x="316" y="1052" type="line"/>
      <point x="324" y="915" type="line"/>
      <point x="334" y="915" type="line"/>
      <point x="334" y="-416" type="line"/>
    </contour>
    <contour>
      <point x="623" y="-16" type="qcurve" smooth="yes"/>
      <point x="749" y="-16"/>
      <point x="895" y="256"/>
      <point x="895" y="504" type="qcurve" smooth="yes"/>
      <point x="895" y="548" type="line" smooth="yes"/>
      <point x="895" y="787"/>
      <point x="756" y="1068"/>
      <point x="624" y="1068" type="qcurve" smooth="yes"/>
      <point x="471" y="1068"/>
      <point x="291" y="792"/>
      <point x="291" y="558" type="qcurve" smooth="yes"/>
      <point x="291" y="519" type="line" smooth="yes"/>
      <point x="291" y="275"/>
      <point x="471" y="-16"/>
    </contour>
    <contour>
      <point x="623" y="-20" type="qcurve" smooth="yes"/>
      <point x="472" y="-20"/>
      <point x="224" y="265"/>
      <point x="224" y="520" type="qcurve" smooth="yes"/>
      <point x="224" y="554" type="line" smooth="yes"/>
      <point x="224" y="789"/>
      <point x="456" y="1072"/>
      <point x="624" y="1072" type="qcurve" smooth="yes"/>
      <point x="843" y="1072"/>
      <point x="1085" y="772"/>
      <point x="1085" y="542" type="qcurve" smooth="yes"/>
      <point x="1085" y="510" type="line" smooth="yes"/>
      <point x="1085" y="280"/>
      <point x="848" y="-20"/>
    </contour>
  </outline>
</glyph>
<glyph name="q" format="2">
  <advance width="1170"/>
  <unicode hex="0071"/>
  <anchor x="585" y="0" name="bottom"/>
  <anchor x="585" y="1052" name="top"/>
  <outline>
    <contour>
      <point x="836" y="-416" type="line"/>
      <point x="836" y="915" type="line"/>
      <point x="846" y="915" type="line"/>
      <point x="854" y="1052" type="line"/>
      <point x="1022" y="1052" type="line"/>
      <point x="1022" y="-416" type="line"/>
    </contour>
    <contour>
      <point x="529" y="-14" type="qcurve" smooth="yes"/>
      <point x="695" y="-14"/>
      <point x="895" y="283"/>
      <point x="895" y="521" type="qcurve" smooth="yes"/>
      <point x="895" y="549" type="line" smooth="yes"/>
      <point x="895" y="768"/>
      <point x="696" y="1065"/>
      <point x="527" y="1066" type="qcurve" smooth="yes"/>
      <point x="406" y="1067"/>
      <point x="275" y="795"/>
      <point x="275" y="542" type="qcurve" smooth="yes"/>
      <point x="275" y="510" type="line" smooth="yes"/>
      <point x="275" y="258"/>
      <point x="407" y="-14"/>
    </contour>
    <contour>
      <point x="533" y="-20" type="qcurve" smooth="yes"/>
      <point x="329" y="-20"/>
      <point x="85" y="280"/>
      <point x="85" y="510" type="qcurve" smooth="yes"/>
      <point x="85" y="542" type="line" smooth="yes"/>
      <point x="85" y="772"/>
      <point x="329" y="1072"/>
      <point x="533" y="1072" type="qcurve" smooth="yes"/>
      <point x="727" y="1072"/>
      <point x="962" y="760"/>
      <point x="962" y="547" type="qcurve" smooth="yes"/>
      <point x="962" y="521" type="line" smooth="yes"/>
      <point x="962" y="293"/>
      <point x="728" y="-20"/>
    </contour>
  </outline>
</glyph>
<glyph name="r" format="2">
  <advance width="700"/>
  <unicode hex="0072"/>
  <anchor x="350" y="0" name="bottom"/>
  <anchor x="417" y="1052" name="top"/>
  <outline>
    <contour>
      <point x="148" y="0" type="line"/>
      <point x="148" y="1052" type="line"/>
      <point x="316" y="1052" type="line"/>
      <point x="334" y="918" type="line"/>
      <point x="334" y="0" type="line"/>
    </contour>
    <contour>
      <point x="241" y="715" type="qcurve"/>
      <point x="241" y="726" type="line"/>
      <point x="326" y="955"/>
      <point x="496" y="1082"/>
      <point x="580" y="1082" type="qcurve" smooth="yes"/>
      <point x="612" y="1082"/>
      <point x="653" y="1075"/>
      <point x="670" y="1068" type="qcurve"/>
      <point x="670" y="1061" type="line"/>
      <point x="653" y="1068"/>
      <point x="612" y="1075"/>
      <point x="580" y="1075" type="qcurve" smooth="yes"/>
      <point x="496" y="1075"/>
      <point x="340" y="961"/>
    </contour>
  </outline>
</glyph>
<glyph name="s" format="2">
  <advance width="1010"/>
  <unicode hex="0073"/>
  <anchor x="505" y="0" name="bottom"/>
  <anchor x="505" y="1052" name="top"/>
  <outline>
    <contour>
      <point x="80" y="310" type="line"/>
      <point x="266" y="310" type="line"/>
      <point x="266" y="305" type="line" smooth="yes"/>
      <point x="266" y="146"/>
      <point x="392" y="-26"/>
      <point x="510" y="-26" type="qcurve" smooth="yes"/>
      <point x="624" y="-26"/>
      <point x="747" y="83"/>
      <point x="747" y="206" type="qcurve" smooth="yes"/>
      <point x="747" y="331"/>
      <point x="604" y="430"/>
      <point x="474" y="463" type="qcurve" smooth="yes"/>
      <point x="263" y="517"/>
      <point x="105" y="671"/>
      <point x="105" y="780" type="qcurve" smooth="yes"/>
      <point x="105" y="910"/>
      <point x="320" y="1082"/>
      <point x="500" y="1082" type="qcurve" smooth="yes"/>
      <point x="680" y="1082"/>
      <point x="900" y="911"/>
      <point x="900" y="765" type="qcurve" smooth="yes"/>
      <point x="900" y="760" type="line"/>
      <point x="715" y="760" type="line"/>
      <point x="715" y="769" type="line" smooth="yes"/>
      <point x="715" y="918"/>
      <point x="604" y="1078"/>
      <point x="500" y="1078" type="qcurve" smooth="yes"/>
      <point x="398" y="1078"/>
      <point x="289" y="949"/>
      <point x="289" y="834" type="qcurve" smooth="yes"/>
      <point x="289" y="718"/>
      <point x="428" y="652"/>
      <point x="567" y="619" type="qcurve" smooth="yes"/>
      <point x="770" y="571"/>
      <point x="930" y="419"/>
      <point x="930" y="290" type="qcurve" smooth="yes"/>
      <point x="930" y="150"/>
      <point x="720" y="-30"/>
      <point x="510" y="-30" type="qcurve" smooth="yes"/>
      <point x="300" y="-30"/>
      <point x="80" y="153"/>
      <point x="80" y="305" type="qcurve" smooth="yes"/>
    </contour>
  </outline>
</glyph>
<glyph name="t" format="2">
  <advance width="650"/>
  <unicode hex="0074"/>
  <anchor x="398" y="0" name="bottom"/>
  <anchor x="325" y="619" name="center"/>
  <anchor x="325" y="1312" name="top"/>
  <anchor x="700" y="1052" name="topright"/>
  <outline>
    <contour>
      <point x="0" y="1045" type="line"/>
      <point x="0" y="1052" type="line"/>
      <point x="600" y="1052" type="line"/>
      <point x="600" y="1045" type="line"/>
    </contour>
    <contour>
      <point x="188" y="260" type="qcurve" smooth="yes"/>
      <point x="188" y="1049" type="line"/>
      <point x="188" y="1051" type="line"/>
      <point x="188" y="1312" type="line"/>
      <point x="374" y="1312" type="line"/>
      <point x="374" y="250" type="line" smooth="yes"/>
      <point x="374" y="128"/>
      <point x="430" y="-24"/>
      <point x="489" y="-24" type="qcurve" smooth="yes"/>
      <point x="518" y="-24"/>
      <point x="572" y="0"/>
      <point x="600" y="16" type="qcurve"/>
      <point x="600" y="9" type="line"/>
      <point x="574" y="-5"/>
      <point x="490" y="-30"/>
      <point x="440" y="-30" type="qcurve" smooth="yes"/>
      <point x="325" y="-30"/>
      <point x="188" y="110"/>
    </contour>
  </outline>
</glyph>
<glyph name="u" format="2">
  <advance width="1138"/>
  <unicode hex="0075"/>
  <anchor x="569" y="0" name="bottom"/>
  <anchor x="980" y="0" name="ogonek"/>
  <anchor x="569" y="1052" name="top"/>
  <anchor x="903" y="1052" name="topright"/>
  <anchor x="899" y="0" name="cy_descender"/>
  <outline>
    <contour>
      <point x="990" y="1052" type="line"/>
      <point x="990" y="0" type="line"/>
      <point x="822" y="0" type="line"/>
      <point x="804" y="308" type="line"/>
      <point x="804" y="1052" type="line"/>
    </contour>
    <contour>
      <point x="900" y="266" type="qcurve"/>
      <point x="900" y="260" type="line"/>
      <point x="790" y="83"/>
      <point x="586" y="-20"/>
      <point x="486" y="-20" type="qcurve" smooth="yes"/>
      <point x="327" y="-20"/>
      <point x="138" y="161"/>
      <point x="138" y="373" type="qcurve" smooth="yes"/>
      <point x="138" y="1052" type="line"/>
      <point x="324" y="1052" type="line"/>
      <point x="324" y="219" type="line" smooth="yes"/>
      <point x="324" y="93"/>
      <point x="437" y="-16"/>
      <point x="491" y="-16" type="qcurve" smooth="yes"/>
      <point x="586" y="-16"/>
      <point x="786" y="85"/>
    </contour>
  </outline>
</glyph>
<glyph name="v" format="2">
  <advance width="872"/>
  <unicode hex="0076"/>
  <anchor x="471" y="0" name="bottom"/>
  <anchor x="471" y="1052" name="top"/>
  <outline>
    <contour>
      <point x="0" y="1052" type="line"/>
      <point x="180" y="1052" type="line"/>
      <point x="471" y="249" type="line" smooth="yes"/>
      <point x="485" y="209"/>
      <point x="504" y="139"/>
      <point x="507" y="119" type="qcurve"/>
      <point x="513" y="119" type="line"/>
      <point x="519" y="137"/>
      <point x="585" y="310"/>
      <point x="601" y="350" type="qcurve" smooth="yes"/>
      <point x="868" y="1052" type="line"/>
      <point x="872" y="1052" type="line"/>
      <point x="472" y="0" type="line"/>
      <point x="400" y="0" type="line"/>
    </contour>
  </outline>
</glyph>
<glyph name="w" format="2">
  <advance width="1496"/>
  <unicode hex="0077"/>
  <anchor x="773" y="0" name="bottom"/>
  <anchor x="773" y="1052" name="top"/>
  <outline>
    <contour>
      <point x="25" y="1052" type="line"/>
      <point x="205" y="1052" type="line"/>
      <point x="433" y="238" type="line" smooth="yes"/>
      <point x="444" y="198"/>
      <point x="457" y="148"/>
      <point x="465" y="108" type="qcurve"/>
      <point x="471" y="108" type="line"/>
      <point x="484" y="148"/>
      <point x="505" y="211"/>
      <point x="554" y="360" type="qcurve" smooth="yes"/>
      <point x="781" y="1052" type="line"/>
      <point x="856" y="1052" type="line"/>
      <point x="1134" y="238" type="line" smooth="yes"/>
      <point x="1148" y="198"/>
      <point x="1161" y="148"/>
      <point x="1169" y="108" type="qcurve"/>
      <point x="1175" y="108" type="line"/>
      <point x="1188" y="148"/>
      <point x="1204" y="199"/>
      <point x="1216" y="238" type="qcurve" smooth="yes"/>
      <point x="1467" y="1052" type="line"/>
      <point x="1471" y="1052" type="line"/>
      <point x="1146" y="0" type="line"/>
      <point x="1051" y="0" type="line"/>
      <point x="794" y="764" type="line" smooth="yes"/>
      <point x="781" y="804"/>
      <point x="758" y="884"/>
      <point x="748" y="924" type="qcurve"/>
      <point x="742" y="924" type="line"/>
      <point x="730" y="884"/>
      <point x="703" y="802"/>
      <point x="691" y="764" type="qcurve" smooth="yes"/>
      <point x="439" y="0" type="line"/>
      <point x="350" y="0" type="line"/>
    </contour>
  </outline>
</glyph>
<glyph name="x" format="2">
  <advance width="978"/>
  <unicode hex="0078"/>
  <anchor x="489" y="0" name="bottom"/>
  <anchor x="489" y="1052" name="top"/>
  <anchor x="765" y="0" name="cy_descender"/>
  <outline>
    <contour>
      <point x="120" y="0" type="line"/>
      <point x="520" y="582" type="line"/>
      <point x="521" y="582" type="line"/>
      <point x="834" y="1052" type="line"/>
      <point x="838" y="1052" type="line"/>
      <point x="458" y="484" type="line"/>
      <point x="456" y="484" type="line"/>
      <point x="124" y="0" type="line"/>
    </contour>
    <contour>
      <point x="40" y="1052" type="line"/>
      <point x="253" y="1052" type="line"/>
      <point x="536" y="604" type="line"/>
      <point x="537" y="604" type="line"/>
      <point x="958" y="0" type="line"/>
      <point x="745" y="0" type="line"/>
      <point x="442" y="464" type="line"/>
      <point x="440" y="464" type="line"/>
    </contour>
  </outline>
</glyph>
<glyph name="y" format="2">
  <advance width="878"/>
  <unicode hex="0079"/>
  <anchor x="778" y="0" name="bottom"/>
  <anchor x="489" y="1052" name="top"/>
  <outline>
    <contour>
      <point x="50" y="-416" type="qcurve"/>
      <point x="50" y="-412" type="line"/>
      <point x="75" y="-422"/>
      <point x="143" y="-432"/>
      <point x="180" y="-432" type="qcurve" smooth="yes"/>
      <point x="251" y="-432"/>
      <point x="380" y="-274"/>
      <point x="442" y="-92" type="qcurve"/>
      <point x="438" y="-92" type="line"/>
      <point x="10" y="1052" type="line"/>
      <point x="190" y="1052" type="line"/>
      <point x="468" y="259" type="line" smooth="yes"/>
      <point x="482" y="219"/>
      <point x="504" y="149"/>
      <point x="512" y="119" type="qcurve"/>
      <point x="518" y="119" type="line"/>
      <point x="528" y="149"/>
      <point x="554" y="219"/>
      <point x="568" y="259" type="qcurve" smooth="yes"/>
      <point x="854" y="1052" type="line"/>
      <point x="858" y="1052" type="line"/>
      <point x="429" y="-140" type="line" smooth="yes"/>
      <point x="372" y="-297"/>
      <point x="249" y="-436"/>
      <point x="180" y="-436" type="qcurve" smooth="yes"/>
      <point x="144" y="-436"/>
      <point x="77" y="-426"/>
    </contour>
  </outline>
</glyph>
<glyph name="z" format="2">
  <advance width="995"/>
  <unicode hex="007A"/>
  <anchor x="498" y="0" name="bottom"/>
  <anchor x="498" y="1052" name="top"/>
  <outline>
    <contour>
      <point x="-32" y="0" type="line"/>
      <point x="-32" y="7" type="line"/>
      <point x="696" y="1045" type="line"/>
      <point x="6" y="1045" type="line"/>
      <point x="6" y="1052" type="line"/>
      <point x="899" y="1052" type="line"/>
      <point x="899" y="1045" type="line"/>
      <point x="171" y="7" type="line"/>
      <point x="929" y="7" type="line"/>
      <point x="929" y="0" type="line"/>
    </contour>
  </outline>
</glyph>
<glyph name="braceleft" format="2">
	<unicode hex="007B"/>
	<advance width="700"/>
	<outline>
		<contour>
			<point x="670" y="-312" type="line"/>
			<point x="444" y="-312"/>
			<point x="189" y="-32"/>
			<point x="226" y="123" type="qcurve" smooth="yes"/>
			<point x="276" y="334" type="line" smooth="yes"/>
			<point x="301" y="441"/>
			<point x="176" y="571"/>
			<point x="64" y="571" type="qcurve"/>
			<point x="64" y="578" type="line"/>
			<point x="176" y="578"/>
			<point x="301" y="707"/>
			<point x="276" y="814" type="qcurve" smooth="yes"/>
			<point x="226" y="1025" type="line" smooth="yes"/>
			<point x="189" y="1180"/>
			<point x="444" y="1460"/>
			<point x="670" y="1460" type="qcurve"/>
			<point x="670" y="1453" type="line"/>
			<point x="522" y="1453"/>
			<point x="352" y="1278"/>
			<point x="412" y="1025" type="qcurve" smooth="yes"/>
			<point x="462" y="814" type="line" smooth="yes"/>
			<point x="482" y="730"/>
			<point x="410" y="600"/>
			<point x="312" y="574" type="qcurve"/>
			<point x="410" y="548"/>
			<point x="482" y="418"/>
			<point x="462" y="334" type="qcurve" smooth="yes"/>
			<point x="412" y="123" type="line" smooth="yes"/>
			<point x="361" y="-93"/>
			<point x="522" y="-305"/>
			<point x="670" y="-305" type="qcurve"/>
		</contour>
	</outline>
</glyph>
<glyph name="asciitilde" format="2">
  <advance width="1024"/>
  <unicode hex="007E"/>
  <outline>
    <contour>
      <point x="45" y="620" type="qcurve"/>
      <point x="45" y="645" type="line"/>
      <point x="92" y="696"/>
      <point x="224" y="753"/>
      <point x="289" y="754" type="qcurve" smooth="yes"/>
      <point x="368" y="755"/>
      <point x="460" y="712"/>
      <point x="523" y="681" type="qcurve" smooth="yes"/>
      <point x="582" y="651"/>
      <point x="667" y="612"/>
      <point x="741" y="612" type="qcurve" smooth="yes"/>
      <point x="806" y="612"/>
      <point x="931" y="680"/>
      <point x="978" y="740" type="qcurve"/>
      <point x="978" y="714" type="line"/>
      <point x="931" y="663"/>
      <point x="807" y="605"/>
      <point x="742" y="605" type="qcurve" smooth="yes"/>
      <point x="668" y="605"/>
      <point x="583" y="644"/>
      <point x="524" y="674" type="qcurve" smooth="yes"/>
      <point x="461" y="705"/>
      <point x="368" y="747"/>
      <point x="289" y="747" type="qcurve" smooth="yes"/>
      <point x="224" y="747"/>
      <point x="92" y="680"/>
    </contour>
  </outline>
</glyph>
<glyph name="sterling" format="2">
  <advance width="1024"/>
  <unicode hex="00A3"/>
  <outline>
    <contour>
      <point x="1028" y="0" type="line"/>
      <point x="36" y="0" type="line"/>
      <point x="36" y="6" type="line"/>
      <point x="92" y="6" type="line" smooth="yes"/>
      <point x="184" y="6"/>
      <point x="267" y="290"/>
      <point x="250" y="467" type="qcurve" smooth="yes"/>
      <point x="195" y="1039" type="line" smooth="yes"/>
      <point x="177" y="1228"/>
      <point x="380" y="1476"/>
      <point x="581" y="1476" type="qcurve" smooth="yes"/>
      <point x="771" y="1476"/>
      <point x="984" y="1270"/>
      <point x="984" y="1103" type="qcurve" smooth="yes"/>
      <point x="984" y="1087" type="line"/>
      <point x="792" y="1087" type="line"/>
      <point x="792" y="1103" type="line" smooth="yes"/>
      <point x="792" y="1296"/>
      <point x="688" y="1469"/>
      <point x="581" y="1469" type="qcurve" smooth="yes"/>
      <point x="466" y="1469"/>
      <point x="366" y="1220"/>
      <point x="383" y="1039" type="qcurve" smooth="yes"/>
      <point x="434" y="508" type="line" smooth="yes"/>
      <point x="453" y="313"/>
      <point x="368" y="41"/>
      <point x="297" y="7" type="qcurve"/>
      <point x="1028" y="7" type="line"/>
    </contour>
    <contour>
      <point x="824" y="702" type="line"/>
      <point x="52" y="702" type="line"/>
      <point x="52" y="709" type="line"/>
      <point x="824" y="709" type="line"/>
    </contour>
  </outline>
</glyph>
<glyph name="currency" format="2">
	<unicode hex="00A4"/>
	<advance width="1158"/>
	<outline>
		<contour>
			<point x="261" y="712" type="qcurve"/>
			<point x="261" y="567"/>
			<point x="445" y="373"/>
			<point x="576" y="373" type="qcurve" smooth="yes"/>
			<point x="706" y="373"/>
			<point x="889" y="567"/>
			<point x="889" y="712" type="qcurve" smooth="yes"/>
			<point x="889" y="855"/>
			<point x="706" y="1049"/>
			<point x="576" y="1049" type="qcurve" smooth="yes"/>
			<point x="445" y="1049"/>
			<point x="261" y="855"/>
		</contour>
		<contour>
			<point x="78" y="718" type="qcurve"/>
			<point x="78" y="933"/>
			<point x="374" y="1225"/>
			<point x="575" y="1225" type="qcurve" smooth="yes"/>
			<point x="776" y="1225"/>
			<point x="1072" y="933"/>
			<point x="1072" y="718" type="qcurve" smooth="yes"/>
			<point x="1072" y="504"/>
			<point x="776" y="209"/>
			<point x="575" y="209" type="qcurve" smooth="yes"/>
			<point x="374" y="209"/>
			<point x="78" y="504"/>
		</contour>
		<contour>
			<point x="1062" y="1236" type="line"/>
			<point x="864" y="1034" type="line"/>
			<point x="859" y="1039" type="line"/>
			<point x="1057" y="1241" type="line"/>
		</contour>
		<contour>
			<point x="281" y="404" type="line"/>
			<point x="103" y="218" type="line"/>
			<point x="98" y="223" type="line"/>
			<point x="276" y="409" type="line"/>
		</contour>
		<contour>
			<point x="1080" y="216" type="line"/>
			<point x="882" y="419" type="line"/>
			<point x="887" y="424" type="line"/>
			<point x="1086" y="221" type="line"/>
		</contour>
		<contour>
			<point x="272" y="1034" type="line"/>
			<point x="74" y="1234" type="line"/>
			<point x="79" y="1239" type="line"/>
			<point x="277" y="1039" type="line"/>
		</contour>
	</outline>
	<guideline y="901" identifier="bRYxxRaQQf"/>
	<guideline y="555" identifier="917FhrihjR"/>
	<guideline x="0" y="901" angle="0" identifier="ecIkI3snFj"/>
	<guideline x="0" y="555" angle="0" identifier="B8H6q52ejA"/>
</glyph>
<glyph name="copyright" format="2">
  <advance width="1654"/>
  <unicode hex="00A9"/>
  <guideline y="901" identifier="0Pjz0qKr8z"/>
  <guideline y="555" identifier="sJo8BlDiJ7"/>
  <outline>
    <contour>
      <point x="1030" y="546" type="qcurve"/>
      <point x="1212" y="546" type="line"/>
      <point x="1212" y="375"/>
      <point x="977" y="205"/>
      <point x="813" y="205" type="qcurve" smooth="yes"/>
      <point x="642" y="205"/>
      <point x="419" y="437"/>
      <point x="419" y="664" type="qcurve" smooth="yes"/>
      <point x="419" y="703" type="line" smooth="yes"/>
      <point x="419" y="931"/>
      <point x="643" y="1170"/>
      <point x="830" y="1170" type="qcurve" smooth="yes"/>
      <point x="1017" y="1170"/>
      <point x="1213" y="983"/>
      <point x="1213" y="829" type="qcurve"/>
      <point x="1031" y="829" type="line"/>
      <point x="1031" y="990"/>
      <point x="926" y="1164"/>
      <point x="829" y="1164" type="qcurve" smooth="yes"/>
      <point x="724" y="1164"/>
      <point x="612" y="948"/>
      <point x="612" y="747" type="qcurve" smooth="yes"/>
      <point x="612" y="621" type="line" smooth="yes"/>
      <point x="612" y="424"/>
      <point x="729" y="213"/>
      <point x="838" y="213" type="qcurve" smooth="yes"/>
      <point x="931" y="213"/>
      <point x="1030" y="386"/>
    </contour>
    <contour>
      <point x="186" y="687" type="qcurve" smooth="yes"/>
      <point x="186" y="289"/>
      <point x="519" y="-140"/>
      <point x="828" y="-140" type="qcurve" smooth="yes"/>
      <point x="1137" y="-140"/>
      <point x="1469" y="289"/>
      <point x="1469" y="687" type="qcurve" smooth="yes"/>
      <point x="1469" y="1085"/>
      <point x="1137" y="1512"/>
      <point x="828" y="1512" type="qcurve" smooth="yes"/>
      <point x="519" y="1512"/>
      <point x="186" y="1085"/>
    </contour>
    <contour>
      <point x="38" y="687" type="qcurve" smooth="yes"/>
      <point x="38" y="1039"/>
      <point x="501" y="1519"/>
      <point x="827" y="1519" type="qcurve" smooth="yes"/>
      <point x="1152" y="1519"/>
      <point x="1616" y="1039"/>
      <point x="1616" y="687" type="qcurve" smooth="yes"/>
      <point x="1616" y="337"/>
      <point x="1152" y="-147"/>
      <point x="827" y="-147" type="qcurve" smooth="yes"/>
      <point x="501" y="-147"/>
      <point x="38" y="337"/>
    </contour>
  </outline>
</glyph>
<glyph name="ordfeminine" format="2">
  <advance width="916"/>
  <unicode hex="00AA"/>
  <guideline y="1681" identifier="3CJlALCfkl"/>
  <guideline y="909" identifier="Zdl6NZVQAy"/>
  <outline>
    <contour>
      <point x="606" y="862" type="line"/>
      <point x="606" y="821"/>
      <point x="626" y="736"/>
      <point x="649" y="706" type="qcurve"/>
      <point x="784" y="706" type="line"/>
      <point x="770" y="749"/>
      <point x="758" y="838"/>
      <point x="758" y="887" type="qcurve" smooth="yes"/>
      <point x="758" y="1201" type="line" smooth="yes"/>
      <point x="758" y="1338"/>
      <point x="599" y="1477"/>
      <point x="464" y="1477" type="qcurve" smooth="yes"/>
      <point x="337" y="1477"/>
      <point x="165" y="1356"/>
      <point x="165" y="1261" type="qcurve" smooth="yes"/>
      <point x="165" y="1234" type="line"/>
      <point x="320" y="1234" type="line"/>
      <point x="320" y="1261" type="line" smooth="yes"/>
      <point x="320" y="1376"/>
      <point x="404" y="1470"/>
      <point x="464" y="1470" type="qcurve" smooth="yes"/>
      <point x="532" y="1470"/>
      <point x="606" y="1344"/>
      <point x="606" y="1202" type="qcurve" smooth="yes"/>
    </contour>
    <contour>
      <point x="683" y="1149" type="line"/>
      <point x="477" y="1149" type="line" smooth="yes"/>
      <point x="308" y="1149"/>
      <point x="141" y="1028"/>
      <point x="141" y="918" type="qcurve" smooth="yes"/>
      <point x="141" y="816"/>
      <point x="268" y="692"/>
      <point x="387" y="692" type="qcurve" smooth="yes"/>
      <point x="477" y="692"/>
      <point x="621" y="794"/>
      <point x="683" y="852" type="qcurve"/>
      <point x="683" y="866" type="line"/>
      <point x="623" y="802"/>
      <point x="484" y="699"/>
      <point x="426" y="699" type="qcurve" smooth="yes"/>
      <point x="365" y="699"/>
      <point x="298" y="821"/>
      <point x="298" y="922" type="qcurve" smooth="yes"/>
      <point x="298" y="1028"/>
      <point x="387" y="1142"/>
      <point x="477" y="1142" type="qcurve" smooth="yes"/>
      <point x="683" y="1142" type="line"/>
    </contour>
  </outline>
</glyph>
<glyph name="registered" format="2">
  <advance width="1654"/>
  <unicode hex="00AE"/>
  <outline>
    <contour>
      <point x="38" y="687" type="qcurve" smooth="yes"/>
      <point x="38" y="1039"/>
      <point x="501" y="1519"/>
      <point x="827" y="1519" type="qcurve" smooth="yes"/>
      <point x="1152" y="1519"/>
      <point x="1616" y="1039"/>
      <point x="1616" y="687" type="qcurve" smooth="yes"/>
      <point x="1616" y="337"/>
      <point x="1152" y="-147"/>
      <point x="827" y="-147" type="qcurve" smooth="yes"/>
      <point x="501" y="-147"/>
      <point x="38" y="337"/>
    </contour>
    <contour>
      <point x="186" y="687" type="qcurve" smooth="yes"/>
      <point x="186" y="341"/>
      <point x="503" y="-140"/>
      <point x="828" y="-140" type="qcurve" smooth="yes"/>
      <point x="1150" y="-140"/>
      <point x="1469" y="341"/>
      <point x="1469" y="687" type="qcurve" smooth="yes"/>
      <point x="1469" y="1036"/>
      <point x="1150" y="1512"/>
      <point x="828" y="1512" type="qcurve" smooth="yes"/>
      <point x="503" y="1512"/>
      <point x="186" y="1035"/>
    </contour>
    <contour>
      <point x="499" y="225" type="line"/>
      <point x="499" y="1158" type="line"/>
      <point x="821" y="1158" type="line" smooth="yes"/>
      <point x="993" y="1158"/>
      <point x="1197" y="1018"/>
      <point x="1197" y="877" type="qcurve" smooth="yes"/>
      <point x="1197" y="764"/>
      <point x="1026" y="597"/>
      <point x="885" y="597" type="qcurve" smooth="yes"/>
      <point x="594" y="597" type="line"/>
      <point x="594" y="604" type="line"/>
      <point x="847" y="604" type="line" smooth="yes"/>
      <point x="928" y="604"/>
      <point x="1016" y="736"/>
      <point x="1016" y="859" type="qcurve" smooth="yes"/>
      <point x="1016" y="1000"/>
      <point x="915" y="1151"/>
      <point x="822" y="1151" type="qcurve" smooth="yes"/>
      <point x="664" y="1151" type="line"/>
      <point x="664" y="225" type="line"/>
    </contour>
    <contour>
      <point x="1042" y="225" type="line"/>
      <point x="859" y="599" type="line"/>
      <point x="968" y="627" type="line"/>
      <point x="1001" y="601"/>
      <point x="1035" y="559"/>
      <point x="1052" y="530" type="qcurve" smooth="yes"/>
      <point x="1221" y="243" type="line"/>
      <point x="1221" y="225" type="line"/>
    </contour>
  </outline>
</glyph>
<glyph name="degree" format="2">
	<unicode hex="00B0"/>
	<advance width="765"/>
	<outline>
		<contour>
			<point x="130" y="1217" type="qcurve"/>
			<point x="130" y="1323"/>
			<point x="281" y="1477"/>
			<point x="385" y="1477" type="qcurve" smooth="yes"/>
			<point x="488" y="1477"/>
			<point x="636" y="1323"/>
			<point x="636" y="1217" type="qcurve" smooth="yes"/>
			<point x="636" y="1110"/>
			<point x="488" y="960"/>
			<point x="385" y="960" type="qcurve" smooth="yes"/>
			<point x="281" y="960"/>
			<point x="130" y="1110"/>
		</contour>
		<contour>
			<point x="254" y="1217" type="qcurve"/>
			<point x="254" y="1097"/>
			<point x="322" y="967"/>
			<point x="385" y="967" type="qcurve" smooth="yes"/>
			<point x="446" y="967"/>
			<point x="512" y="1097"/>
			<point x="512" y="1217" type="qcurve" smooth="yes"/>
			<point x="512" y="1339"/>
			<point x="446" y="1470"/>
			<point x="385" y="1470" type="qcurve" smooth="yes"/>
			<point x="322" y="1470"/>
			<point x="254" y="1339"/>
		</contour>
	</outline>
</glyph>
<glyph name="threesuperior" format="2">
  <advance width="751"/>
  <unicode hex="00B3"/>
  <outline>
    <contour>
      <point x="63" y="920" type="qcurve" smooth="yes"/>
      <point x="63" y="923" type="line"/>
      <point x="220" y="923" type="line"/>
      <point x="220" y="920" type="line" smooth="yes"/>
      <point x="220" y="811"/>
      <point x="296" y="693"/>
      <point x="366" y="693" type="qcurve" smooth="yes"/>
      <point x="430" y="693"/>
      <point x="499" y="813"/>
      <point x="499" y="925" type="qcurve" smooth="yes"/>
      <point x="499" y="1005"/>
      <point x="422" y="1092"/>
      <point x="350" y="1092" type="qcurve" smooth="yes"/>
      <point x="266" y="1092" type="line"/>
      <point x="266" y="1099" type="line"/>
      <point x="350" y="1099" type="line" smooth="yes"/>
      <point x="416" y="1099"/>
      <point x="486" y="1180"/>
      <point x="486" y="1255" type="qcurve" smooth="yes"/>
      <point x="486" y="1363"/>
      <point x="422" y="1480"/>
      <point x="363" y="1480" type="qcurve" smooth="yes"/>
      <point x="299" y="1480"/>
      <point x="231" y="1364"/>
      <point x="231" y="1256" type="qcurve" smooth="yes"/>
      <point x="231" y="1252" type="line"/>
      <point x="74" y="1252" type="line"/>
      <point x="74" y="1256" type="line" smooth="yes"/>
      <point x="74" y="1357"/>
      <point x="241" y="1487"/>
      <point x="360" y="1487" type="qcurve" smooth="yes"/>
      <point x="490" y="1487"/>
      <point x="656" y="1372"/>
      <point x="656" y="1263" type="qcurve" smooth="yes"/>
      <point x="656" y="1212"/>
      <point x="593" y="1120"/>
      <point x="533" y="1098" type="qcurve"/>
      <point x="533" y="1097" type="line"/>
      <point x="600" y="1073"/>
      <point x="667" y="981"/>
      <point x="667" y="917" type="qcurve" smooth="yes"/>
      <point x="667" y="807"/>
      <point x="491" y="686"/>
      <point x="361" y="686" type="qcurve" smooth="yes"/>
      <point x="228" y="686"/>
      <point x="63" y="802"/>
    </contour>
  </outline>
</glyph>
<glyph name="ordmasculine" format="2">
	<unicode hex="00BA"/>
	<advance width="932"/>
	<outline>
		<contour>
			<point x="124" y="1043" type="qcurve"/>
			<point x="124" y="1124" type="line"/>
			<point x="124" y="1278"/>
			<point x="309" y="1477"/>
			<point x="466" y="1477" type="qcurve" smooth="yes"/>
			<point x="624" y="1477"/>
			<point x="808" y="1278"/>
			<point x="808" y="1124" type="qcurve"/>
			<point x="808" y="1043" type="line"/>
			<point x="808" y="889"/>
			<point x="625" y="691"/>
			<point x="468" y="691" type="qcurve" smooth="yes"/>
			<point x="310" y="691"/>
			<point x="124" y="889"/>
		</contour>
		<contour>
			<point x="287" y="1124" type="qcurve"/>
			<point x="287" y="1043" type="line"/>
			<point x="287" y="877"/>
			<point x="381" y="698"/>
			<point x="468" y="698" type="qcurve" smooth="yes"/>
			<point x="554" y="698"/>
			<point x="646" y="877"/>
			<point x="646" y="1043" type="qcurve"/>
			<point x="646" y="1124" type="line"/>
			<point x="646" y="1291"/>
			<point x="553" y="1470"/>
			<point x="466" y="1470" type="qcurve" smooth="yes"/>
			<point x="380" y="1470"/>
			<point x="287" y="1291"/>
		</contour>
	</outline>
	<guideline y="1975" identifier="Jnt0R9CyOf"/>
</glyph>
<glyph name="AE" format="2">
	<unicode hex="00C6"/>
	<advance width="1914"/>
	<outline>
		<contour>
			<point x="-15" y="0" type="line"/>
			<point x="866" y="1456" type="line"/>
			<point x="1836" y="1456" type="line"/>
			<point x="1836" y="1449" type="line"/>
			<point x="1122" y="1449" type="line"/>
			<point x="1122" y="7" type="line"/>
			<point x="1846" y="7" type="line"/>
			<point x="1846" y="0" type="line"/>
			<point x="930" y="0" type="line"/>
			<point x="930" y="1238" type="line"/>
			<point x="212" y="0" type="line"/>
		</contour>
		<contour>
			<point x="1032" y="750" type="line"/>
			<point x="1032" y="757" type="line"/>
			<point x="1744" y="757" type="line"/>
			<point x="1744" y="750" type="line"/>
		</contour>
		<contour>
			<point x="351" y="438" type="line"/>
			<point x="355" y="445" type="line"/>
			<point x="1035" y="445" type="line"/>
			<point x="1035" y="438" type="line"/>
		</contour>
	</outline>
	<anchor name="top" x="993" y="1456"/>
</glyph>
<glyph name="germandbls" format="2">
  <advance width="1186"/>
  <unicode hex="00DF"/>
  <outline>
    <contour>
      <point x="332" y="1034" type="qcurve" name="hr00"/>
      <point x="332" y="0" type="line"/>
      <point x="148" y="0" type="line"/>
      <point x="148" y="1034" type="line" smooth="yes"/>
      <point x="148" y="1237"/>
      <point x="356" y="1476"/>
      <point x="551" y="1476" type="qcurve" smooth="yes"/>
      <point x="719" y="1476"/>
      <point x="917" y="1303"/>
      <point x="917" y="1157" type="qcurve" smooth="yes"/>
      <point x="917" y="1069"/>
      <point x="867" y="978"/>
      <point x="830" y="935" type="qcurve" smooth="yes"/>
      <point x="798" y="897"/>
      <point x="739" y="821"/>
      <point x="739" y="790" type="qcurve" smooth="yes"/>
      <point x="739" y="755"/>
      <point x="872" y="652"/>
      <point x="953" y="590" type="qcurve" smooth="yes"/>
      <point x="1031" y="531"/>
      <point x="1138" y="395"/>
      <point x="1138" y="292" type="qcurve" smooth="yes"/>
      <point x="1138" y="157"/>
      <point x="920" y="-20"/>
      <point x="753" y="-20" type="qcurve" smooth="yes"/>
      <point x="589" y="-20"/>
      <point x="392" y="129"/>
      <point x="392" y="278" type="qcurve" smooth="yes"/>
      <point x="392" y="304" type="line"/>
      <point x="555" y="304" type="line"/>
      <point x="555" y="295" type="line" smooth="yes"/>
      <point x="555" y="147"/>
      <point x="659" y="-13"/>
      <point x="755" y="-13" type="qcurve" smooth="yes"/>
      <point x="855" y="-13"/>
      <point x="963" y="150"/>
      <point x="963" y="291" type="qcurve" smooth="yes"/>
      <point x="963" y="352"/>
      <point x="864" y="437"/>
      <point x="807" y="483" type="qcurve" smooth="yes"/>
      <point x="735" y="540"/>
      <point x="563" y="683"/>
      <point x="563" y="771" type="qcurve" smooth="yes"/>
      <point x="563" y="829"/>
      <point x="646" y="944"/>
      <point x="678" y="988" type="qcurve" smooth="yes"/>
      <point x="707" y="1028"/>
      <point x="742" y="1091"/>
      <point x="742" y="1146" type="qcurve" smooth="yes"/>
      <point x="742" y="1302"/>
      <point x="643" y="1469"/>
      <point x="551" y="1469" type="qcurve" smooth="yes"/>
      <point x="445" y="1469"/>
      <point x="332" y="1244"/>
    </contour>
  </outline>
</glyph>
<glyph name="ae" format="2">
  <advance width="1771"/>
  <unicode hex="00E6"/>
  <anchor x="892" y="1052" name="top"/>
  <outline>
    <contour>
      <point x="476" y="-20" type="qcurve" smooth="yes"/>
      <point x="290" y="-20"/>
      <point x="80" y="150"/>
      <point x="80" y="310" type="qcurve" smooth="yes"/>
      <point x="80" y="470"/>
      <point x="334" y="648"/>
      <point x="530" y="648" type="qcurve" smooth="yes"/>
      <point x="858" y="648" type="line"/>
      <point x="858" y="641" type="line"/>
      <point x="530" y="641" type="line" smooth="yes"/>
      <point x="375" y="641"/>
      <point x="266" y="464"/>
      <point x="266" y="320" type="qcurve" smooth="yes"/>
      <point x="266" y="154"/>
      <point x="369" y="-12"/>
      <point x="480" y="-12" type="qcurve" smooth="yes"/>
      <point x="594" y="-12"/>
      <point x="768" y="213"/>
      <point x="768" y="366" type="qcurve" smooth="yes"/>
      <point x="768" y="720" type="line" smooth="yes"/>
      <point x="768" y="866"/>
      <point x="670" y="1075"/>
      <point x="550" y="1075" type="qcurve" smooth="yes"/>
      <point x="430" y="1075"/>
      <point x="327" y="889"/>
      <point x="327" y="770" type="qcurve" smooth="yes"/>
      <point x="327" y="765" type="line"/>
      <point x="142" y="765" type="line"/>
      <point x="142" y="770" type="line" smooth="yes"/>
      <point x="142" y="895"/>
      <point x="365" y="1082"/>
      <point x="550" y="1082" type="qcurve" smooth="yes"/>
      <point x="719" y="1082"/>
      <point x="891" y="949"/>
      <point x="901" y="871" type="qcurve"/>
      <point x="921" y="950"/>
      <point x="1083" y="1082"/>
      <point x="1234" y="1082" type="qcurve" smooth="yes"/>
      <point x="1449" y="1082"/>
      <point x="1681" y="800"/>
      <point x="1681" y="560" type="qcurve" smooth="yes"/>
      <point x="1681" y="553" type="line"/>
      <point x="859" y="553" type="line"/>
      <point x="859" y="560" type="line"/>
      <point x="1494" y="560" type="line"/>
      <point x="1494" y="656" type="line" smooth="yes"/>
      <point x="1494" y="802"/>
      <point x="1366" y="1075"/>
      <point x="1234" y="1075" type="qcurve" smooth="yes"/>
      <point x="1091" y="1075"/>
      <point x="948" y="773"/>
      <point x="948" y="542" type="qcurve" smooth="yes"/>
      <point x="948" y="509" type="line" smooth="yes"/>
      <point x="948" y="301"/>
      <point x="1112" y="-24"/>
      <point x="1261" y="-24" type="qcurve" smooth="yes"/>
      <point x="1364" y="-24"/>
      <point x="1525" y="136"/>
      <point x="1553" y="270" type="qcurve"/>
      <point x="1673" y="175" type="line"/>
      <point x="1623" y="100"/>
      <point x="1414" y="-30"/>
      <point x="1261" y="-30" type="qcurve" smooth="yes"/>
      <point x="1119" y="-30"/>
      <point x="885" y="90"/>
      <point x="832" y="211" type="qcurve"/>
      <point x="802" y="99"/>
      <point x="594" y="-20"/>
    </contour>
  </outline>
</glyph>
<glyph name="eth" format="2">
  <advance width="1114"/>
  <unicode hex="00F0"/>
  <outline>
    <contour>
      <point x="269" y="1470" type="qcurve"/>
      <point x="271" y="1476" type="line"/>
      <point x="608" y="1401"/>
      <point x="1029" y="978"/>
      <point x="1029" y="633" type="qcurve"/>
      <point x="1029" y="535" type="line"/>
      <point x="1029" y="289"/>
      <point x="763" y="-20"/>
      <point x="561" y="-20" type="qcurve" smooth="yes"/>
      <point x="351" y="-20"/>
      <point x="85" y="265"/>
      <point x="85" y="468" type="qcurve" smooth="yes"/>
      <point x="85" y="698"/>
      <point x="340" y="978"/>
      <point x="533" y="978" type="qcurve" smooth="yes"/>
      <point x="702" y="978"/>
      <point x="933" y="749"/>
      <point x="933" y="614" type="qcurve"/>
      <point x="864" y="614" type="line"/>
      <point x="864" y="732"/>
      <point x="700" y="971"/>
      <point x="577" y="971" type="qcurve" smooth="yes"/>
      <point x="446" y="971"/>
      <point x="271" y="701"/>
      <point x="271" y="468" type="qcurve" smooth="yes"/>
      <point x="271" y="265"/>
      <point x="442" y="-13"/>
      <point x="561" y="-13" type="qcurve" smooth="yes"/>
      <point x="702" y="-13"/>
      <point x="843" y="289"/>
      <point x="843" y="535" type="qcurve" smooth="yes"/>
      <point x="843" y="635" type="line" smooth="yes"/>
      <point x="843" y="954"/>
      <point x="517" y="1397"/>
    </contour>
    <contour>
      <point x="900" y="1396" type="line"/>
      <point x="321" y="1102" type="line"/>
      <point x="319" y="1107" type="line"/>
      <point x="898" y="1401" type="line"/>
    </contour>
  </outline>
</glyph>
<glyph name="thorn" format="2">
	<unicode hex="00FE"/>
	<advance width="1170"/>
	<outline>
		<contour>
			<point x="334" y="-416" type="line"/>
			<point x="148" y="-416" type="line"/>
			<point x="148" y="1536" type="line"/>
			<point x="334" y="1536" type="line"/>
			<point x="334" y="928" type="line"/>
		</contour>
		<contour>
			<point x="615" y="-13" type="qcurve" smooth="yes"/>
			<point x="748" y="-13"/>
			<point x="895" y="276"/>
			<point x="895" y="506" type="qcurve" smooth="yes"/>
			<point x="895" y="550" type="line" smooth="yes"/>
			<point x="895" y="796"/>
			<point x="720" y="1065"/>
			<point x="613" y="1065" type="qcurve"/>
			<point x="454" y="1065"/>
			<point x="291" y="739"/>
			<point x="291" y="554" type="qcurve" smooth="yes"/>
			<point x="291" y="521" type="line" smooth="yes"/>
			<point x="291" y="301"/>
			<point x="463" y="-13"/>
		</contour>
		<contour>
			<point x="615" y="-20" type="qcurve"/>
			<point x="455" y="-20"/>
			<point x="224" y="285"/>
			<point x="224" y="520" type="qcurve" smooth="yes"/>
			<point x="224" y="554" type="line" smooth="yes"/>
			<point x="224" y="765"/>
			<point x="441" y="1072"/>
			<point x="616" y="1072" type="qcurve"/>
			<point x="845" y="1072"/>
			<point x="1085" y="772"/>
			<point x="1085" y="542" type="qcurve" smooth="yes"/>
			<point x="1085" y="510" type="line" smooth="yes"/>
			<point x="1085" y="280"/>
			<point x="838" y="-20"/>
		</contour>
	</outline>
</glyph>
<glyph name="kgreenlandic" format="2">
  <advance width="1072"/>
  <unicode hex="0138"/>
  <outline>
    <contour>
      <point x="340" y="1052" type="line"/>
      <point x="340" y="0" type="line"/>
      <point x="155" y="0" type="line"/>
      <point x="155" y="1052" type="line"/>
    </contour>
    <contour>
      <point x="927" y="1052" type="line"/>
      <point x="425" y="488" type="line"/>
      <point x="250" y="488" type="line"/>
      <point x="250" y="495" type="line"/>
      <point x="424" y="495" type="line"/>
      <point x="917" y="1052" type="line"/>
    </contour>
    <contour>
      <point x="854" y="0" type="line"/>
      <point x="423" y="490" type="line"/>
      <point x="542" y="624" type="line"/>
      <point x="1088" y="0" type="line"/>
    </contour>
  </outline>
</glyph>
<glyph name="OE" format="2">
  <advance width="1879"/>
  <unicode hex="0152"/>
  <outline>
    <contour>
      <point x="672" y="-21" type="qcurve" smooth="yes"/>
      <point x="458" y="-21"/>
      <point x="115" y="340"/>
      <point x="115" y="682" type="qcurve" smooth="yes"/>
      <point x="115" y="772" type="line" smooth="yes"/>
      <point x="115" y="1105"/>
      <point x="455" y="1477"/>
      <point x="713" y="1477" type="qcurve" smooth="yes"/>
      <point x="746" y="1477"/>
      <point x="897" y="1464"/>
      <point x="964" y="1456" type="qcurve"/>
      <point x="1801" y="1456" type="line"/>
      <point x="1801" y="1449" type="line"/>
      <point x="1079" y="1449" type="line"/>
      <point x="1079" y="7" type="line"/>
      <point x="1811" y="7" type="line"/>
      <point x="1811" y="0" type="line"/>
      <point x="964" y="0" type="line"/>
      <point x="897" y="-7"/>
      <point x="748" y="-21"/>
    </contour>
    <contour>
      <point x="715" y="-12" type="qcurve" smooth="yes"/>
      <point x="768" y="-12"/>
      <point x="849" y="-3"/>
      <point x="887" y="3" type="qcurve"/>
      <point x="887" y="1455" type="line"/>
      <point x="835" y="1462"/>
      <point x="739" y="1470"/>
      <point x="717" y="1470" type="qcurve" smooth="yes"/>
      <point x="540" y="1470"/>
      <point x="310" y="1030"/>
      <point x="310" y="774" type="qcurve" smooth="yes"/>
      <point x="310" y="682" type="line" smooth="yes"/>
      <point x="310" y="418"/>
      <point x="543" y="-12"/>
    </contour>
    <contour>
      <point x="989" y="750" type="line"/>
      <point x="989" y="757" type="line"/>
      <point x="1709" y="757" type="line"/>
      <point x="1709" y="750" type="line"/>
    </contour>
  </outline>
</glyph>
<glyph name="oe" format="2">
  <advance width="1889"/>
  <unicode hex="0153"/>
  <outline>
    <contour>
      <point x="557" y="-30" type="qcurve" smooth="yes"/>
      <point x="355" y="-30"/>
      <point x="85" y="272"/>
      <point x="85" y="510" type="qcurve" smooth="yes"/>
      <point x="85" y="542" type="line" smooth="yes"/>
      <point x="85" y="780"/>
      <point x="354" y="1081"/>
      <point x="574" y="1081" type="qcurve" smooth="yes"/>
      <point x="755" y="1081"/>
      <point x="957" y="921"/>
      <point x="977" y="866" type="qcurve"/>
      <point x="997" y="926"/>
      <point x="1212" y="1081"/>
      <point x="1378" y="1081" type="qcurve" smooth="yes"/>
      <point x="1577" y="1081"/>
      <point x="1809" y="800"/>
      <point x="1809" y="560" type="qcurve" smooth="yes"/>
      <point x="1809" y="553" type="line"/>
      <point x="1000" y="553" type="line"/>
      <point x="1000" y="560" type="line"/>
      <point x="1622" y="560" type="line"/>
      <point x="1622" y="656" type="line" smooth="yes"/>
      <point x="1622" y="838"/>
      <point x="1492" y="1075"/>
      <point x="1362" y="1075" type="qcurve" smooth="yes"/>
      <point x="1222" y="1075"/>
      <point x="1076" y="774"/>
      <point x="1076" y="542" type="qcurve" smooth="yes"/>
      <point x="1076" y="510" type="line" smooth="yes"/>
      <point x="1076" y="272"/>
      <point x="1219" y="-23"/>
      <point x="1382" y="-23" type="qcurve" smooth="yes"/>
      <point x="1482" y="-23"/>
      <point x="1655" y="144"/>
      <point x="1681" y="270" type="qcurve"/>
      <point x="1801" y="175" type="line"/>
      <point x="1751" y="100"/>
      <point x="1542" y="-29"/>
      <point x="1406" y="-29" type="qcurve" smooth="yes"/>
      <point x="1216" y="-29"/>
      <point x="1009" y="110"/>
      <point x="979" y="184" type="qcurve"/>
      <point x="948" y="111"/>
      <point x="746" y="-30"/>
    </contour>
    <contour>
      <point x="581" y="-23" type="qcurve" smooth="yes"/>
      <point x="733" y="-23"/>
      <point x="887" y="288"/>
      <point x="887" y="510" type="qcurve" smooth="yes"/>
      <point x="887" y="542" type="line" smooth="yes"/>
      <point x="887" y="765"/>
      <point x="733" y="1075"/>
      <point x="581" y="1075" type="qcurve" smooth="yes"/>
      <point x="429" y="1075"/>
      <point x="275" y="765"/>
      <point x="275" y="542" type="qcurve" smooth="yes"/>
      <point x="275" y="510" type="line" smooth="yes"/>
      <point x="275" y="288"/>
      <point x="429" y="-23"/>
    </contour>
  </outline>
</glyph>
<glyph name="Schwa" format="2">
  <advance width="1445"/>
  <unicode hex="018F"/>
  <outline>
    <contour>
      <point x="714" y="-30" type="qcurve" smooth="yes"/>
      <point x="430" y="-30"/>
      <point x="102" y="311"/>
      <point x="102" y="726" type="qcurve" smooth="yes"/>
      <point x="102" y="731" type="line"/>
      <point x="1228" y="731" type="line"/>
      <point x="1228" y="719" type="line"/>
      <point x="741" y="724" type="line"/>
      <point x="310" y="721" type="line"/>
      <point x="310" y="567" type="line" smooth="yes"/>
      <point x="310" y="283"/>
      <point x="523" y="-23"/>
      <point x="722" y="-23" type="qcurve" smooth="yes"/>
      <point x="927" y="-23"/>
      <point x="1146" y="377"/>
      <point x="1143" y="749" type="qcurve" smooth="yes"/>
      <point x="1141" y="1102"/>
      <point x="913" y="1482"/>
      <point x="704" y="1482" type="qcurve" smooth="yes"/>
      <point x="562" y="1482"/>
      <point x="362" y="1224"/>
      <point x="318" y="984" type="qcurve" smooth="yes"/>
      <point x="315" y="968" type="line"/>
      <point x="116" y="968" type="line"/>
      <point x="118" y="982" type="line" smooth="yes"/>
      <point x="151" y="1212"/>
      <point x="450" y="1489"/>
      <point x="702" y="1489" type="qcurve" smooth="yes"/>
      <point x="983" y="1489"/>
      <point x="1330" y="1128"/>
      <point x="1330" y="759" type="qcurve" smooth="yes"/>
      <point x="1330" y="384"/>
      <point x="1010" y="-30"/>
    </contour>
  </outline>
</glyph>
<glyph name="florin" format="2">
	<unicode hex="0192"/>
	<advance width="1024"/>
	<outline>
		<contour>
			<point x="868" y="817" type="line"/>
			<point x="868" y="810" type="line"/>
			<point x="129" y="810" type="line"/>
			<point x="129" y="817" type="line"/>
		</contour>
		<contour>
			<point x="555" y="111" type="line" smooth="yes"/>
			<point x="555" y="-173"/>
			<point x="349" y="-437"/>
			<point x="103" y="-437" type="qcurve" smooth="yes"/>
			<point x="72" y="-437"/>
			<point x="19" y="-430"/>
			<point x="-9" y="-420" type="qcurve"/>
			<point x="-8" y="-414" type="line"/>
			<point x="20" y="-423"/>
			<point x="69" y="-430"/>
			<point x="103" y="-430" type="qcurve" smooth="yes"/>
			<point x="271" y="-430"/>
			<point x="370" y="-165"/>
			<point x="370" y="111" type="qcurve" smooth="yes"/>
			<point x="370" y="1126" type="line" smooth="yes"/>
			<point x="370" y="1300"/>
			<point x="532" y="1487"/>
			<point x="727" y="1487" type="qcurve" smooth="yes"/>
			<point x="794" y="1487"/>
			<point x="923" y="1434"/>
			<point x="963" y="1404" type="qcurve"/>
			<point x="959" y="1399" type="line"/>
			<point x="917" y="1430"/>
			<point x="794" y="1480"/>
			<point x="727" y="1480" type="qcurve" smooth="yes"/>
			<point x="660" y="1480"/>
			<point x="555" y="1322"/>
			<point x="555" y="1126" type="qcurve" smooth="yes"/>
		</contour>
	</outline>
</glyph>
<glyph name="schwa" format="2">
  <advance width="1088"/>
  <unicode hex="0259"/>
  <outline>
    <contour>
      <point x="1003" y="542" type="qcurve" smooth="yes"/>
      <point x="1003" y="510" type="line" smooth="yes"/>
      <point x="1003" y="272"/>
      <point x="742" y="-30"/>
      <point x="527" y="-30" type="qcurve" smooth="yes"/>
      <point x="312" y="-30"/>
      <point x="80" y="252"/>
      <point x="80" y="492" type="qcurve" smooth="yes"/>
      <point x="80" y="499" type="line"/>
      <point x="889" y="499" type="line"/>
      <point x="889" y="492" type="line"/>
      <point x="268" y="492" type="line"/>
      <point x="267" y="396" type="line"/>
      <point x="269" y="194"/>
      <point x="399" y="-23"/>
      <point x="519" y="-23" type="qcurve" smooth="yes"/>
      <point x="661" y="-23"/>
      <point x="813" y="253"/>
      <point x="813" y="510" type="qcurve" smooth="yes"/>
      <point x="813" y="542" type="line" smooth="yes"/>
      <point x="813" y="799"/>
      <point x="649" y="1075"/>
      <point x="497" y="1075" type="qcurve" smooth="yes"/>
      <point x="393" y="1075"/>
      <point x="243" y="923"/>
      <point x="208" y="782" type="qcurve"/>
      <point x="88" y="877" type="line"/>
      <point x="138" y="952"/>
      <point x="347" y="1082"/>
      <point x="497" y="1082" type="qcurve" smooth="yes"/>
      <point x="742" y="1082"/>
      <point x="1003" y="780"/>
    </contour>
  </outline>
</glyph>
<glyph name="doubleprimemod" format="2">
  <advance width="788"/>
  <unicode hex="02BA"/>
  <outline>
    <contour>
      <point x="224" y="1502" type="line"/>
      <point x="413" y="1502" type="line"/>
      <point x="229" y="1004" type="line"/>
      <point x="225" y="1005" type="line"/>
    </contour>
    <contour>
      <point x="524" y="1502" type="line"/>
      <point x="713" y="1502" type="line"/>
      <point x="529" y="1004" type="line"/>
      <point x="525" y="1005" type="line"/>
    </contour>
  </outline>
</glyph>
<glyph name="gravecomb" format="2">
  <unicode hex="0300"/>
  <anchor x="0" y="1052" name="_top"/>
  <anchor x="0" y="1599" name="top"/>
  <outline>
    <contour>
      <point x="114" y="1252" type="line"/>
      <point x="-233" y="1490" type="line"/>
      <point x="-96" y="1603" type="line"/>
      <point x="116" y="1253" type="line"/>
    </contour>
  </outline>
</glyph>
<glyph name="circumflexcomb" format="2">
	<unicode hex="0302"/>
	<outline>
		<contour>
			<point x="56" y="1533" type="line"/>
			<point x="303" y="1220" type="line"/>
			<point x="296" y="1220" type="line"/>
			<point x="0" y="1379" type="line"/>
			<point x="-296" y="1220" type="line"/>
			<point x="-303" y="1220" type="line"/>
			<point x="-56" y="1533" type="line"/>
		</contour>
	</outline>
	<anchor name="_top" x="0" y="1052"/>
	<anchor name="top" x="0" y="1533"/>
</glyph>
<glyph name="tildecomb" format="2">
  <unicode hex="0303"/>
  <anchor x="0" y="1052" name="_top"/>
  <anchor x="0" y="1487" name="top"/>
  <outline>
    <contour>
      <point x="-342" y="1278" type="line"/>
      <point x="-308" y="1386"/>
      <point x="-214" y="1482"/>
      <point x="-143" y="1482" type="qcurve" smooth="yes"/>
      <point x="-91" y="1482"/>
      <point x="-10" y="1459"/>
      <point x="26" y="1433" type="qcurve" smooth="yes"/>
      <point x="60" y="1409"/>
      <point x="126" y="1355"/>
      <point x="164" y="1355" type="qcurve" smooth="yes"/>
      <point x="231" y="1355"/>
      <point x="310" y="1383"/>
      <point x="330" y="1415" type="qcurve"/>
      <point x="332" y="1411" type="line"/>
      <point x="304" y="1308"/>
      <point x="218" y="1215"/>
      <point x="150" y="1215" type="qcurve" smooth="yes"/>
      <point x="101" y="1215"/>
      <point x="4" y="1253"/>
      <point x="-25" y="1275" type="qcurve" smooth="yes"/>
      <point x="-54" y="1297"/>
      <point x="-121" y="1340"/>
      <point x="-159" y="1340" type="qcurve" smooth="yes"/>
      <point x="-204" y="1340"/>
      <point x="-289" y="1310"/>
      <point x="-340" y="1276" type="qcurve"/>
    </contour>
  </outline>
</glyph>
<glyph name="macroncomb" format="2">
	<unicode hex="0304"/>
	<outline>
		<contour>
			<point x="314" y="1237" type="line"/>
			<point x="314" y="1230" type="line"/>
			<point x="-314" y="1230" type="line"/>
			<point x="-314" y="1237" type="line"/>
		</contour>
	</outline>
	<anchor name="_top" x="0" y="1052"/>
	<anchor name="top" x="0" y="1238"/>
</glyph>
<glyph name="brevecomb" format="2">
  <unicode hex="0306"/>
  <anchor x="0" y="1052" name="_top"/>
  <anchor x="0" y="1518" name="top"/>
  <outline>
    <contour>
      <point x="236" y="1517" type="qcurve"/>
      <point x="337" y="1463" type="line"/>
      <point x="302" y="1364"/>
      <point x="126" y="1197"/>
      <point x="0" y="1197" type="qcurve" smooth="yes"/>
      <point x="-113" y="1197"/>
      <point x="-294" y="1351"/>
      <point x="-336" y="1465" type="qcurve"/>
      <point x="-236" y="1517" type="line"/>
      <point x="-177" y="1352"/>
      <point x="-65" y="1204"/>
      <point x="0" y="1204" type="qcurve" smooth="yes"/>
      <point x="65" y="1204"/>
      <point x="177" y="1352"/>
    </contour>
  </outline>
</glyph>
<glyph name="hookabovecomb" format="2">
	<unicode hex="0309"/>
	<outline>
		<contour>
			<point x="-4" y="1220" type="line"/>
			<point x="-4" y="1259" type="line" smooth="yes"/>
			<point x="-4" y="1329"/>
			<point x="-2" y="1333"/>
			<point x="22" y="1336" type="qcurve" smooth="yes"/>
			<point x="91" y="1343"/>
			<point x="143" y="1412"/>
			<point x="143" y="1473" type="qcurve" smooth="yes"/>
			<point x="143" y="1512"/>
			<point x="72" y="1548"/>
			<point x="18" y="1548" type="qcurve" smooth="yes"/>
			<point x="-46" y="1548"/>
			<point x="-145" y="1514"/>
			<point x="-168" y="1499" type="qcurve"/>
			<point x="-222" y="1632" type="line"/>
			<point x="-171" y="1657"/>
			<point x="-51" y="1692"/>
			<point x="49" y="1692" type="qcurve" smooth="yes"/>
			<point x="169" y="1692"/>
			<point x="306" y="1578"/>
			<point x="306" y="1482" type="qcurve" smooth="yes"/>
			<point x="306" y="1433"/>
			<point x="159" y="1344"/>
			<point x="3" y="1327" type="qcurve"/>
			<point x="3" y="1220" type="line"/>
		</contour>
	</outline>
	<anchor name="_top" x="0" y="1052"/>
	<anchor name="top" x="0" y="1692"/>
</glyph>
<glyph name="breveinvertedcomb" format="2">
  <unicode hex="030F"/>
  <anchor x="0" y="1052" name="_top"/>
  <anchor x="0" y="1540" name="top"/>
  <outline>
    <contour>
      <point x="-236" y="1272" type="qcurve"/>
      <point x="-240" y="1274" type="line"/>
      <point x="-231" y="1376"/>
      <point x="-112" y="1540"/>
      <point x="0" y="1540" type="qcurve" smooth="yes"/>
      <point x="107" y="1540"/>
      <point x="229" y="1376"/>
      <point x="240" y="1272" type="qcurve"/>
      <point x="236" y="1270" type="line"/>
      <point x="194" y="1366"/>
      <point x="79" y="1376"/>
      <point x="0" y="1376" type="qcurve" smooth="yes"/>
      <point x="-84" y="1376"/>
      <point x="-196" y="1366"/>
    </contour>
  </outline>
</glyph>
<glyph name="commaaccentturnedcomb" format="2">
	<unicode hex="0312"/>
	<outline>
		<contour>
			<point x="96" y="1662" type="line"/>
			<point x="78" y="1291" type="line"/>
			<point x="-115" y="1315" type="line"/>
			<point x="92" y="1663" type="line"/>
		</contour>
	</outline>
	<anchor name="_top" x="0" y="1052"/>
</glyph>
<glyph name="horncomb" format="2">
  <unicode hex="031B"/>
  <anchor x="0" y="1052" name="_topright"/>
  <anchor x="0" y="1293" name="topright"/>
  <outline>
    <contour>
      <point x="0" y="1052" type="line"/>
      <point x="84" y="1052" type="line" smooth="yes"/>
      <point x="132" y="1052"/>
      <point x="204" y="1086"/>
      <point x="204" y="1138" type="qcurve" smooth="yes"/>
      <point x="204" y="1184"/>
      <point x="191" y="1257"/>
      <point x="181" y="1293" type="qcurve"/>
      <point x="327" y="1293" type="line"/>
      <point x="347" y="1260"/>
      <point x="380" y="1157"/>
      <point x="380" y="1113" type="qcurve"/>
      <point x="380" y="1053"/>
      <point x="272" y="1024"/>
      <point x="144" y="1024" type="qcurve" smooth="yes"/>
      <point x="104" y="1024"/>
      <point x="29" y="1035"/>
      <point x="0" y="1045" type="qcurve"/>
    </contour>
  </outline>
</glyph>
<glyph name="dotbelowcomb" format="2">
  <unicode hex="0323"/>
  <anchor x="0" y="0" name="_bottom"/>
  <anchor x="0" y="-398" name="bottom"/>
  <outline>
    <contour>
      <point x="-116" y="-287" type="qcurve" smooth="yes"/>
      <point x="-116" y="-240"/>
      <point x="-56" y="-176"/>
      <point x="0" y="-176" type="qcurve" smooth="yes"/>
      <point x="56" y="-176"/>
      <point x="116" y="-240"/>
      <point x="116" y="-287" type="qcurve" smooth="yes"/>
      <point x="116" y="-334"/>
      <point x="56" y="-398"/>
      <point x="0" y="-398" type="qcurve" smooth="yes"/>
      <point x="-56" y="-398"/>
      <point x="-116" y="-334"/>
    </contour>
  </outline>
</glyph>
<glyph name="commaaccentcomb" format="2">
	<unicode hex="0326"/>
	<outline>
		<contour>
			<point x="-85" y="-599" type="line"/>
			<point x="-69" y="-225" type="line"/>
			<point x="133" y="-223" type="line"/>
			<point x="-81" y="-600" type="line"/>
		</contour>
	</outline>
	<anchor name="_bottom" x="0" y="0"/>
	<anchor name="bottom" x="0" y="-600"/>
</glyph>
<glyph name="cedillacomb" format="2">
  <unicode hex="0327"/>
  <anchor x="0" y="0" name="_bottom"/>
  <anchor x="0" y="-457" name="bottom"/>
  <outline>
    <contour>
      <point x="-72" y="20" type="line"/>
      <point x="57" y="20" type="line"/>
      <point x="29" y="-75" type="line"/>
      <point x="86" y="-85"/>
      <point x="212" y="-161"/>
      <point x="212" y="-248" type="qcurve" smooth="yes"/>
      <point x="212" y="-341"/>
      <point x="38" y="-457"/>
      <point x="-164" y="-457" type="qcurve"/>
      <point x="-164" y="-451" type="line"/>
      <point x="-71" y="-451"/>
      <point x="30" y="-347"/>
      <point x="30" y="-250" type="qcurve" smooth="yes"/>
      <point x="30" y="-171"/>
      <point x="-35" y="-80"/>
      <point x="-95" y="-75" type="qcurve"/>
    </contour>
  </outline>
</glyph>
<glyph name="ogonekcomb" format="2">
  <unicode hex="0328"/>
  <anchor x="88" y="0" name="_ogonek"/>
  <anchor x="21" y="-434" name="bottom"/>
  <outline>
    <contour>
      <point x="81" y="5" type="qcurve"/>
      <point x="88" y="0" type="line"/>
      <point x="26" y="-42"/>
      <point x="-49" y="-144"/>
      <point x="-49" y="-223" type="qcurve"/>
      <point x="-49" y="-318"/>
      <point x="9" y="-420"/>
      <point x="63" y="-420" type="qcurve"/>
      <point x="98" y="-420"/>
      <point x="149" y="-404"/>
      <point x="174" y="-388" type="qcurve"/>
      <point x="175" y="-390" type="line"/>
      <point x="152" y="-405"/>
      <point x="80" y="-434"/>
      <point x="21" y="-434" type="qcurve" smooth="yes"/>
      <point x="-83" y="-434"/>
      <point x="-208" y="-310"/>
      <point x="-208" y="-230" type="qcurve" smooth="yes"/>
      <point x="-208" y="-147"/>
      <point x="-33" y="-34"/>
    </contour>
  </outline>
</glyph>
<glyph name="brevebelowcomb" format="2">
  <unicode hex="032E"/>
  <anchor x="0" y="0" name="_bottom"/>
  <anchor x="0" y="-463" name="bottom"/>
  <outline>
    <contour>
      <point x="291" y="-127" type="qcurve"/>
      <point x="384" y="-197" type="line"/>
      <point x="345" y="-296"/>
      <point x="144" y="-463"/>
      <point x="0" y="-463" type="qcurve" smooth="yes"/>
      <point x="-128" y="-463"/>
      <point x="-345" y="-296"/>
      <point x="-384" y="-197" type="qcurve"/>
      <point x="-291" y="-127" type="line"/>
      <point x="-211" y="-300"/>
      <point x="-74" y="-456"/>
      <point x="0" y="-456" type="qcurve" smooth="yes"/>
      <point x="77" y="-456"/>
      <point x="215" y="-300"/>
    </contour>
  </outline>
</glyph>
<glyph name="macronbelowcomb" format="2">
  <unicode hex="0331"/>
  <anchor x="0" y="0" name="_bottom"/>
  <anchor x="0" y="-259" name="bottom"/>
  <outline>
    <contour>
      <point x="-296" y="-259" type="line"/>
      <point x="-296" y="-103" type="line"/>
      <point x="296" y="-103" type="line"/>
      <point x="296" y="-259" type="line"/>
    </contour>
  </outline>
</glyph>
<glyph name="Delta" format="2">
  <advance width="1256"/>
  <unicode hex="0394"/>
  <outline>
    <contour>
      <point x="29" y="0" type="line"/>
      <point x="29" y="7" type="line"/>
      <point x="542" y="1466" type="line"/>
      <point x="714" y="1466" type="line"/>
      <point x="1228" y="7" type="line"/>
      <point x="1228" y="0" type="line"/>
    </contour>
    <contour>
      <point x="221" y="7" type="line"/>
      <point x="1028" y="7" type="line"/>
      <point x="668" y="1100" type="line" smooth="yes"/>
      <point x="657" y="1133"/>
      <point x="638" y="1195"/>
      <point x="631" y="1228" type="qcurve"/>
      <point x="621" y="1228" type="line"/>
      <point x="614" y="1195"/>
      <point x="597" y="1133"/>
      <point x="584" y="1100" type="qcurve" smooth="yes"/>
    </contour>
  </outline>
</glyph>
<glyph name="Theta" format="2">
  <advance width="1460"/>
  <unicode hex="0398"/>
  <outline>
    <contour>
      <point x="730" y="-30" type="qcurve" smooth="yes"/>
      <point x="460" y="-30"/>
      <point x="115" y="346"/>
      <point x="115" y="682" type="qcurve" smooth="yes"/>
      <point x="115" y="774" type="line" smooth="yes"/>
      <point x="115" y="1110"/>
      <point x="460" y="1486"/>
      <point x="730" y="1486" type="qcurve" smooth="yes"/>
      <point x="1000" y="1486"/>
      <point x="1345" y="1110"/>
      <point x="1345" y="774" type="qcurve" smooth="yes"/>
      <point x="1345" y="682" type="line" smooth="yes"/>
      <point x="1345" y="346"/>
      <point x="1000" y="-30"/>
    </contour>
    <contour>
      <point x="730" y="-23" type="qcurve" smooth="yes"/>
      <point x="920" y="-23"/>
      <point x="1151" y="342"/>
      <point x="1151" y="669" type="qcurve" smooth="yes"/>
      <point x="1151" y="786" type="line" smooth="yes"/>
      <point x="1151" y="1112"/>
      <point x="920" y="1479"/>
      <point x="730" y="1479" type="qcurve" smooth="yes"/>
      <point x="540" y="1479"/>
      <point x="309" y="1112"/>
      <point x="309" y="786" type="qcurve" smooth="yes"/>
      <point x="309" y="669" type="line" smooth="yes"/>
      <point x="309" y="344"/>
      <point x="540" y="-23"/>
    </contour>
    <contour>
      <point x="468" y="742" type="line"/>
      <point x="468" y="749" type="line"/>
      <point x="992" y="749" type="line"/>
      <point x="992" y="742" type="line"/>
    </contour>
  </outline>
</glyph>
<glyph name="Xi" format="2">
	<unicode hex="039E"/>
	<advance width="1140"/>
	<outline>
		<contour>
			<point x="68" y="0" type="line"/>
			<point x="68" y="7" type="line"/>
			<point x="1072" y="7" type="line"/>
			<point x="1072" y="0" type="line"/>
		</contour>
		<contour>
			<point x="170" y="745" type="line"/>
			<point x="170" y="752" type="line"/>
			<point x="970" y="752" type="line"/>
			<point x="970" y="745" type="line"/>
		</contour>
		<contour>
			<point x="68" y="1449" type="line"/>
			<point x="68" y="1456" type="line"/>
			<point x="1072" y="1456" type="line"/>
			<point x="1072" y="1449" type="line"/>
		</contour>
	</outline>
</glyph>
<glyph name="Sigma" format="2">
  <advance width="1296"/>
  <unicode hex="03A3"/>
  <outline>
    <contour>
      <point x="79" y="0" type="line"/>
      <point x="79" y="7" type="line"/>
      <point x="676" y="748" type="line"/>
      <point x="676" y="702" type="line"/>
      <point x="65" y="1449" type="line"/>
      <point x="65" y="1456" type="line"/>
      <point x="1198" y="1456" type="line"/>
      <point x="1198" y="1449" type="line"/>
      <point x="284" y="1449" type="line"/>
      <point x="303" y="1454" type="line"/>
      <point x="882" y="756" type="line"/>
      <point x="882" y="716" type="line"/>
      <point x="309" y="4" type="line"/>
      <point x="290" y="7" type="line"/>
      <point x="1230" y="7" type="line"/>
      <point x="1230" y="0" type="line"/>
    </contour>
  </outline>
</glyph>
<glyph name="alpha" format="2">
  <advance width="1236"/>
  <unicode hex="03B1"/>
  <anchor x="550" y="1052" name="top"/>
  <outline>
    <contour>
      <point x="554" y="-20" type="qcurve" smooth="yes"/>
      <point x="325" y="-20"/>
      <point x="84" y="280"/>
      <point x="84" y="510" type="qcurve" smooth="yes"/>
      <point x="84" y="542" type="line" smooth="yes"/>
      <point x="84" y="772"/>
      <point x="324" y="1072"/>
      <point x="556" y="1072" type="qcurve" smooth="yes"/>
      <point x="732" y="1072"/>
      <point x="945" y="776"/>
      <point x="945" y="532" type="qcurve" smooth="yes"/>
      <point x="945" y="505" type="line" smooth="yes"/>
      <point x="945" y="282"/>
      <point x="725" y="-20"/>
    </contour>
    <contour>
      <point x="554" y="-13" type="qcurve" smooth="yes"/>
      <point x="706" y="-13"/>
      <point x="878" y="282"/>
      <point x="878" y="505" type="qcurve" smooth="yes"/>
      <point x="878" y="532" type="line" smooth="yes"/>
      <point x="878" y="776"/>
      <point x="725" y="1065"/>
      <point x="556" y="1065" type="qcurve" smooth="yes"/>
      <point x="415" y="1065"/>
      <point x="274" y="767"/>
      <point x="274" y="542" type="qcurve" smooth="yes"/>
      <point x="274" y="510" type="line" smooth="yes"/>
      <point x="274" y="285"/>
      <point x="415" y="-13"/>
    </contour>
    <contour>
      <point x="1076" y="-30" type="qcurve" smooth="yes"/>
      <point x="979" y="-30"/>
      <point x="866" y="53"/>
      <point x="852" y="145" type="qcurve"/>
      <point x="836" y="145" type="line"/>
      <point x="836" y="915" type="line"/>
      <point x="851" y="915" type="line"/>
      <point x="859" y="1052" type="line"/>
      <point x="1022" y="1052" type="line"/>
      <point x="1022" y="262" type="line" smooth="yes"/>
      <point x="1022" y="58"/>
      <point x="1056" y="-24"/>
      <point x="1095" y="-24" type="qcurve" smooth="yes"/>
      <point x="1119" y="-24"/>
      <point x="1168" y="-10"/>
      <point x="1186" y="-2" type="qcurve"/>
      <point x="1186" y="-8" type="line"/>
      <point x="1167" y="-17"/>
      <point x="1100" y="-30"/>
    </contour>
  </outline>
</glyph>
<glyph name="beta" format="2">
	<unicode hex="03B2"/>
	<advance width="1190"/>
	<outline>
		<contour>
			<point x="148" y="-416" type="line"/>
			<point x="148" y="1058" type="line" smooth="yes"/>
			<point x="148" y="1311"/>
			<point x="397" y="1556"/>
			<point x="595" y="1556" type="qcurve" smooth="yes"/>
			<point x="798" y="1556"/>
			<point x="1014" y="1350"/>
			<point x="1014" y="1155" type="qcurve"/>
			<point x="1014" y="1026"/>
			<point x="868" y="848"/>
			<point x="710" y="833" type="qcurve"/>
			<point x="710" y="839" type="line"/>
			<point x="906" y="830"/>
			<point x="1105" y="636"/>
			<point x="1105" y="463" type="qcurve" smooth="yes"/>
			<point x="1105" y="243"/>
			<point x="835" y="-21"/>
			<point x="633" y="-21" type="qcurve" smooth="yes"/>
			<point x="498" y="-21"/>
			<point x="295" y="147"/>
			<point x="238" y="254" type="qcurve"/>
			<point x="238" y="373" type="line"/>
			<point x="310" y="177"/>
			<point x="500" y="-14"/>
			<point x="633" y="-14" type="qcurve" smooth="yes"/>
			<point x="770" y="-14"/>
			<point x="916" y="244"/>
			<point x="916" y="462" type="qcurve" smooth="yes"/>
			<point x="916" y="641"/>
			<point x="737" y="833"/>
			<point x="570" y="833" type="qcurve" smooth="yes"/>
			<point x="472" y="833" type="line"/>
			<point x="472" y="840" type="line"/>
			<point x="571" y="840" type="line" smooth="yes"/>
			<point x="697" y="840"/>
			<point x="839" y="987"/>
			<point x="839" y="1156" type="qcurve" smooth="yes"/>
			<point x="839" y="1348"/>
			<point x="713" y="1549"/>
			<point x="595" y="1549" type="qcurve" smooth="yes"/>
			<point x="470" y="1549"/>
			<point x="334" y="1302"/>
			<point x="334" y="1065" type="qcurve" smooth="yes"/>
			<point x="334" y="-416" type="line"/>
		</contour>
	</outline>
</glyph>
<glyph name="delta" format="2">
  <advance width="1142"/>
  <unicode hex="03B4"/>
  <outline>
    <contour>
      <point x="561" y="-30" type="qcurve" smooth="yes"/>
      <point x="337" y="-30"/>
      <point x="85" y="231"/>
      <point x="85" y="439" type="qcurve" smooth="yes"/>
      <point x="85" y="469" type="line" smooth="yes"/>
      <point x="85" y="679"/>
      <point x="349" y="932"/>
      <point x="564" y="953" type="qcurve"/>
      <point x="569" y="951" type="line"/>
      <point x="389" y="889"/>
      <point x="274" y="678"/>
      <point x="274" y="492" type="qcurve" smooth="yes"/>
      <point x="274" y="472" type="line" smooth="yes"/>
      <point x="274" y="231"/>
      <point x="429" y="-23"/>
      <point x="561" y="-23" type="qcurve" smooth="yes"/>
      <point x="693" y="-23"/>
      <point x="868" y="229"/>
      <point x="868" y="482" type="qcurve" smooth="yes"/>
      <point x="868" y="501" type="line" smooth="yes"/>
      <point x="868" y="674"/>
      <point x="742" y="839"/>
      <point x="604" y="914" type="qcurve" smooth="yes"/>
      <point x="431" y="1008"/>
      <point x="270" y="1078"/>
      <point x="270" y="1166" type="qcurve" smooth="yes"/>
      <point x="270" y="1303"/>
      <point x="481" y="1476"/>
      <point x="673" y="1476" type="qcurve" smooth="yes"/>
      <point x="773" y="1476"/>
      <point x="918" y="1438"/>
      <point x="979" y="1407" type="qcurve"/>
      <point x="975" y="1400" type="line"/>
      <point x="913" y="1430"/>
      <point x="759" y="1469"/>
      <point x="673" y="1469" type="qcurve" smooth="yes"/>
      <point x="562" y="1469"/>
      <point x="454" y="1300"/>
      <point x="454" y="1171" type="qcurve" smooth="yes"/>
      <point x="454" y="1066"/>
      <point x="521" y="967"/>
      <point x="608" y="920" type="qcurve" smooth="yes"/>
      <point x="845" y="792"/>
      <point x="1057" y="644"/>
      <point x="1057" y="495" type="qcurve" smooth="yes"/>
      <point x="1057" y="466" type="line" smooth="yes"/>
      <point x="1057" y="229"/>
      <point x="773" y="-30"/>
    </contour>
  </outline>
</glyph>
<glyph name="epsilon" format="2">
  <advance width="1078"/>
  <unicode hex="03B5"/>
  <anchor x="573" y="1052" name="top"/>
  <outline>
    <contour>
      <point x="543" y="-30" type="qcurve"/>
      <point x="327" y="-30"/>
      <point x="99" y="133"/>
      <point x="99" y="286" type="qcurve" smooth="yes"/>
      <point x="99" y="380"/>
      <point x="232" y="524"/>
      <point x="376" y="529" type="qcurve"/>
      <point x="376" y="527" type="line"/>
      <point x="262" y="531"/>
      <point x="138" y="658"/>
      <point x="138" y="756" type="qcurve" smooth="yes"/>
      <point x="138" y="906"/>
      <point x="363" y="1081"/>
      <point x="573" y="1081" type="qcurve" smooth="yes"/>
      <point x="796" y="1081"/>
      <point x="1014" y="858"/>
      <point x="1014" y="710" type="qcurve"/>
      <point x="834" y="710" type="line"/>
      <point x="834" y="858"/>
      <point x="705" y="1074"/>
      <point x="573" y="1074" type="qcurve" smooth="yes"/>
      <point x="456" y="1074"/>
      <point x="327" y="902"/>
      <point x="327" y="755" type="qcurve" smooth="yes"/>
      <point x="327" y="647"/>
      <point x="422" y="531"/>
      <point x="509" y="531" type="qcurve" smooth="yes"/>
      <point x="719" y="531" type="line"/>
      <point x="719" y="524" type="line"/>
      <point x="509" y="524" type="line" smooth="yes"/>
      <point x="403" y="524"/>
      <point x="289" y="405"/>
      <point x="289" y="296" type="qcurve" smooth="yes"/>
      <point x="289" y="137"/>
      <point x="425" y="-23"/>
      <point x="553" y="-23" type="qcurve" smooth="yes"/>
      <point x="679" y="-23"/>
      <point x="833" y="190"/>
      <point x="833" y="342" type="qcurve"/>
      <point x="1013" y="342" type="line"/>
      <point x="1013" y="191"/>
      <point x="760" y="-30"/>
    </contour>
  </outline>
</glyph>
<glyph name="zeta" format="2">
  <advance width="539"/>
  <unicode hex="03B6"/>
  <guideline x="809" y="291" angle="90" identifier="Hhem4nGbLg"/>
  <guideline x="856" y="823" angle="90" identifier="UwRnHAo0ZQ"/>
  <outline>
    <contour>
      <point x="436" y="-348" type="line"/>
      <point x="459" y="-295"/>
      <point x="490" y="-194"/>
      <point x="490" y="-144" type="qcurve" smooth="yes"/>
      <point x="490" y="-55"/>
      <point x="429" y="47"/>
      <point x="343" y="68" type="qcurve" smooth="yes"/>
      <point x="230" y="95" type="line" smooth="yes"/>
      <point x="134" y="118"/>
      <point x="65" y="256"/>
      <point x="65" y="352" type="qcurve"/>
      <point x="65" y="450"/>
      <point x="135" y="619"/>
      <point x="319" y="969" type="qcurve" smooth="yes"/>
      <point x="572" y="1449" type="line"/>
      <point x="572" y="1449" type="line"/>
      <point x="101" y="1449" type="line"/>
      <point x="101" y="1456" type="line"/>
      <point x="579" y="1456" type="line"/>
      <point x="579" y="1449" type="line"/>
      <point x="324" y="965" type="line" smooth="yes"/>
      <point x="132" y="601"/>
      <point x="72" y="447"/>
      <point x="72" y="352" type="qcurve"/>
      <point x="72" y="259"/>
      <point x="138" y="122"/>
      <point x="239" y="98" type="qcurve" smooth="yes"/>
      <point x="345" y="73" type="line" smooth="yes"/>
      <point x="526" y="30"/>
      <point x="668" y="-62"/>
      <point x="668" y="-143" type="qcurve" smooth="yes"/>
      <point x="668" y="-200"/>
      <point x="633" y="-297"/>
      <point x="606" y="-348" type="qcurve"/>
    </contour>
  </outline>
</glyph>
<glyph name="eta" format="2">
  <advance width="1138"/>
  <unicode hex="03B7"/>
  <anchor x="569" y="0" name="bottom"/>
  <anchor x="595" y="1052" name="top"/>
  <outline>
    <contour>
      <point x="148" y="0" type="line"/>
      <point x="148" y="1052" type="line"/>
      <point x="316" y="1052" type="line"/>
      <point x="334" y="972" type="line"/>
      <point x="334" y="0" type="line"/>
    </contour>
    <contour>
      <point x="241" y="878" type="qcurve"/>
      <point x="241" y="887" type="line"/>
      <point x="305" y="974"/>
      <point x="519" y="1072"/>
      <point x="652" y="1072" type="qcurve" smooth="yes"/>
      <point x="811" y="1072"/>
      <point x="1000" y="891"/>
      <point x="1000" y="679" type="qcurve" smooth="yes"/>
      <point x="1000" y="-416" type="line"/>
      <point x="814" y="-416" type="line"/>
      <point x="814" y="681" type="line" smooth="yes"/>
      <point x="814" y="887"/>
      <point x="755" y="1065"/>
      <point x="597" y="1065" type="qcurve" smooth="yes"/>
      <point x="519" y="1065"/>
      <point x="311" y="965"/>
    </contour>
  </outline>
</glyph>
<glyph name="theta" format="2">
	<unicode hex="03B8"/>
	<advance width="1143"/>
	<outline>
		<contour>
			<point x="573" y="-30" type="qcurve" smooth="yes"/>
			<point x="354" y="-30"/>
			<point x="95" y="284"/>
			<point x="95" y="654" type="qcurve" smooth="yes"/>
			<point x="95" y="882" type="line" smooth="yes"/>
			<point x="95" y="1242"/>
			<point x="352" y="1556"/>
			<point x="571" y="1556" type="qcurve" smooth="yes"/>
			<point x="792" y="1556"/>
			<point x="1048" y="1242"/>
			<point x="1048" y="882" type="qcurve" smooth="yes"/>
			<point x="1048" y="654" type="line" smooth="yes"/>
			<point x="1048" y="284"/>
			<point x="794" y="-30"/>
		</contour>
		<contour>
			<point x="573" y="-23" type="qcurve" smooth="yes"/>
			<point x="704" y="-23"/>
			<point x="857" y="293"/>
			<point x="857" y="654" type="qcurve" smooth="yes"/>
			<point x="857" y="882" type="line" smooth="yes"/>
			<point x="857" y="1237"/>
			<point x="703" y="1549"/>
			<point x="571" y="1549" type="qcurve" smooth="yes"/>
			<point x="440" y="1549"/>
			<point x="286" y="1237"/>
			<point x="286" y="882" type="qcurve" smooth="yes"/>
			<point x="286" y="654" type="line" smooth="yes"/>
			<point x="286" y="293"/>
			<point x="441" y="-23"/>
		</contour>
		<contour>
			<point x="190" y="751" type="line"/>
			<point x="190" y="758" type="line"/>
			<point x="953" y="758" type="line"/>
			<point x="953" y="751" type="line"/>
		</contour>
	</outline>
</glyph>
<glyph name="iota" format="2">
	<unicode hex="03B9"/>
	<advance width="600"/>
	<outline>
		<contour>
			<point x="390" y="-30" type="qcurve" smooth="yes"/>
			<point x="275" y="-30"/>
			<point x="138" y="110"/>
			<point x="138" y="260" type="qcurve" smooth="yes"/>
			<point x="138" y="1052" type="line"/>
			<point x="324" y="1052" type="line"/>
			<point x="324" y="260" type="line" smooth="yes"/>
			<point x="324" y="118"/>
			<point x="366" y="-23"/>
			<point x="440" y="-23" type="qcurve" smooth="yes"/>
			<point x="463" y="-23"/>
			<point x="522" y="-5"/>
			<point x="550" y="7" type="qcurve"/>
			<point x="550" y="0" type="line"/>
			<point x="524" y="-12"/>
			<point x="440" y="-30"/>
		</contour>
	</outline>
	<anchor name="top" x="235" y="1052"/>
</glyph>
<glyph name="kappa" format="2">
  <advance width="1043"/>
  <unicode hex="03BA"/>
  <outline>
    <contour>
      <point x="829" y="0" type="line"/>
      <point x="410" y="477" type="line"/>
      <point x="525" y="603" type="line"/>
      <point x="1058" y="0" type="line"/>
    </contour>
    <contour>
      <point x="235" y="481" type="line"/>
      <point x="412" y="481" type="line"/>
      <point x="916" y="1052" type="line"/>
      <point x="926" y="1052" type="line"/>
      <point x="413" y="474" type="line"/>
      <point x="235" y="474" type="line"/>
    </contour>
    <contour>
      <point x="334" y="1052" type="line"/>
      <point x="334" y="0" type="line"/>
      <point x="149" y="0" type="line"/>
      <point x="149" y="1052" type="line"/>
    </contour>
  </outline>
</glyph>
<glyph name="lambda" format="2">
  <advance width="961"/>
  <unicode hex="03BB"/>
  <outline>
    <contour>
      <point x="0" y="0" type="line"/>
      <point x="403" y="1048" type="line"/>
      <point x="381" y="1110" type="line" smooth="yes"/>
      <point x="293" y="1359"/>
      <point x="226" y="1469"/>
      <point x="164" y="1469" type="qcurve" smooth="yes"/>
      <point x="136" y="1469"/>
      <point x="91" y="1460"/>
      <point x="65" y="1450" type="qcurve"/>
      <point x="65" y="1456" type="line"/>
      <point x="93" y="1466"/>
      <point x="142" y="1476"/>
      <point x="164" y="1476" type="qcurve" smooth="yes"/>
      <point x="319" y="1476"/>
      <point x="462" y="1360"/>
      <point x="502" y="1252" type="qcurve" smooth="yes"/>
      <point x="961" y="0" type="line"/>
      <point x="761" y="0" type="line"/>
      <point x="539" y="637" type="line" smooth="yes"/>
      <point x="519" y="693"/>
      <point x="503" y="757"/>
      <point x="491" y="808" type="qcurve"/>
      <point x="485" y="808" type="line"/>
      <point x="474" y="759"/>
      <point x="452" y="679"/>
      <point x="436" y="637" type="qcurve" smooth="yes"/>
      <point x="200" y="0" type="line"/>
    </contour>
  </outline>
</glyph>
<glyph name="mu" format="2">
  <advance width="1206"/>
  <unicode hex="03BC"/>
  <outline>
    <contour>
      <point x="148" y="-416" type="line"/>
      <point x="148" y="1052" type="line"/>
      <point x="334" y="1052" type="line"/>
      <point x="334" y="-416" type="line"/>
    </contour>
    <contour>
      <point x="256" y="227" type="line"/>
      <point x="308" y="104"/>
      <point x="460" y="-12"/>
      <point x="566" y="-12" type="qcurve" smooth="yes"/>
      <point x="673" y="-12"/>
      <point x="814" y="117"/>
      <point x="814" y="194" type="qcurve" smooth="yes"/>
      <point x="814" y="1052" type="line"/>
      <point x="1000" y="1052" type="line"/>
      <point x="1000" y="194" type="line" smooth="yes"/>
      <point x="1000" y="85"/>
      <point x="1041" y="-10"/>
      <point x="1091" y="-10" type="qcurve" smooth="yes"/>
      <point x="1105" y="-10"/>
      <point x="1149" y="5"/>
      <point x="1164" y="12" type="qcurve"/>
      <point x="1164" y="5" type="line"/>
      <point x="1145" y="-4"/>
      <point x="1090" y="-17"/>
      <point x="1054" y="-17" type="qcurve" smooth="yes"/>
      <point x="955" y="-17"/>
      <point x="845" y="59"/>
      <point x="830" y="130" type="qcurve"/>
      <point x="824" y="130" type="line"/>
      <point x="788" y="68"/>
      <point x="654" y="-20"/>
      <point x="566" y="-20" type="qcurve" smooth="yes"/>
      <point x="466" y="-20"/>
      <point x="311" y="91"/>
      <point x="256" y="194" type="qcurve"/>
    </contour>
  </outline>
</glyph>
<glyph name="pi" format="2">
  <advance width="1184"/>
  <unicode hex="03C0"/>
  <outline>
    <contour>
      <point x="0" y="1045" type="line"/>
      <point x="0" y="1052" type="line"/>
      <point x="1134" y="1052" type="line"/>
      <point x="1134" y="1045" type="line"/>
    </contour>
    <contour>
      <point x="166" y="0" type="line"/>
      <point x="166" y="1048" type="line"/>
      <point x="352" y="1048" type="line"/>
      <point x="352" y="0" type="line"/>
    </contour>
    <contour>
      <point x="1016" y="-30" type="qcurve" smooth="yes"/>
      <point x="901" y="-30"/>
      <point x="781" y="89"/>
      <point x="781" y="240" type="qcurve"/>
      <point x="781" y="1048" type="line"/>
      <point x="967" y="1048" type="line"/>
      <point x="967" y="279" type="line"/>
      <point x="967" y="124"/>
      <point x="1013" y="-15"/>
      <point x="1064" y="-15" type="qcurve"/>
      <point x="1078" y="-15"/>
      <point x="1120" y="-6"/>
      <point x="1131" y="-1" type="qcurve"/>
      <point x="1131" y="-8" type="line"/>
      <point x="1113" y="-17"/>
      <point x="1054" y="-30"/>
    </contour>
  </outline>
</glyph>
<glyph name="rho" format="2">
  <advance width="1170"/>
  <unicode hex="03C1"/>
  <outline>
    <contour>
      <point x="148" y="-416" type="line"/>
      <point x="148" y="541" type="line" smooth="yes"/>
      <point x="148" y="788"/>
      <point x="398" y="1072"/>
      <point x="615" y="1072" type="qcurve" smooth="yes"/>
      <point x="855" y="1072"/>
      <point x="1085" y="782"/>
      <point x="1085" y="552" type="qcurve" smooth="yes"/>
      <point x="1085" y="520" type="line" smooth="yes"/>
      <point x="1085" y="290"/>
      <point x="845" y="-20"/>
      <point x="645" y="-20" type="qcurve" smooth="yes"/>
      <point x="507" y="-20"/>
      <point x="327" y="106"/>
      <point x="242" y="263" type="qcurve"/>
      <point x="242" y="511" type="line"/>
      <point x="329" y="259"/>
      <point x="517" y="-11"/>
      <point x="605" y="-11" type="qcurve" smooth="yes"/>
      <point x="745" y="-11"/>
      <point x="895" y="264"/>
      <point x="895" y="520" type="qcurve" smooth="yes"/>
      <point x="895" y="552" type="line" smooth="yes"/>
      <point x="895" y="799"/>
      <point x="750" y="1065"/>
      <point x="615" y="1065" type="qcurve" smooth="yes"/>
      <point x="480" y="1065"/>
      <point x="334" y="796"/>
      <point x="334" y="546" type="qcurve" smooth="yes"/>
      <point x="334" y="-416" type="line"/>
    </contour>
  </outline>
</glyph>
<glyph name="sigma" format="2">
  <advance width="1227"/>
  <unicode hex="03C3"/>
  <outline>
    <contour>
      <point x="581" y="-30" type="qcurve" smooth="yes"/>
      <point x="355" y="-30"/>
      <point x="85" y="250"/>
      <point x="85" y="481" type="qcurve" smooth="yes"/>
      <point x="85" y="512" type="line" smooth="yes"/>
      <point x="85" y="740"/>
      <point x="383" y="1052"/>
      <point x="690" y="1052" type="qcurve"/>
      <point x="1177" y="1052" type="line"/>
      <point x="1177" y="1046" type="line"/>
      <point x="696" y="1046" type="line"/>
      <point x="696" y="1048" type="line"/>
      <point x="880" y="998"/>
      <point x="1077" y="728"/>
      <point x="1077" y="526" type="qcurve" smooth="yes"/>
      <point x="1077" y="495" type="line" smooth="yes"/>
      <point x="1077" y="264"/>
      <point x="807" y="-30"/>
    </contour>
    <contour>
      <point x="581" y="-23" type="qcurve" smooth="yes"/>
      <point x="728" y="-23"/>
      <point x="887" y="245"/>
      <point x="887" y="495" type="qcurve" smooth="yes"/>
      <point x="887" y="526" type="line" smooth="yes"/>
      <point x="887" y="739"/>
      <point x="785" y="1008"/>
      <point x="691" y="1045" type="qcurve"/>
      <point x="491" y="1051"/>
      <point x="275" y="780"/>
      <point x="275" y="522" type="qcurve" smooth="yes"/>
      <point x="275" y="491" type="line" smooth="yes"/>
      <point x="275" y="243"/>
      <point x="434" y="-23"/>
    </contour>
  </outline>
</glyph>
<glyph name="tau" format="2">
  <advance width="820"/>
  <unicode hex="03C4"/>
  <outline>
    <contour>
      <point x="0" y="1045" type="line"/>
      <point x="0" y="1052" type="line"/>
      <point x="770" y="1052" type="line"/>
      <point x="770" y="1045" type="line"/>
    </contour>
    <contour>
      <point x="530" y="-30" type="qcurve" smooth="yes"/>
      <point x="415" y="-30"/>
      <point x="278" y="110"/>
      <point x="278" y="260" type="qcurve" smooth="yes"/>
      <point x="278" y="1049" type="line"/>
      <point x="464" y="1049" type="line"/>
      <point x="464" y="260" type="line" smooth="yes"/>
      <point x="464" y="115"/>
      <point x="519" y="-15"/>
      <point x="580" y="-15" type="qcurve" smooth="yes"/>
      <point x="608" y="-15"/>
      <point x="662" y="-3"/>
      <point x="690" y="7" type="qcurve"/>
      <point x="690" y="0" type="line"/>
      <point x="664" y="-12"/>
      <point x="580" y="-30"/>
    </contour>
  </outline>
</glyph>
<glyph name="phi" format="2">
  <advance width="1448"/>
  <unicode hex="03C6"/>
  <outline>
    <contour>
      <point x="631" y="-416" type="line"/>
      <point x="631" y="45" type="line"/>
      <point x="631" y="89" type="line"/>
      <point x="631" y="981" type="line"/>
      <point x="631" y="1022" type="line"/>
      <point x="631" y="1536" type="line"/>
      <point x="817" y="1536" type="line"/>
      <point x="817" y="1022" type="line"/>
      <point x="817" y="979" type="line"/>
      <point x="817" y="85" type="line"/>
      <point x="817" y="45" type="line"/>
      <point x="817" y="-416" type="line"/>
    </contour>
    <contour>
      <point x="631" y="-30" type="line"/>
      <point x="362" y="-20"/>
      <point x="85" y="267"/>
      <point x="85" y="510" type="qcurve" smooth="yes"/>
      <point x="85" y="542" type="line" smooth="yes"/>
      <point x="85" y="785"/>
      <point x="362" y="1072"/>
      <point x="631" y="1082" type="qcurve"/>
      <point x="817" y="1082" type="line"/>
      <point x="1086" y="1072"/>
      <point x="1363" y="785"/>
      <point x="1363" y="542" type="qcurve" smooth="yes"/>
      <point x="1363" y="510" type="line" smooth="yes"/>
      <point x="1363" y="267"/>
      <point x="1086" y="-20"/>
      <point x="817" y="-30" type="qcurve"/>
    </contour>
    <contour>
      <point x="631" y="-23" type="qcurve"/>
      <point x="817" y="-23" type="line"/>
      <point x="989" y="-14"/>
      <point x="1173" y="262"/>
      <point x="1173" y="510" type="qcurve" smooth="yes"/>
      <point x="1173" y="542" type="line" smooth="yes"/>
      <point x="1173" y="790"/>
      <point x="989" y="1066"/>
      <point x="817" y="1075" type="qcurve"/>
      <point x="631" y="1075" type="line"/>
      <point x="459" y="1066"/>
      <point x="275" y="790"/>
      <point x="275" y="542" type="qcurve" smooth="yes"/>
      <point x="275" y="510" type="line" smooth="yes"/>
      <point x="275" y="262"/>
      <point x="459" y="-14"/>
    </contour>
  </outline>
</glyph>
<glyph name="Kaisymbol" format="2">
  <advance width="1266"/>
  <unicode hex="03CF"/>
  <outline>
    <contour>
      <point x="170" y="0" type="line"/>
      <point x="170" y="1456" type="line"/>
      <point x="362" y="1456" type="line"/>
      <point x="362" y="0" type="line"/>
    </contour>
    <contour>
      <point x="266" y="492" type="line"/>
      <point x="266" y="508" type="line"/>
      <point x="1139" y="1456" type="line"/>
      <point x="1155" y="1456" type="line"/>
      <point x="507" y="752" type="line"/>
    </contour>
    <contour>
      <point x="1124" y="-99" type="line"/>
      <point x="493" y="746" type="line"/>
      <point x="617" y="881" type="line"/>
      <point x="1278" y="14" type="line"/>
      <point x="527" y="-590" type="line"/>
      <point x="522" y="-584" type="line"/>
    </contour>
  </outline>
</glyph>
<glyph name="kaisymbol" format="2">
	<unicode hex="03D7"/>
	<advance width="1043"/>
	<outline>
		<contour>
			<point x="147" y="0" type="line"/>
			<point x="147" y="1052" type="line"/>
			<point x="332" y="1052" type="line"/>
			<point x="332" y="0" type="line"/>
		</contour>
		<contour>
			<point x="252" y="535" type="line"/>
			<point x="252" y="541" type="line"/>
			<point x="447" y="541" type="line"/>
			<point x="898" y="1052" type="line"/>
			<point x="905" y="1052" type="line"/>
			<point x="517" y="614" type="line"/>
			<point x="1030" y="34" type="line"/>
			<point x="377" y="-530" type="line"/>
			<point x="372" y="-525" type="line"/>
			<point x="895" y="-75" type="line"/>
			<point x="360" y="535" type="line"/>
		</contour>
	</outline>
</glyph>
<glyph name="Dje" format="2">
	<unicode hex="0402"/>
	<advance width="1616"/>
	<outline>
		<contour>
			<point x="472" y="0" type="line"/>
			<point x="472" y="1453" type="line"/>
			<point x="664" y="1453" type="line"/>
			<point x="664" y="0" type="line"/>
		</contour>
		<contour>
			<point x="1107" y="0" type="line"/>
			<point x="1107" y="7" type="line"/>
			<point x="1115" y="7" type="line" smooth="yes"/>
			<point x="1239" y="7"/>
			<point x="1319" y="241"/>
			<point x="1319" y="407" type="qcurve" smooth="yes"/>
			<point x="1319" y="423" type="line" smooth="yes"/>
			<point x="1319" y="585"/>
			<point x="1170" y="843"/>
			<point x="942" y="843" type="qcurve" smooth="yes"/>
			<point x="833" y="843"/>
			<point x="661" y="822"/>
			<point x="568" y="800" type="qcurve"/>
			<point x="568" y="807" type="line"/>
			<point x="660" y="829"/>
			<point x="838" y="850"/>
			<point x="942" y="850" type="qcurve" smooth="yes"/>
			<point x="1255" y="850"/>
			<point x="1511" y="624"/>
			<point x="1511" y="432" type="qcurve" smooth="yes"/>
			<point x="1511" y="409" type="line" smooth="yes"/>
			<point x="1511" y="235"/>
			<point x="1312" y="0"/>
			<point x="1115" y="0" type="qcurve" smooth="yes"/>
		</contour>
		<contour>
			<point x="24" y="1449" type="line"/>
			<point x="24" y="1456" type="line"/>
			<point x="1152" y="1456" type="line"/>
			<point x="1152" y="1449" type="line"/>
		</contour>
	</outline>
	<guideline x="568" y="625" angle="90" identifier="YDADns81zF"/>
</glyph>
<glyph name="Ieukran" format="2">
  <advance width="1359"/>
  <unicode hex="0404"/>
  <guideline x="211" y="787" angle="90" identifier="mFTeE97JTj"/>
  <outline>
    <contour>
      <point x="720" y="-30" type="qcurve" smooth="yes"/>
      <point x="460" y="-30"/>
      <point x="115" y="346"/>
      <point x="115" y="682" type="qcurve" smooth="yes"/>
      <point x="115" y="774" type="line" smooth="yes"/>
      <point x="115" y="1110"/>
      <point x="460" y="1486"/>
      <point x="720" y="1486" type="qcurve" smooth="yes"/>
      <point x="980" y="1486"/>
      <point x="1275" y="1201"/>
      <point x="1275" y="1000" type="qcurve" smooth="yes"/>
      <point x="1275" y="990" type="line"/>
      <point x="1083" y="990" type="line"/>
      <point x="1083" y="1000" type="line" smooth="yes"/>
      <point x="1083" y="1231"/>
      <point x="895" y="1479"/>
      <point x="720" y="1479" type="qcurve" smooth="yes"/>
      <point x="522" y="1479"/>
      <point x="309" y="1126"/>
      <point x="309" y="797" type="qcurve" smooth="yes"/>
      <point x="309" y="674" type="line" smooth="yes"/>
      <point x="309" y="338"/>
      <point x="522" y="-23"/>
      <point x="720" y="-23" type="qcurve" smooth="yes"/>
      <point x="871" y="-23"/>
      <point x="1058" y="225"/>
      <point x="1082" y="456" type="qcurve" smooth="yes"/>
      <point x="1083" y="466" type="line"/>
      <point x="1275" y="466" type="line"/>
      <point x="1274" y="456" type="line" smooth="yes"/>
      <point x="1254" y="256"/>
      <point x="980" y="-30"/>
    </contour>
    <contour>
      <point x="212" y="749" type="line"/>
      <point x="212" y="756" type="line"/>
      <point x="936" y="756" type="line"/>
      <point x="936" y="749" type="line"/>
    </contour>
  </outline>
</glyph>
<glyph name="Lje" format="2">
  <advance width="2036"/>
  <unicode hex="0409"/>
  <outline>
    <contour>
      <point x="119" y="-30" type="qcurve" smooth="yes"/>
      <point x="95" y="-30"/>
      <point x="39" y="-23"/>
      <point x="10" y="-13" type="qcurve"/>
      <point x="10" y="-6" type="line"/>
      <point x="34" y="-14"/>
      <point x="74" y="-19"/>
      <point x="95" y="-19" type="qcurve" smooth="yes"/>
      <point x="197" y="-19"/>
      <point x="277" y="336"/>
      <point x="290" y="575" type="qcurve" smooth="yes"/>
      <point x="339" y="1456" type="line"/>
      <point x="1198" y="1456" type="line"/>
      <point x="1198" y="7" type="line"/>
      <point x="1488" y="7" type="line" smooth="yes"/>
      <point x="1635" y="7"/>
      <point x="1794" y="234"/>
      <point x="1794" y="445" type="qcurve" smooth="yes"/>
      <point x="1794" y="654"/>
      <point x="1635" y="879"/>
      <point x="1488" y="879" type="qcurve" smooth="yes"/>
      <point x="1108" y="879" type="line"/>
      <point x="1108" y="886" type="line"/>
      <point x="1488" y="886" type="line" smooth="yes"/>
      <point x="1728" y="886"/>
      <point x="1986" y="645"/>
      <point x="1986" y="445" type="qcurve" smooth="yes"/>
      <point x="1986" y="245"/>
      <point x="1728" y="0"/>
      <point x="1488" y="0" type="qcurve" smooth="yes"/>
      <point x="1006" y="0" type="line"/>
      <point x="1006" y="1449" type="line"/>
      <point x="518" y="1449" type="line"/>
      <point x="468" y="542" type="line" smooth="yes"/>
      <point x="452" y="258"/>
      <point x="313" y="-30"/>
    </contour>
  </outline>
</glyph>
<glyph name="Nje" format="2">
  <advance width="2026"/>
  <unicode hex="040A"/>
  <outline>
    <contour>
      <point x="170" y="0" type="line"/>
      <point x="362" y="0" type="line"/>
      <point x="362" y="1456" type="line"/>
      <point x="170" y="1456" type="line"/>
    </contour>
    <contour>
      <point x="996" y="0" type="line"/>
      <point x="1478" y="0" type="line" smooth="yes"/>
      <point x="1718" y="0"/>
      <point x="1976" y="241"/>
      <point x="1976" y="437" type="qcurve" smooth="yes"/>
      <point x="1976" y="595"/>
      <point x="1718" y="764"/>
      <point x="1478" y="763" type="qcurve" smooth="yes"/>
      <point x="1117" y="763" type="line"/>
      <point x="1117" y="756" type="line"/>
      <point x="1478" y="756" type="line" smooth="yes"/>
      <point x="1625" y="756"/>
      <point x="1784" y="591"/>
      <point x="1784" y="437" type="qcurve" smooth="yes"/>
      <point x="1784" y="230"/>
      <point x="1625" y="7"/>
      <point x="1478" y="7" type="qcurve" smooth="yes"/>
      <point x="1188" y="7" type="line"/>
      <point x="1188" y="1456" type="line"/>
      <point x="996" y="1456" type="line"/>
    </contour>
    <contour>
      <point x="272" y="756" type="line"/>
      <point x="1085" y="756" type="line"/>
      <point x="1085" y="763" type="line"/>
      <point x="272" y="763" type="line"/>
    </contour>
  </outline>
</glyph>
<glyph name="Zhe" format="2">
	<unicode hex="0416"/>
	<advance width="1790"/>
	<outline>
		<contour>
			<point x="796" y="0" type="line"/>
			<point x="796" y="1456" type="line"/>
			<point x="984" y="1456" type="line"/>
			<point x="984" y="0" type="line"/>
		</contour>
		<contour>
			<point x="1582" y="0" type="line"/>
			<point x="983" y="823" type="line"/>
			<point x="1206" y="823" type="line"/>
			<point x="1810" y="0" type="line"/>
		</contour>
		<contour>
			<point x="890" y="830" type="line"/>
			<point x="1092" y="830" type="line"/>
			<point x="1549" y="1456" type="line"/>
			<point x="1556" y="1456" type="line"/>
			<point x="1095" y="823" type="line"/>
			<point x="890" y="823" type="line"/>
		</contour>
		<contour>
			<point x="-20" y="0" type="line"/>
			<point x="584" y="823" type="line"/>
			<point x="798" y="823" type="line"/>
			<point x="200" y="0" type="line"/>
		</contour>
		<contour>
			<point x="890" y="830" type="line"/>
			<point x="890" y="823" type="line"/>
			<point x="686" y="823" type="line"/>
			<point x="224" y="1456" type="line"/>
			<point x="231" y="1456" type="line"/>
			<point x="689" y="830" type="line"/>
		</contour>
	</outline>
	<anchor name="top" x="891" y="1456"/>
	<anchor name="cy_descender" x="1584" y="0"/>
</glyph>
<glyph name="Ze" format="2">
  <advance width="1260"/>
  <unicode hex="0417"/>
  <anchor x="648" y="0" name="bottom"/>
  <outline>
    <contour>
      <point x="639" y="-23" type="qcurve" smooth="yes"/>
      <point x="798" y="-23"/>
      <point x="970" y="207"/>
      <point x="970" y="420" type="qcurve" smooth="yes"/>
      <point x="970" y="585"/>
      <point x="820" y="762"/>
      <point x="680" y="761" type="qcurve" smooth="yes"/>
      <point x="448" y="761" type="line"/>
      <point x="448" y="768" type="line"/>
      <point x="650" y="768" type="line" smooth="yes"/>
      <point x="786" y="768"/>
      <point x="932" y="927"/>
      <point x="932" y="1075" type="qcurve" smooth="yes"/>
      <point x="932" y="1270"/>
      <point x="774" y="1479"/>
      <point x="627" y="1479" type="qcurve" smooth="yes"/>
      <point x="467" y="1479"/>
      <point x="295" y="1242"/>
      <point x="295" y="1022" type="qcurve" smooth="yes"/>
      <point x="295" y="1010" type="line"/>
      <point x="103" y="1010" type="line"/>
      <point x="103" y="1020" type="line" smooth="yes"/>
      <point x="103" y="1221"/>
      <point x="365" y="1486"/>
      <point x="625" y="1486" type="qcurve" smooth="yes"/>
      <point x="855" y="1486"/>
      <point x="1122" y="1287.4158653846"/>
      <point x="1122" y="1075" type="qcurve" smooth="yes"/>
      <point x="1122" y="953.0132450331"/>
      <point x="1000.1684590495" y="800.0598965509"/>
      <point x="910" y="768" type="qcurve"/>
      <point x="910" y="764" type="line"/>
      <point x="1020" y="732"/>
      <point x="1160" y="560"/>
      <point x="1160" y="420" type="qcurve" smooth="yes"/>
      <point x="1160" y="206"/>
      <point x="875" y="-30"/>
      <point x="639" y="-30" type="qcurve" smooth="yes"/>
      <point x="389" y="-30"/>
      <point x="84" y="204"/>
      <point x="84" y="456" type="qcurve" smooth="yes"/>
      <point x="84" y="466" type="line"/>
      <point x="276" y="466" type="line"/>
      <point x="276" y="456" type="line" smooth="yes"/>
      <point x="276" y="225"/>
      <point x="464" y="-23"/>
    </contour>
  </outline>
</glyph>
<glyph name="Ka" format="2">
  <advance width="1266"/>
  <unicode hex="041A"/>
  <guideline x="480" y="796" angle="90" identifier="LxfLwWU0sJ"/>
  <anchor x="657" y="1456" name="top"/>
  <anchor x="1053" y="0" name="cy_descender"/>
  <outline>
    <contour>
      <point x="1050" y="0" type="line"/>
      <point x="352" y="823" type="line"/>
      <point x="582" y="823" type="line"/>
      <point x="1286" y="0" type="line"/>
    </contour>
    <contour>
      <point x="266" y="830" type="line"/>
      <point x="581" y="830" type="line"/>
      <point x="1126" y="1456" type="line"/>
      <point x="1133" y="1456" type="line"/>
      <point x="582" y="823" type="line"/>
      <point x="266" y="823" type="line"/>
    </contour>
    <contour>
      <point x="170" y="0" type="line"/>
      <point x="170" y="1456" type="line"/>
      <point x="362" y="1456" type="line"/>
      <point x="362" y="0" type="line"/>
    </contour>
  </outline>
</glyph>
<glyph name="El" format="2">
  <advance width="1448"/>
  <unicode hex="041B"/>
  <outline>
    <contour>
      <point x="349" y="1456" type="line"/>
      <point x="1288" y="1456" type="line"/>
      <point x="1288" y="0" type="line"/>
      <point x="1096" y="0" type="line"/>
      <point x="1096" y="1449" type="line"/>
      <point x="520" y="1449" type="line"/>
      <point x="478" y="542" type="line" smooth="yes"/>
      <point x="465" y="258"/>
      <point x="313" y="-30"/>
      <point x="119" y="-30" type="qcurve" smooth="yes"/>
      <point x="95" y="-30"/>
      <point x="39" y="-23"/>
      <point x="10" y="-13" type="qcurve"/>
      <point x="10" y="-6" type="line"/>
      <point x="34" y="-14"/>
      <point x="91" y="-23"/>
      <point x="119" y="-23" type="qcurve" smooth="yes"/>
      <point x="205" y="-23"/>
      <point x="282" y="248"/>
      <point x="300" y="575" type="qcurve" smooth="yes"/>
    </contour>
  </outline>
</glyph>
<glyph name="Che" format="2">
  <advance width="1388"/>
  <unicode hex="0427"/>
  <guideline x="1123" y="741" angle="90" identifier="nfCxFSb4p1"/>
  <anchor x="1123" y="0" name="cy_descender"/>
  <outline>
    <contour>
      <point x="332" y="1032" type="line" smooth="yes"/>
      <point x="332" y="817"/>
      <point x="519" y="585"/>
      <point x="693" y="585" type="qcurve" smooth="yes"/>
      <point x="812" y="585"/>
      <point x="1023" y="606"/>
      <point x="1122" y="626" type="qcurve"/>
      <point x="1122" y="617" type="line"/>
      <point x="988.2932112512" y="595.0481391606"/>
      <point x="802.7191011236" y="576"/>
      <point x="678" y="576" type="qcurve" smooth="yes"/>
      <point x="367" y="576"/>
      <point x="140" y="807"/>
      <point x="140" y="1035" type="qcurve" smooth="yes"/>
      <point x="140" y="1456" type="line"/>
      <point x="332" y="1456" type="line"/>
    </contour>
    <contour>
      <point x="1218" y="1456" type="line"/>
      <point x="1218" y="0" type="line"/>
      <point x="1026" y="0" type="line"/>
      <point x="1026" y="1456" type="line"/>
    </contour>
  </outline>
</glyph>
<glyph name="Soft" format="2">
  <advance width="1200"/>
  <unicode hex="042C"/>
  <outline>
    <contour>
      <point x="170" y="0" type="line"/>
      <point x="170" y="1456" type="line"/>
      <point x="362" y="1456" type="line"/>
      <point x="362" y="7" type="line"/>
      <point x="652" y="7" type="line" smooth="yes"/>
      <point x="799" y="7"/>
      <point x="958" y="234"/>
      <point x="958" y="445" type="qcurve" smooth="yes"/>
      <point x="958" y="654"/>
      <point x="799" y="879"/>
      <point x="652" y="879" type="qcurve" smooth="yes"/>
      <point x="272" y="879" type="line"/>
      <point x="272" y="886" type="line"/>
      <point x="652" y="886" type="line" smooth="yes"/>
      <point x="892" y="886"/>
      <point x="1150" y="645"/>
      <point x="1150" y="445" type="qcurve" smooth="yes"/>
      <point x="1150" y="245"/>
      <point x="892" y="0"/>
      <point x="652" y="0" type="qcurve" smooth="yes"/>
    </contour>
  </outline>
</glyph>
<glyph name="Ya" format="2">
  <advance width="1250"/>
  <unicode hex="042F"/>
  <anchor x="650" y="1456" name="top"/>
  <outline>
    <contour>
      <point x="40" y="0" type="line"/>
      <point x="387" y="642" type="line"/>
      <point x="566" y="598" type="line"/>
      <point x="248" y="0" type="line"/>
    </contour>
    <contour>
      <point x="888" y="0" type="line"/>
      <point x="888" y="1449" type="line"/>
      <point x="606" y="1449" type="line" smooth="yes"/>
      <point x="463" y="1449"/>
      <point x="310" y="1231"/>
      <point x="310" y="1028" type="qcurve" smooth="yes"/>
      <point x="310" y="822"/>
      <point x="463" y="601"/>
      <point x="606" y="601" type="qcurve" smooth="yes"/>
      <point x="978" y="601" type="line"/>
      <point x="978" y="594" type="line"/>
      <point x="547" y="594" type="line"/>
      <point x="502" y="604" type="line"/>
      <point x="317" y="630"/>
      <point x="118" y="858"/>
      <point x="118" y="1028" type="qcurve" smooth="yes"/>
      <point x="118" y="1222"/>
      <point x="372" y="1456"/>
      <point x="606" y="1456" type="qcurve" smooth="yes"/>
      <point x="1080" y="1456" type="line"/>
      <point x="1080" y="0" type="line"/>
    </contour>
  </outline>
</glyph>
<glyph name="be" format="2">
  <advance width="1172"/>
  <unicode hex="0431"/>
  <outline>
    <contour>
      <point x="285" y="522" type="qcurve" smooth="yes"/>
      <point x="285" y="490" type="line" smooth="yes"/>
      <point x="285" y="243"/>
      <point x="444" y="-23"/>
      <point x="591" y="-23" type="qcurve" smooth="yes"/>
      <point x="738" y="-23"/>
      <point x="897" y="243"/>
      <point x="897" y="490" type="qcurve" smooth="yes"/>
      <point x="897" y="522" type="line" smooth="yes"/>
      <point x="897" y="767"/>
      <point x="738" y="1031"/>
      <point x="591" y="1031" type="qcurve" smooth="yes"/>
      <point x="444" y="1031"/>
      <point x="285" y="767"/>
    </contour>
    <contour>
      <point x="637" y="1042" type="qcurve" smooth="yes"/>
      <point x="846" y="1042"/>
      <point x="1087" y="745"/>
      <point x="1087" y="522" type="qcurve" smooth="yes"/>
      <point x="1087" y="490" type="line" smooth="yes"/>
      <point x="1087" y="261"/>
      <point x="817" y="-30"/>
      <point x="591" y="-30" type="qcurve" smooth="yes"/>
      <point x="357" y="-30"/>
      <point x="95" y="263"/>
      <point x="95" y="605" type="qcurve" smooth="yes"/>
      <point x="95" y="631" type="line" smooth="yes"/>
      <point x="95" y="966"/>
      <point x="365" y="1307"/>
      <point x="667" y="1353" type="qcurve" smooth="yes"/>
      <point x="772" y="1369"/>
      <point x="881" y="1456"/>
      <point x="897" y="1536" type="qcurve"/>
      <point x="1061" y="1536" type="line"/>
      <point x="1053" y="1463"/>
      <point x="877" y="1374"/>
      <point x="688" y="1349" type="qcurve" smooth="yes"/>
      <point x="473" y="1321"/>
      <point x="260" y="1062"/>
      <point x="237" y="801" type="qcurve"/>
      <point x="248" y="801" type="line"/>
      <point x="300" y="913"/>
      <point x="500" y="1042"/>
    </contour>
  </outline>
</glyph>
<glyph name="ve" format="2">
  <advance width="1125"/>
  <unicode hex="0432"/>
  <outline>
    <contour>
      <point x="148" y="0" type="line"/>
      <point x="148" y="1052" type="line"/>
      <point x="602" y="1052" type="line" smooth="yes"/>
      <point x="777" y="1052"/>
      <point x="978" y="912"/>
      <point x="978" y="771" type="qcurve" smooth="yes"/>
      <point x="978" y="682"/>
      <point x="871" y="563"/>
      <point x="782" y="544" type="qcurve"/>
      <point x="782" y="541" type="line"/>
      <point x="891" y="525"/>
      <point x="1015" y="402"/>
      <point x="1015" y="306" type="qcurve" smooth="yes"/>
      <point x="1015" y="161"/>
      <point x="805" y="0"/>
      <point x="632" y="0" type="qcurve" smooth="yes"/>
    </contour>
    <contour>
      <point x="334" y="7" type="line"/>
      <point x="632" y="7" type="line" smooth="yes"/>
      <point x="726" y="7"/>
      <point x="828" y="162"/>
      <point x="828" y="306" type="qcurve" smooth="yes"/>
      <point x="828" y="417"/>
      <point x="726" y="537"/>
      <point x="632" y="537" type="qcurve" smooth="yes"/>
      <point x="254" y="537" type="line"/>
      <point x="254" y="544" type="line"/>
      <point x="616" y="544" type="line" smooth="yes"/>
      <point x="699" y="544"/>
      <point x="790" y="649"/>
      <point x="790" y="761" type="qcurve" smooth="yes"/>
      <point x="790" y="907"/>
      <point x="691" y="1045"/>
      <point x="602" y="1045" type="qcurve" smooth="yes"/>
      <point x="334" y="1045" type="line"/>
    </contour>
  </outline>
</glyph>
<glyph name="de" format="2">
	<unicode hex="0434"/>
	<advance width="1131"/>
	<outline>
		<contour>
			<point x="943" y="-270" type="line"/>
			<point x="943" y="0" type="line"/>
			<point x="178" y="0" type="line"/>
			<point x="178" y="-270" type="line"/>
			<point x="10" y="-270" type="line"/>
			<point x="10" y="7" type="line"/>
			<point x="1111" y="7" type="line"/>
			<point x="1111" y="-270" type="line"/>
		</contour>
		<contour>
			<point x="389" y="1045" type="line"/>
			<point x="366" y="510" type="line" smooth="yes"/>
			<point x="358" y="317"/>
			<point x="324" y="97"/>
			<point x="290" y="3" type="qcurve"/>
			<point x="81" y="3" type="line"/>
			<point x="132" y="86"/>
			<point x="186" y="310"/>
			<point x="196" y="538" type="qcurve" smooth="yes"/>
			<point x="218" y="1052" type="line"/>
			<point x="956" y="1052" type="line"/>
			<point x="956" y="4" type="line"/>
			<point x="770" y="4" type="line"/>
			<point x="770" y="1045" type="line"/>
		</contour>
	</outline>
</glyph>
<glyph name="zhe" format="2">
  <advance width="1395"/>
  <unicode hex="0436"/>
  <anchor x="696" y="1052" name="top"/>
  <anchor x="1220" y="0" name="cy_descender"/>
  <outline>
    <contour>
      <point x="785" y="0" type="line"/>
      <point x="605" y="0" type="line"/>
      <point x="605" y="1052" type="line"/>
      <point x="785" y="1052" type="line"/>
    </contour>
    <contour>
      <point x="1207" y="0" type="line"/>
      <point x="795" y="591" type="line"/>
      <point x="991" y="591" type="line"/>
      <point x="1412" y="0" type="line"/>
    </contour>
    <contour>
      <point x="695" y="594" type="line"/>
      <point x="978" y="594" type="line"/>
      <point x="1298" y="1048" type="line"/>
      <point x="1305" y="1048" type="line"/>
      <point x="981" y="587" type="line"/>
      <point x="695" y="587" type="line"/>
    </contour>
    <contour>
      <point x="180" y="0" type="line"/>
      <point x="-25" y="0" type="line"/>
      <point x="396" y="591" type="line"/>
      <point x="592" y="591" type="line"/>
    </contour>
    <contour>
      <point x="695" y="594" type="line"/>
      <point x="695" y="587" type="line"/>
      <point x="406" y="587" type="line"/>
      <point x="82" y="1048" type="line"/>
      <point x="89" y="1048" type="line"/>
      <point x="409" y="594" type="line"/>
    </contour>
  </outline>
</glyph>
<glyph name="ze" format="2">
	<unicode hex="0437"/>
	<advance width="1095"/>
	<outline>
		<contour>
			<point x="537" y="-30" type="qcurve" smooth="yes"/>
			<point x="306.4561797753" y="-30"/>
			<point x="89" y="197"/>
			<point x="89" y="337" type="qcurve" smooth="yes"/>
			<point x="89" y="342" type="line"/>
			<point x="269" y="342" type="line"/>
			<point x="269" y="337" type="line" smooth="yes"/>
			<point x="269" y="211"/>
			<point x="400" y="-23"/>
			<point x="538" y="-23" type="qcurve" smooth="yes"/>
			<point x="646" y="-23"/>
			<point x="798" y="149"/>
			<point x="798" y="309" type="qcurve" smooth="yes"/>
			<point x="798" y="418"/>
			<point x="697" y="536"/>
			<point x="602" y="536" type="qcurve" smooth="yes"/>
			<point x="417" y="536" type="line"/>
			<point x="417" y="543" type="line"/>
			<point x="584" y="543" type="line" smooth="yes"/>
			<point x="673" y="543"/>
			<point x="765" y="673"/>
			<point x="765" y="761" type="qcurve" smooth="yes"/>
			<point x="765" y="915"/>
			<point x="655" y="1075"/>
			<point x="550" y="1075" type="qcurve" smooth="yes"/>
			<point x="423" y="1075"/>
			<point x="289" y="880"/>
			<point x="289" y="715" type="qcurve" smooth="yes"/>
			<point x="289" y="710" type="line"/>
			<point x="109" y="710" type="line"/>
			<point x="109" y="715" type="line" smooth="yes"/>
			<point x="109" y="882"/>
			<point x="340" y="1082"/>
			<point x="550" y="1082" type="qcurve" smooth="yes"/>
			<point x="750" y="1082"/>
			<point x="953" y="916"/>
			<point x="953" y="776" type="qcurve" smooth="yes"/>
			<point x="953" y="695"/>
			<point x="845" y="564"/>
			<point x="754" y="544" type="qcurve"/>
			<point x="754" y="541" type="line"/>
			<point x="862" y="526"/>
			<point x="985" y="404"/>
			<point x="985" y="309" type="qcurve" smooth="yes"/>
			<point x="985" y="145"/>
			<point x="729.7095343681" y="-30"/>
		</contour>
	</outline>
	<anchor name="bottom" x="556" y="-1"/>
</glyph>
<glyph name="ka" format="2">
  <advance width="1043"/>
  <unicode hex="043A"/>
  <guideline x="241" y="553" angle="90" identifier="lmgRx0QBdK"/>
  <anchor x="588" y="1052" name="top"/>
  <anchor x="837" y="0" name="cy_descender"/>
  <outline>
    <contour>
      <point x="829" y="0" type="line"/>
      <point x="410" y="477" type="line"/>
      <point x="525" y="603" type="line"/>
      <point x="1058" y="0" type="line"/>
    </contour>
    <contour>
      <point x="235" y="481" type="line"/>
      <point x="412" y="481" type="line"/>
      <point x="916" y="1052" type="line"/>
      <point x="926" y="1052" type="line"/>
      <point x="413" y="474" type="line"/>
      <point x="235" y="474" type="line"/>
    </contour>
    <contour>
      <point x="334" y="1052" type="line"/>
      <point x="334" y="0" type="line"/>
      <point x="149" y="0" type="line"/>
      <point x="149" y="1052" type="line"/>
    </contour>
  </outline>
</glyph>
<glyph name="el" format="2">
  <advance width="1125"/>
  <unicode hex="043B"/>
  <outline>
    <contour>
      <point x="419" y="1045" type="line"/>
      <point x="396" y="490" type="line" smooth="yes"/>
      <point x="385" y="217"/>
      <point x="272" y="-22"/>
      <point x="120" y="-22" type="qcurve" smooth="yes"/>
      <point x="86" y="-22"/>
      <point x="29" y="-13"/>
      <point x="10" y="-4" type="qcurve"/>
      <point x="10" y="3" type="line"/>
      <point x="27" y="-4"/>
      <point x="64" y="-10"/>
      <point x="86" y="-10" type="qcurve" smooth="yes"/>
      <point x="148" y="-10"/>
      <point x="214" y="239"/>
      <point x="226" y="516" type="qcurve" smooth="yes"/>
      <point x="249" y="1052" type="line"/>
      <point x="977" y="1052" type="line"/>
      <point x="977" y="0" type="line"/>
      <point x="791" y="0" type="line"/>
      <point x="791" y="1045" type="line"/>
    </contour>
  </outline>
</glyph>
<glyph name="che" format="2">
	<unicode hex="0447"/>
	<advance width="1095"/>
	<outline>
		<contour>
			<point x="311" y="773" type="line" smooth="yes"/>
			<point x="311" y="589"/>
			<point x="427" y="403"/>
			<point x="533" y="403" type="qcurve" smooth="yes"/>
			<point x="601" y="403"/>
			<point x="766" y="429"/>
			<point x="854" y="451" type="qcurve"/>
			<point x="854" y="444" type="line"/>
			<point x="741" y="419"/>
			<point x="589" y="396"/>
			<point x="533" y="396" type="qcurve" smooth="yes"/>
			<point x="301" y="396"/>
			<point x="125" y="583"/>
			<point x="125" y="773" type="qcurve" smooth="yes"/>
			<point x="125" y="1052" type="line"/>
			<point x="311" y="1052" type="line"/>
		</contour>
		<contour>
			<point x="947" y="1052" type="line"/>
			<point x="947" y="0" type="line"/>
			<point x="761" y="0" type="line"/>
			<point x="761" y="1052" type="line"/>
		</contour>
	</outline>
	<anchor name="cy_descender" x="855" y="0"/>
	<guideline x="855" y="515" angle="90" identifier="GGEFes61Q6"/>
</glyph>
<glyph name="hard" format="2">
  <advance width="1220"/>
  <unicode hex="044A"/>
  <outline>
    <contour>
      <point x="320" y="0" type="line"/>
      <point x="320" y="1045" type="line"/>
      <point x="30" y="1045" type="line"/>
      <point x="30" y="1052" type="line"/>
      <point x="506" y="1052" type="line"/>
      <point x="506" y="7" type="line"/>
      <point x="748" y="7" type="line" smooth="yes"/>
      <point x="857" y="7"/>
      <point x="974" y="184"/>
      <point x="974" y="348" type="qcurve" smooth="yes"/>
      <point x="974" y="510"/>
      <point x="857" y="685"/>
      <point x="748" y="685" type="qcurve" smooth="yes"/>
      <point x="416" y="685" type="line"/>
      <point x="416" y="692" type="line"/>
      <point x="748" y="692" type="line" smooth="yes"/>
      <point x="946" y="692"/>
      <point x="1160" y="506"/>
      <point x="1160" y="348" type="qcurve" smooth="yes"/>
      <point x="1160" y="190"/>
      <point x="946" y="0"/>
      <point x="748" y="0" type="qcurve" smooth="yes"/>
    </contour>
  </outline>
</glyph>
<glyph name="ya" format="2">
  <advance width="1117"/>
  <unicode hex="044F"/>
  <anchor x="581" y="1052" name="top"/>
  <outline>
    <contour>
      <point x="85" y="0" type="line"/>
      <point x="375" y="402" type="line"/>
      <point x="561" y="387" type="line"/>
      <point x="289" y="0" type="line"/>
    </contour>
    <contour>
      <point x="119" y="716" type="qcurve" smooth="yes"/>
      <point x="119" y="869"/>
      <point x="328" y="1052"/>
      <point x="521" y="1052" type="qcurve" smooth="yes"/>
      <point x="969" y="1052" type="line"/>
      <point x="969" y="0" type="line"/>
      <point x="783" y="0" type="line"/>
      <point x="783" y="1045" type="line"/>
      <point x="521" y="1045" type="line" smooth="yes"/>
      <point x="417" y="1045"/>
      <point x="305" y="875"/>
      <point x="305" y="716" type="qcurve" smooth="yes"/>
      <point x="305" y="559"/>
      <point x="417" y="391"/>
      <point x="521" y="391" type="qcurve" smooth="yes"/>
      <point x="873" y="391" type="line"/>
      <point x="873" y="384" type="line"/>
      <point x="539" y="384" type="line"/>
      <point x="521" y="384" type="line"/>
      <point x="328" y="384"/>
      <point x="119" y="569"/>
    </contour>
  </outline>
</glyph>
<glyph name="ieukran" format="2">
  <advance width="1068"/>
  <unicode hex="0454"/>
  <guideline x="180" y="548" angle="90" identifier="n4jm0tBg3Y"/>
  <outline>
    <contour>
      <point x="85" y="510" type="qcurve" smooth="yes"/>
      <point x="85" y="542" type="line" smooth="yes"/>
      <point x="85" y="784"/>
      <point x="344" y="1082"/>
      <point x="571" y="1082" type="qcurve" smooth="yes"/>
      <point x="781" y="1082"/>
      <point x="999" y="855"/>
      <point x="999" y="715" type="qcurve" smooth="yes"/>
      <point x="999" y="710" type="line"/>
      <point x="819" y="710" type="line"/>
      <point x="819" y="715" type="line" smooth="yes"/>
      <point x="819" y="888"/>
      <point x="690" y="1075"/>
      <point x="571" y="1075" type="qcurve" smooth="yes"/>
      <point x="426" y="1075"/>
      <point x="271" y="810"/>
      <point x="271" y="564" type="qcurve" smooth="yes"/>
      <point x="271" y="500" type="line" smooth="yes"/>
      <point x="271" y="248"/>
      <point x="426" y="-23"/>
      <point x="571" y="-23" type="qcurve" smooth="yes"/>
      <point x="690" y="-23"/>
      <point x="819" y="164"/>
      <point x="819" y="337" type="qcurve" smooth="yes"/>
      <point x="819" y="342" type="line"/>
      <point x="999" y="342" type="line"/>
      <point x="999" y="337" type="line" smooth="yes"/>
      <point x="999" y="197"/>
      <point x="781" y="-30"/>
      <point x="571" y="-30" type="qcurve" smooth="yes"/>
      <point x="344" y="-30"/>
      <point x="85" y="268"/>
    </contour>
    <contour>
      <point x="181" y="543" type="line"/>
      <point x="710" y="543" type="line"/>
      <point x="710" y="536" type="line"/>
      <point x="181" y="536" type="line"/>
    </contour>
  </outline>
</glyph>
<glyph name="lje" format="2">
  <advance width="1655"/>
  <unicode hex="0459"/>
  <outline>
    <contour>
      <point x="10" y="-4" type="qcurve"/>
      <point x="10" y="3" type="line"/>
      <point x="27" y="-4"/>
      <point x="64" y="-10"/>
      <point x="86" y="-10" type="qcurve" smooth="yes"/>
      <point x="148" y="-10"/>
      <point x="214" y="239"/>
      <point x="226" y="516" type="qcurve" smooth="yes"/>
      <point x="249" y="1052" type="line"/>
      <point x="941" y="1052" type="line"/>
      <point x="941" y="7" type="line"/>
      <point x="1183" y="7" type="line" smooth="yes"/>
      <point x="1292" y="7"/>
      <point x="1409" y="184"/>
      <point x="1409" y="348" type="qcurve" smooth="yes"/>
      <point x="1409" y="511"/>
      <point x="1292" y="686"/>
      <point x="1183" y="686" type="qcurve" smooth="yes"/>
      <point x="851" y="686" type="line"/>
      <point x="851" y="692" type="line"/>
      <point x="1183" y="692" type="line" smooth="yes"/>
      <point x="1381" y="692"/>
      <point x="1595" y="506"/>
      <point x="1595" y="348" type="qcurve" smooth="yes"/>
      <point x="1595" y="190"/>
      <point x="1381" y="0"/>
      <point x="1183" y="0" type="qcurve" smooth="yes"/>
      <point x="755" y="0" type="line"/>
      <point x="755" y="1046" type="line"/>
      <point x="419" y="1046" type="line"/>
      <point x="396" y="490" type="line" smooth="yes"/>
      <point x="385" y="217"/>
      <point x="272" y="-22"/>
      <point x="120" y="-22" type="qcurve" smooth="yes"/>
      <point x="86" y="-22"/>
      <point x="29" y="-13"/>
    </contour>
  </outline>
</glyph>
<glyph name="nje" format="2">
  <advance width="1701"/>
  <unicode hex="045A"/>
  <outline>
    <contour>
      <point x="148" y="0" type="line"/>
      <point x="148" y="1052" type="line"/>
      <point x="334" y="1052" type="line"/>
      <point x="334" y="0" type="line"/>
    </contour>
    <contour>
      <point x="244" y="594" type="line"/>
      <point x="244" y="601" type="line"/>
      <point x="891" y="601" type="line"/>
      <point x="891" y="594" type="line"/>
    </contour>
    <contour>
      <point x="801" y="0" type="line"/>
      <point x="801" y="1052" type="line"/>
      <point x="987" y="1052" type="line"/>
      <point x="987" y="7" type="line"/>
      <point x="1229" y="7" type="line" smooth="yes"/>
      <point x="1338" y="7"/>
      <point x="1455" y="178"/>
      <point x="1455" y="337" type="qcurve" smooth="yes"/>
      <point x="1455" y="461"/>
      <point x="1338" y="594"/>
      <point x="1229" y="594" type="qcurve" smooth="yes"/>
      <point x="917" y="594" type="line"/>
      <point x="917" y="601" type="line"/>
      <point x="1229" y="601" type="line" smooth="yes"/>
      <point x="1428" y="601"/>
      <point x="1641" y="464"/>
      <point x="1641" y="337" type="qcurve" smooth="yes"/>
      <point x="1641" y="183"/>
      <point x="1427" y="0"/>
      <point x="1229" y="0" type="qcurve" smooth="yes"/>
    </contour>
  </outline>
</glyph>
<glyph name="Kaverticalstrokecyr" format="2">
  <advance width="1476"/>
  <unicode hex="049C"/>
  <guideline x="637" y="675" angle="90" identifier="5CJVZV5P4J"/>
  <outline>
    <contour>
      <point x="170" y="0" type="line"/>
      <point x="170" y="1456" type="line"/>
      <point x="362" y="1456" type="line"/>
      <point x="362" y="0" type="line"/>
    </contour>
    <contour>
      <point x="1267" y="0" type="line"/>
      <point x="623" y="823" type="line"/>
      <point x="849" y="823" type="line"/>
      <point x="1496" y="0" type="line"/>
    </contour>
    <contour>
      <point x="637" y="830" type="line"/>
      <point x="847" y="830" type="line"/>
      <point x="1348" y="1456" type="line"/>
      <point x="1355" y="1456" type="line"/>
      <point x="849" y="823" type="line"/>
      <point x="637" y="823" type="line"/>
    </contour>
    <contour>
      <point x="552" y="300" type="line"/>
      <point x="552" y="1156" type="line"/>
      <point x="722" y="1156" type="line"/>
      <point x="722" y="300" type="line"/>
    </contour>
  </outline>
</glyph>
<glyph name="kaverticalstrokecyr" format="2">
  <advance width="1210"/>
  <unicode hex="049D"/>
  <guideline x="547" y="651" angle="90" identifier="ATaXbxe4rK"/>
  <outline>
    <contour>
      <point x="629" y="852" type="line"/>
      <point x="629" y="200" type="line"/>
      <point x="464" y="200" type="line"/>
      <point x="464" y="852" type="line"/>
    </contour>
    <contour>
      <point x="334" y="1052" type="line"/>
      <point x="334" y="0" type="line"/>
      <point x="148" y="0" type="line"/>
      <point x="148" y="1052" type="line"/>
    </contour>
    <contour>
      <point x="1009" y="0" type="line"/>
      <point x="615" y="481" type="line"/>
      <point x="730" y="607" type="line"/>
      <point x="1235" y="0" type="line"/>
    </contour>
    <contour>
      <point x="549" y="548" type="line"/>
      <point x="675" y="548" type="line"/>
      <point x="1089" y="1052" type="line"/>
      <point x="1097" y="1052" type="line"/>
      <point x="677" y="541" type="line"/>
      <point x="549" y="541" type="line"/>
    </contour>
  </outline>
</glyph>
<glyph name="Kabashkircyr" format="2">
  <advance width="1495"/>
  <unicode hex="04A0"/>
  <outline>
    <contour>
      <point x="1280" y="0" type="line"/>
      <point x="582" y="823" type="line"/>
      <point x="812" y="823" type="line"/>
      <point x="1516" y="0" type="line"/>
    </contour>
    <contour>
      <point x="496" y="830" type="line"/>
      <point x="811" y="830" type="line"/>
      <point x="1356" y="1456" type="line"/>
      <point x="1363" y="1456" type="line"/>
      <point x="812" y="823" type="line"/>
      <point x="496" y="823" type="line"/>
    </contour>
    <contour>
      <point x="400" y="0" type="line"/>
      <point x="400" y="1449" type="line"/>
      <point x="24" y="1449" type="line"/>
      <point x="24" y="1456" type="line"/>
      <point x="592" y="1456" type="line"/>
      <point x="592" y="0" type="line"/>
    </contour>
  </outline>
</glyph>
<glyph name="kabashkircyr" format="2">
  <advance width="1215"/>
  <unicode hex="04A1"/>
  <outline>
    <contour>
      <point x="1001" y="0" type="line"/>
      <point x="582" y="477" type="line"/>
      <point x="697" y="603" type="line"/>
      <point x="1230" y="0" type="line"/>
    </contour>
    <contour>
      <point x="407" y="481" type="line"/>
      <point x="584" y="481" type="line"/>
      <point x="1088" y="1052" type="line"/>
      <point x="1098" y="1052" type="line"/>
      <point x="585" y="474" type="line"/>
      <point x="407" y="474" type="line"/>
    </contour>
    <contour>
      <point x="506" y="1052" type="line"/>
      <point x="506" y="0" type="line"/>
      <point x="321" y="0" type="line"/>
      <point x="321" y="1045" type="line"/>
      <point x="30" y="1045" type="line"/>
      <point x="30" y="1052" type="line"/>
    </contour>
  </outline>
</glyph>
<glyph name="Cheverticalstroke-cy" format="2">
  <advance width="1388"/>
  <unicode hex="04B8"/>
  <outline>
    <contour>
      <point x="766" y="1106" type="line"/>
      <point x="766" y="250" type="line"/>
      <point x="596" y="250" type="line"/>
      <point x="596" y="1106" type="line"/>
    </contour>
    <contour>
      <point x="332" y="1032" type="line" smooth="yes"/>
      <point x="332" y="808"/>
      <point x="495" y="583"/>
      <point x="678" y="583" type="qcurve" smooth="yes"/>
      <point x="783" y="583"/>
      <point x="1042" y="601"/>
      <point x="1122" y="623" type="qcurve"/>
      <point x="1122" y="617" type="line"/>
      <point x="1018" y="595"/>
      <point x="783" y="576"/>
      <point x="678" y="576" type="qcurve" smooth="yes"/>
      <point x="367" y="576"/>
      <point x="140" y="807"/>
      <point x="140" y="1035" type="qcurve" smooth="yes"/>
      <point x="140" y="1456" type="line"/>
      <point x="332" y="1456" type="line"/>
    </contour>
    <contour>
      <point x="1218" y="1456" type="line"/>
      <point x="1218" y="0" type="line"/>
      <point x="1026" y="0" type="line"/>
      <point x="1026" y="1456" type="line"/>
    </contour>
  </outline>
</glyph>
<glyph name="cheverticalstroke-cy" format="2">
  <advance width="1115"/>
  <unicode hex="04B9"/>
  <outline>
    <contour>
      <point x="631" y="852" type="line"/>
      <point x="631" y="200" type="line"/>
      <point x="466" y="200" type="line"/>
      <point x="466" y="852" type="line"/>
    </contour>
    <contour>
      <point x="311" y="773" type="line" smooth="yes"/>
      <point x="311" y="596"/>
      <point x="426" y="405"/>
      <point x="533" y="405" type="qcurve" smooth="yes"/>
      <point x="622" y="405"/>
      <point x="766" y="431"/>
      <point x="854" y="453" type="qcurve"/>
      <point x="854" y="444" type="line"/>
      <point x="769" y="425"/>
      <point x="621" y="396"/>
      <point x="497" y="396" type="qcurve" smooth="yes"/>
      <point x="301" y="396"/>
      <point x="125" y="583"/>
      <point x="125" y="773" type="qcurve" smooth="yes"/>
      <point x="125" y="1052" type="line"/>
      <point x="311" y="1052" type="line"/>
    </contour>
    <contour>
      <point x="781" y="0" type="line"/>
      <point x="781" y="1052" type="line"/>
      <point x="967" y="1052" type="line"/>
      <point x="967" y="0" type="line"/>
    </contour>
  </outline>
</glyph>
<glyph name="Shha" format="2">
	<unicode hex="04BA"/>
	<advance width="1388"/>
	<outline>
		<contour>
			<point x="1056" y="424" type="line" smooth="yes"/>
			<point x="1056" y="645"/>
			<point x="888" y="873"/>
			<point x="710" y="873" type="qcurve" smooth="yes"/>
			<point x="616" y="873"/>
			<point x="400" y="855"/>
			<point x="266" y="833" type="qcurve"/>
			<point x="266" y="839" type="line"/>
			<point x="400" y="861"/>
			<point x="625" y="880"/>
			<point x="710" y="880" type="qcurve" smooth="yes"/>
			<point x="1021" y="880"/>
			<point x="1248" y="649"/>
			<point x="1248" y="421" type="qcurve" smooth="yes"/>
			<point x="1248" y="0" type="line"/>
			<point x="1056" y="0" type="line"/>
		</contour>
		<contour>
			<point x="170" y="0" type="line"/>
			<point x="170" y="1456" type="line"/>
			<point x="362" y="1456" type="line"/>
			<point x="362" y="0" type="line"/>
		</contour>
	</outline>
</glyph>
<glyph name="Germandbls" format="2">
  <advance width="1449"/>
  <unicode hex="1E9E"/>
  <outline>
    <contour>
      <point x="178" y="1032" type="line" smooth="yes"/>
      <point x="178" y="1233"/>
      <point x="399" y="1480"/>
      <point x="611" y="1480" type="qcurve"/>
      <point x="837" y="1480"/>
      <point x="1019" y="1313"/>
      <point x="1019" y="1210" type="qcurve" smooth="yes"/>
      <point x="1019" y="1108"/>
      <point x="896" y="996"/>
      <point x="836" y="952" type="qcurve" smooth="yes"/>
      <point x="785" y="915"/>
      <point x="710" y="852"/>
      <point x="710" y="831" type="qcurve" smooth="yes"/>
      <point x="710" y="807"/>
      <point x="803" y="765"/>
      <point x="993" y="696" type="qcurve" smooth="yes"/>
      <point x="1186" y="626"/>
      <point x="1369" y="486"/>
      <point x="1369" y="336" type="qcurve" smooth="yes"/>
      <point x="1369" y="190"/>
      <point x="1126" y="-30"/>
      <point x="940" y="-30" type="qcurve" smooth="yes"/>
      <point x="700" y="-30"/>
      <point x="465" y="152"/>
      <point x="465" y="338" type="qcurve" smooth="yes"/>
      <point x="465" y="350" type="line"/>
      <point x="668" y="350" type="line"/>
      <point x="668" y="338" type="line" smooth="yes"/>
      <point x="668" y="164"/>
      <point x="803" y="-23"/>
      <point x="929" y="-23" type="qcurve" smooth="yes"/>
      <point x="1046" y="-23"/>
      <point x="1172" y="160"/>
      <point x="1172" y="330" type="qcurve" smooth="yes"/>
      <point x="1172" y="427"/>
      <point x="1040" y="486"/>
      <point x="869" y="549" type="qcurve" smooth="yes"/>
      <point x="641" y="633"/>
      <point x="524" y="725"/>
      <point x="524" y="804" type="qcurve" smooth="yes"/>
      <point x="524" y="869"/>
      <point x="602" y="954"/>
      <point x="678" y="1012" type="qcurve" smooth="yes"/>
      <point x="759" y="1074"/>
      <point x="824" y="1138"/>
      <point x="824" y="1195" type="qcurve" smooth="yes"/>
      <point x="824" y="1327"/>
      <point x="718" y="1474"/>
      <point x="611" y="1474" type="qcurve"/>
      <point x="498" y="1474"/>
      <point x="370" y="1227"/>
      <point x="370" y="1002" type="qcurve" smooth="yes"/>
      <point x="370" y="355" type="line" smooth="yes"/>
      <point x="370" y="184"/>
      <point x="203" y="-16"/>
      <point x="68" y="-16" type="qcurve" smooth="yes"/>
      <point x="55" y="-16"/>
      <point x="28" y="-14"/>
      <point x="15" y="-12" type="qcurve"/>
      <point x="15" y="-6" type="line"/>
      <point x="22" y="-7"/>
      <point x="41" y="-9"/>
      <point x="68" y="-9" type="qcurve" smooth="yes"/>
      <point x="122" y="-9"/>
      <point x="178" y="151"/>
      <point x="178" y="355" type="qcurve" smooth="yes"/>
    </contour>
  </outline>
</glyph>
<glyph name="emdash" format="2">
  <advance width="2048"/>
  <unicode hex="2014"/>
  <outline>
    <contour>
      <point x="260" y="627" type="line"/>
      <point x="260" y="634" type="line"/>
      <point x="1788" y="634" type="line"/>
      <point x="1788" y="627" type="line"/>
    </contour>
  </outline>
</glyph>
<glyph name="quoteleft" format="2">
  <advance width="410"/>
  <unicode hex="2018"/>
  <outline>
    <contour>
      <point x="92" y="1073" type="line"/>
      <point x="92" y="1194" type="line" smooth="yes"/>
      <point x="92" y="1284"/>
      <point x="233" y="1454"/>
      <point x="316" y="1522" type="qcurve"/>
      <point x="320" y="1519" type="line"/>
      <point x="244" y="1442"/>
      <point x="275" y="1278"/>
      <point x="275" y="1197" type="qcurve" smooth="yes"/>
      <point x="275" y="1073" type="line"/>
    </contour>
  </outline>
</glyph>
<glyph name="quotedblleft" format="2">
  <advance width="830"/>
  <unicode hex="201C"/>
  <outline>
    <contour>
      <point x="92" y="1073" type="line"/>
      <point x="92" y="1194" type="line" smooth="yes"/>
      <point x="92" y="1284"/>
      <point x="233" y="1454"/>
      <point x="316" y="1522" type="qcurve"/>
      <point x="320" y="1519" type="line"/>
      <point x="244" y="1442"/>
      <point x="275" y="1278"/>
      <point x="275" y="1197" type="qcurve" smooth="yes"/>
      <point x="275" y="1073" type="line"/>
    </contour>
    <contour>
      <point x="512" y="1073" type="line"/>
      <point x="512" y="1194" type="line" smooth="yes"/>
      <point x="512" y="1284"/>
      <point x="653" y="1454"/>
      <point x="736" y="1522" type="qcurve"/>
      <point x="740" y="1519" type="line"/>
      <point x="664" y="1442"/>
      <point x="695" y="1278"/>
      <point x="695" y="1197" type="qcurve" smooth="yes"/>
      <point x="695" y="1073" type="line"/>
    </contour>
  </outline>
</glyph>
<glyph name="quotedblright" format="2">
	<unicode hex="201D"/>
	<advance width="830"/>
	<outline>
		<contour>
			<point x="318" y="1456" type="line"/>
			<point x="318" y="1335" type="line" smooth="yes"/>
			<point x="318" y="1245"/>
			<point x="177" y="1075"/>
			<point x="94" y="1007" type="qcurve"/>
			<point x="90" y="1010" type="line"/>
			<point x="166" y="1087"/>
			<point x="135" y="1251"/>
			<point x="135" y="1332" type="qcurve" smooth="yes"/>
			<point x="135" y="1456" type="line"/>
		</contour>
		<contour>
			<point x="738" y="1456" type="line"/>
			<point x="738" y="1335" type="line" smooth="yes"/>
			<point x="738" y="1245"/>
			<point x="597" y="1075"/>
			<point x="514" y="1007" type="qcurve"/>
			<point x="510" y="1010" type="line"/>
			<point x="586" y="1087"/>
			<point x="555" y="1251"/>
			<point x="555" y="1332" type="qcurve" smooth="yes"/>
			<point x="555" y="1456" type="line"/>
		</contour>
	</outline>
</glyph>
<glyph name="quotedblbase" format="2">
  <advance width="830"/>
  <unicode hex="201E"/>
  <outline>
    <contour>
      <point x="318" y="220" type="line"/>
      <point x="318" y="99" type="line" smooth="yes"/>
      <point x="318" y="9"/>
      <point x="177" y="-161"/>
      <point x="94" y="-229" type="qcurve"/>
      <point x="90" y="-226" type="line"/>
      <point x="166" y="-149"/>
      <point x="135" y="15"/>
      <point x="135" y="96" type="qcurve" smooth="yes"/>
      <point x="135" y="220" type="line"/>
    </contour>
    <contour>
      <point x="738" y="220" type="line"/>
      <point x="738" y="99" type="line" smooth="yes"/>
      <point x="738" y="9"/>
      <point x="597" y="-161"/>
      <point x="514" y="-229" type="qcurve"/>
      <point x="510" y="-226" type="line"/>
      <point x="586" y="-149"/>
      <point x="555" y="15"/>
      <point x="555" y="96" type="qcurve" smooth="yes"/>
      <point x="555" y="220" type="line"/>
    </contour>
  </outline>
</glyph>
<glyph name="daggerdbl" format="2">
  <advance width="1008"/>
  <unicode hex="2021"/>
  <outline>
    <contour>
      <point x="75" y="936" type="line"/>
      <point x="75" y="943" type="line"/>
      <point x="933" y="943" type="line"/>
      <point x="933" y="936" type="line"/>
    </contour>
    <contour>
      <point x="75" y="119" type="line"/>
      <point x="75" y="126" type="line"/>
      <point x="933" y="126" type="line"/>
      <point x="933" y="119" type="line"/>
    </contour>
    <contour>
      <point x="408" y="-451" type="line"/>
      <point x="425" y="152" type="line"/>
      <point x="410" y="536" type="line"/>
      <point x="425" y="905" type="line"/>
      <point x="408" y="1508" type="line"/>
      <point x="599" y="1508" type="line"/>
      <point x="582" y="905" type="line"/>
      <point x="597" y="534" type="line"/>
      <point x="582" y="152" type="line"/>
      <point x="599" y="-451" type="line"/>
    </contour>
  </outline>
</glyph>
<glyph name="fraction" format="2">
	<unicode hex="2044"/>
	<advance width="342"/>
	<outline>
		<contour>
			<point x="720" y="1456" type="line"/>
			<point x="-198" y="0" type="line"/>
			<point x="-378" y="0" type="line"/>
			<point x="540" y="1456" type="line"/>
		</contour>
	</outline>
	<guideline y="901" identifier="tcCoNUQTdD"/>
	<guideline y="555" identifier="0lx51aIE0d"/>
</glyph>
<glyph name="commercialMinusSign" format="2">
	<unicode hex="2052"/>
	<advance width="889"/>
	<outline>
		<contour>
			<point x="68" y="-2" type="line"/>
			<point x="653" y="1501" type="line"/>
			<point x="821" y="1458" type="line"/>
			<point x="236" y="-45" type="line"/>
		</contour>
		<contour>
			<point x="335" y="1362" type="qcurve" smooth="yes"/>
			<point x="335" y="1371"/>
			<point x="349" y="1386"/>
			<point x="360" y="1386" type="qcurve" smooth="yes"/>
			<point x="370" y="1386"/>
			<point x="384" y="1371"/>
			<point x="384" y="1362" type="qcurve" smooth="yes"/>
			<point x="384" y="1352"/>
			<point x="370" y="1337"/>
			<point x="360" y="1337" type="qcurve" smooth="yes"/>
			<point x="349" y="1337"/>
			<point x="335" y="1352"/>
		</contour>
		<contour>
			<point x="505" y="92" type="qcurve" smooth="yes"/>
			<point x="505" y="101"/>
			<point x="519" y="116"/>
			<point x="530" y="116" type="qcurve" smooth="yes"/>
			<point x="540" y="116"/>
			<point x="554" y="101"/>
			<point x="554" y="92" type="qcurve" smooth="yes"/>
			<point x="554" y="82"/>
			<point x="540" y="67"/>
			<point x="530" y="67" type="qcurve" smooth="yes"/>
			<point x="519" y="67"/>
			<point x="505" y="82"/>
		</contour>
	</outline>
</glyph>
